<?xml version="1.0" standalone="no"?>
 <!DOCTYPE svg PUBLIC "-//W3C//DTD SVG 1.1//EN" 
 "http://www.w3.org/Graphics/SVG/1.1/DTD/svg11.dtd"> 
<svg xmlns="http://www.w3.org/2000/svg" version="1.1" 
    width="29.7002cm" height="21.0007cm" viewBox="0 0 116930 82680 ">
<title>SVG Picture created as IBP-F_SilkS.svg date 2019/12/18 14:58:19 </title>
  <desc>Picture generated by PCBNEW </desc>
<g style="fill:#000000; fill-opacity:1;stroke:#000000; stroke-opacity:1;
stroke-linecap:round; stroke-linejoin:round; "
 transform="translate(0 0) scale(1 1)">
</g>
<g style="fill:#000000; fill-opacity:0.0; 
stroke:#000000; stroke-width:-0.000393701; stroke-opacity:1; 
stroke-linecap:round; stroke-linejoin:round;">
</g>
<g style="fill:#000000; fill-opacity:0.0; 
stroke:#000000; stroke-width:59.0551; stroke-opacity:1; 
stroke-linecap:round; stroke-linejoin:round;">
<text x="56750" y="57835.4"
textLength="3638.83" font-size="524.934" lengthAdjust="spacingAndGlyphs"
text-anchor="middle" opacity="0">151,130 мм</text>
<path d="M55268 57816
L55043 57816
" />
<path d="M55156 57816
L55156 57422
L55118 57479
L55081 57516
L55043 57535
" />
<path d="M55625 57422
L55437 57422
L55418 57610
L55437 57591
L55475 57572
L55568 57572
L55606 57591
L55625 57610
L55643 57647
L55643 57741
L55625 57779
L55606 57797
L55568 57816
L55475 57816
L55437 57797
L55418 57779
" />
<path d="M56018 57816
L55793 57816
" />
<path d="M55906 57816
L55906 57422
L55868 57479
L55831 57516
L55793 57535
" />
<path d="M56206 57797
L56206 57816
L56187 57854
L56168 57872
" />
<path d="M56581 57816
L56356 57816
" />
<path d="M56468 57816
L56468 57422
L56431 57479
L56393 57516
L56356 57535
" />
<path d="M56712 57422
L56956 57422
L56824 57572
L56881 57572
L56918 57591
L56937 57610
L56956 57647
L56956 57741
L56937 57779
L56918 57797
L56881 57816
L56768 57816
L56731 57797
L56712 57779
" />
<path d="M57199 57422
L57237 57422
L57274 57441
L57293 57460
L57312 57497
L57331 57572
L57331 57666
L57312 57741
L57293 57779
L57274 57797
L57237 57816
L57199 57816
L57162 57797
L57143 57779
L57124 57741
L57106 57666
L57106 57572
L57124 57497
L57143 57460
L57162 57441
L57199 57422
" />
<path d="M57799 57816
L57799 57554
L57912 57760
L58024 57554
L58024 57816
" />
<path d="M58212 57816
L58212 57554
L58324 57760
L58437 57554
L58437 57816
" />
</g>
<g style="fill:#000000; fill-opacity:0.0; 
stroke:#000000; stroke-width:47.2441; stroke-opacity:1; 
stroke-linecap:round; stroke-linejoin:round;">
<path d="M86500 57138
L27000 57138
" />
<path d="M86500 55700
L86500 57369
" />
<path d="M27000 55700
L27000 57369
" />
<path d="M27000 57138
L27443 56907
" />
<path d="M27000 57138
L27443 57369
" />
<path d="M86500 57138
L86056 56907
" />
<path d="M86500 57138
L86056 57369
" />
</g>
<g style="fill:#000000; fill-opacity:0.0; 
stroke:#000000; stroke-width:59.0551; stroke-opacity:1; 
stroke-linecap:round; stroke-linejoin:round;">
<g transform="rotate(-89.4436 90120.6 38304.7)">
<text x="90120.6" y="38501.5"
textLength="3263.87" font-size="524.934" lengthAdjust="spacingAndGlyphs"
text-anchor="middle" opacity="0">88,562 мм</text>
</g>
<path d="M90059 39747
L90040 39785
L90021 39803
L89984 39821
L89965 39821
L89927 39802
L89909 39783
L89891 39746
L89891 39671
L89910 39633
L89929 39615
L89967 39596
L89986 39597
L90023 39616
L90042 39635
L90060 39672
L90059 39747
L90078 39785
L90096 39804
L90134 39823
L90209 39824
L90246 39805
L90265 39787
L90284 39749
L90285 39674
L90267 39637
L90248 39618
L90211 39599
L90136 39598
L90098 39616
L90079 39635
L90060 39672
" />
<path d="M90063 39372
L90044 39410
L90025 39428
L89987 39447
L89968 39446
L89931 39427
L89913 39408
L89894 39371
L89895 39296
L89914 39258
L89933 39240
L89971 39221
L89989 39222
L90027 39241
L90045 39260
L90064 39297
L90063 39372
L90081 39410
L90100 39429
L90137 39448
L90212 39449
L90250 39430
L90269 39412
L90288 39374
L90289 39299
L90270 39262
L90252 39243
L90214 39224
L90139 39223
L90102 39241
L90083 39260
L90064 39297
" />
<path d="M90272 39037
L90291 39037
L90328 39056
L90347 39075
" />
<path d="M89901 38677
L89899 38864
L90086 38885
L90068 38866
L90049 38828
L90050 38735
L90069 38697
L90088 38679
L90126 38660
L90220 38661
L90257 38680
L90276 38699
L90294 38737
L90293 38831
L90274 38868
L90255 38887
" />
<path d="M89904 38321
L89904 38396
L89922 38433
L89941 38452
L89996 38490
L90071 38510
L90221 38511
L90259 38493
L90278 38474
L90297 38437
L90298 38362
L90279 38324
L90261 38306
L90223 38286
L90130 38286
L90092 38304
L90073 38322
L90054 38360
L90053 38435
L90072 38472
L90090 38491
L90128 38510
" />
<path d="M89944 38134
L89925 38115
L89907 38077
L89908 37983
L89927 37946
L89946 37927
L89983 37909
L90021 37909
L90077 37929
L90300 38156
L90302 37912
" />
<path d="M90307 37444
L90044 37441
L90251 37331
L90046 37216
L90309 37219
" />
<path d="M90311 37031
L90048 37029
L90255 36918
L90050 36804
L90313 36806
" />
</g>
<g style="fill:#000000; fill-opacity:0.0; 
stroke:#000000; stroke-width:47.2441; stroke-opacity:1; 
stroke-linecap:round; stroke-linejoin:round;">
<path d="M89451 55732
L89789 20867
" />
<path d="M86511 55703
L89682 55734
" />
<path d="M86850 20838
L90020 20869
" />
<path d="M89789 20867
L90016 21312
" />
<path d="M89789 20867
L89554 21308
" />
<path d="M89451 55732
L89686 55291
" />
<path d="M89451 55732
L89224 55286
" />
<path d="M-10200 -78500
L-10200 -78400
" />
<path d="M78610 42881
L77118 42881
" />
<path d="M73523 42881
L75015 42881
" />
<path d="M77118 42223
L75015 42223
" />
<path d="M77118 43538
L77118 42223
" />
<path d="M75015 43538
L77118 43538
" />
<path d="M75015 42223
L75015 43538
" />
<path d="M83600 53300
L69400 53300
" />
<path d="M69400 53300
L69400 41100
" />
<path d="M69400 41100
L83600 41100
" />
<path d="M83600 41100
L83600 53300
" />
<path d="M61173 32081
L61129 32081
" />
<path d="M56307 32081
L56350 32081
" />
<path d="M61129 31148
L56350 31148
" />
<path d="M61129 33014
L61129 31148
" />
<path d="M56350 33014
L61129 33014
" />
<path d="M56350 31148
L56350 33014
" />
<path d="M66283 30420
L66326 30420
" />
<path d="M71149 30420
L71106 30420
" />
<path d="M66326 31353
L71106 31353
" />
<path d="M66326 29487
L66326 31353
" />
<path d="M71106 29487
L66326 29487
" />
<path d="M71106 31353
L71106 29487
" />
<path d="M61948 25306
L61992 25306
" />
<path d="M66814 25306
L66771 25306
" />
<path d="M61992 26239
L66771 26239
" />
<path d="M61992 24373
L61992 26239
" />
<path d="M66771 24373
L61992 24373
" />
<path d="M66771 26239
L66771 24373
" />
<path d="M73488 37365
L73488 37322
" />
<path d="M73488 32499
L73488 32542
" />
<path d="M74421 37322
L74421 32542
" />
<path d="M72555 37322
L74421 37322
" />
<path d="M72555 32542
L72555 37322
" />
<path d="M74421 32542
L72555 32542
" />
<path d="M58913 22755
L58913 22798
" />
<path d="M58913 27621
L58913 27577
" />
<path d="M57980 22798
L57980 27577
" />
<path d="M59846 22798
L57980 22798
" />
<path d="M59846 27577
L59846 22798
" />
<path d="M57980 27577
L59846 27577
" />
<path d="M66870 22593
L66826 22593
" />
<path d="M62003 22593
L62047 22593
" />
<path d="M66826 21660
L62047 21660
" />
<path d="M66826 23526
L66826 21660
" />
<path d="M62047 23526
L66826 23526
" />
<path d="M62047 21660
L62047 23526
" />
<path d="M68086 27153.4 A1023.62 1023.62 0.0 0 0 66338.6 27877.2 " />
<path d="M66338.6 27877.2 A1023.62 1023.62 0.0 0 0 68086 28601 " />
<path d="M68090 28585
L68090 27168
" />
<path d="M36100 34681
L36100 34090
" />
<circle cx="36100" cy="36500" r="1818.9" /> 
<path d="M46316 46612
L46316 47478
" />
<path d="M45883 47045
L46749 47045
" />
<path d="M54946 49484
L54946 49515
" />
<path d="M54930 49144
L54930 49855
" />
<path d="M54914 48991
L54914 50008
" />
<path d="M54899 48874
L54899 50125
" />
<path d="M54883 48775
L54883 50224
" />
<path d="M54867 48688
L54867 50311
" />
<path d="M54851 48611
L54851 50388
" />
<path d="M54836 48539
L54836 50460
" />
<path d="M54820 48472
L54820 50527
" />
<path d="M54804 48410
L54804 50589
" />
<path d="M54788 48351
L54788 50648
" />
<path d="M54773 48296
L54773 50703
" />
<path d="M54757 48243
L54757 50756
" />
<path d="M54741 48192
L54741 50807
" />
<path d="M54725 48143
L54725 50856
" />
<path d="M54710 48096
L54710 50903
" />
<path d="M54694 48051
L54694 50948
" />
<path d="M54678 48008
L54678 50991
" />
<path d="M54662 47965
L54662 51034
" />
<path d="M54647 47924
L54647 51075
" />
<path d="M54631 47885
L54631 51114
" />
<path d="M54615 47846
L54615 51153
" />
<path d="M54600 47808
L54600 51191
" />
<path d="M54584 47772
L54584 51227
" />
<path d="M54568 47736
L54568 51263
" />
<path d="M54552 47701
L54552 51298
" />
<path d="M54537 47666
L54537 51333
" />
<path d="M54521 47633
L54521 51366
" />
<path d="M54505 47600
L54505 51399
" />
<path d="M54489 47568
L54489 51431
" />
<path d="M54474 47537
L54474 51462
" />
<path d="M54458 47506
L54458 51493
" />
<path d="M54442 47476
L54442 51523
" />
<path d="M54426 47446
L54426 51553
" />
<path d="M54411 47417
L54411 51582
" />
<path d="M54395 47388
L54395 51611
" />
<path d="M54379 47361
L54379 51638
" />
<path d="M54363 47333
L54363 51666
" />
<path d="M54348 47306
L54348 51693
" />
<path d="M54332 47279
L54332 51720
" />
<path d="M54316 47253
L54316 51746
" />
<path d="M54300 47227
L54300 51772
" />
<path d="M54285 47201
L54285 51798
" />
<path d="M54269 47176
L54269 51823
" />
<path d="M54253 47151
L54253 51848
" />
<path d="M54237 47127
L54237 51872
" />
<path d="M54222 47103
L54222 51896
" />
<path d="M54206 47079
L54206 51920
" />
<path d="M54190 47056
L54190 51943
" />
<path d="M54174 47033
L54174 51966
" />
<path d="M54159 47010
L54159 51989
" />
<path d="M54143 46988
L54143 52011
" />
<path d="M54127 46966
L54127 52033
" />
<path d="M54111 46944
L54111 52055
" />
<path d="M54096 46922
L54096 52077
" />
<path d="M54080 46901
L54080 52098
" />
<path d="M54064 46880
L54064 52119
" />
<path d="M54048 46859
L54048 52140
" />
<path d="M54033 46838
L54033 52161
" />
<path d="M54017 46818
L54017 52181
" />
<path d="M54001 46798
L54001 52201
" />
<path d="M53985 46779
L53985 52220
" />
<path d="M53970 46759
L53970 52240
" />
<path d="M53954 46740
L53954 52259
" />
<path d="M53938 46721
L53938 52278
" />
<path d="M53922 46702
L53922 52297
" />
<path d="M53907 46683
L53907 52316
" />
<path d="M53891 46664
L53891 52335
" />
<path d="M53875 46646
L53875 52353
" />
<path d="M53859 46628
L53859 52371
" />
<path d="M53844 46611
L53844 52388
" />
<path d="M53828 46593
L53828 52406
" />
<path d="M53812 46575
L53812 52424
" />
<path d="M53796 46558
L53796 52441
" />
<path d="M53781 46541
L53781 52458
" />
<path d="M53765 46524
L53765 52475
" />
<path d="M53750 46507
L53750 52492
" />
<path d="M53734 46491
L53734 52508
" />
<path d="M53718 46474
L53718 52525
" />
<path d="M53702 46458
L53702 52541
" />
<path d="M53687 46442
L53687 52557
" />
<path d="M53671 46426
L53671 52573
" />
<path d="M53655 46411
L53655 52588
" />
<path d="M53639 46395
L53639 52604
" />
<path d="M53624 46379
L53624 52620
" />
<path d="M53608 46364
L53608 52635
" />
<path d="M53592 46349
L53592 52650
" />
<path d="M53576 46334
L53576 52665
" />
<path d="M53561 46319
L53561 52680
" />
<path d="M53545 46305
L53545 52694
" />
<path d="M53529 46290
L53529 52709
" />
<path d="M53513 46275
L53513 52724
" />
<path d="M53498 46261
L53498 52738
" />
<path d="M53482 46247
L53482 52752
" />
<path d="M53466 46233
L53466 52766
" />
<path d="M53450 46220
L53450 52779
" />
<path d="M53435 46206
L53435 52793
" />
<path d="M53419 46192
L53419 52807
" />
<path d="M53403 50381
L53403 52820
" />
<path d="M53403 46179
L53403 48618
" />
<path d="M53387 50381
L53387 52834
" />
<path d="M53387 46165
L53387 48618
" />
<path d="M53372 50381
L53372 52847
" />
<path d="M53372 46152
L53372 48618
" />
<path d="M53356 50381
L53356 52860
" />
<path d="M53356 46139
L53356 48618
" />
<path d="M53340 50381
L53340 52873
" />
<path d="M53340 46126
L53340 48618
" />
<path d="M53324 50381
L53324 52886
" />
<path d="M53324 46113
L53324 48618
" />
<path d="M53309 50381
L53309 52898
" />
<path d="M53309 46101
L53309 48618
" />
<path d="M53293 50381
L53293 52911
" />
<path d="M53293 46088
L53293 48618
" />
<path d="M53277 50381
L53277 52924
" />
<path d="M53277 46075
L53277 48618
" />
<path d="M53261 50381
L53261 52936
" />
<path d="M53261 46063
L53261 48618
" />
<path d="M53246 50381
L53246 52948
" />
<path d="M53246 46051
L53246 48618
" />
<path d="M53230 50381
L53230 52960
" />
<path d="M53230 46039
L53230 48618
" />
<path d="M53214 50381
L53214 52972
" />
<path d="M53214 46027
L53214 48618
" />
<path d="M53198 50381
L53198 52984
" />
<path d="M53198 46015
L53198 48618
" />
<path d="M53183 50381
L53183 52996
" />
<path d="M53183 46003
L53183 48618
" />
<path d="M53167 50381
L53167 53007
" />
<path d="M53167 45992
L53167 48618
" />
<path d="M53151 50381
L53151 53019
" />
<path d="M53151 45980
L53151 48618
" />
<path d="M53135 50381
L53135 53030
" />
<path d="M53135 45969
L53135 48618
" />
<path d="M53120 50381
L53120 53042
" />
<path d="M53120 45957
L53120 48618
" />
<path d="M53104 50381
L53104 53053
" />
<path d="M53104 45946
L53104 48618
" />
<path d="M53088 50381
L53088 53064
" />
<path d="M53088 45935
L53088 48618
" />
<path d="M53072 50381
L53072 53075
" />
<path d="M53072 45924
L53072 48618
" />
<path d="M53057 50381
L53057 53086
" />
<path d="M53057 45913
L53057 48618
" />
<path d="M53041 50381
L53041 53097
" />
<path d="M53041 45902
L53041 48618
" />
<path d="M53025 50381
L53025 53108
" />
<path d="M53025 45891
L53025 48618
" />
<path d="M53009 50381
L53009 53118
" />
<path d="M53009 45881
L53009 48618
" />
<path d="M52994 50381
L52994 53129
" />
<path d="M52994 45870
L52994 48618
" />
<path d="M52978 50381
L52978 53139
" />
<path d="M52978 45860
L52978 48618
" />
<path d="M52962 50381
L52962 53150
" />
<path d="M52962 45850
L52962 48618
" />
<path d="M52946 50381
L52946 53160
" />
<path d="M52946 45839
L52946 48618
" />
<path d="M52931 50381
L52931 53170
" />
<path d="M52931 45829
L52931 48618
" />
<path d="M52915 50381
L52915 53180
" />
<path d="M52915 45819
L52915 48618
" />
<path d="M52899 50381
L52899 53190
" />
<path d="M52899 45809
L52899 48618
" />
<path d="M52883 50381
L52883 53200
" />
<path d="M52883 45799
L52883 48618
" />
<path d="M52868 50381
L52868 53210
" />
<path d="M52868 45789
L52868 48618
" />
<path d="M52852 50381
L52852 53219
" />
<path d="M52852 45780
L52852 48618
" />
<path d="M52836 50381
L52836 53229
" />
<path d="M52836 45770
L52836 48618
" />
<path d="M52820 50381
L52820 53238
" />
<path d="M52820 45761
L52820 48618
" />
<path d="M52805 50381
L52805 53248
" />
<path d="M52805 45751
L52805 48618
" />
<path d="M52789 50381
L52789 53257
" />
<path d="M52789 45742
L52789 48618
" />
<path d="M52773 50381
L52773 53266
" />
<path d="M52773 45733
L52773 48618
" />
<path d="M52757 50381
L52757 53275
" />
<path d="M52757 45724
L52757 48618
" />
<path d="M52742 50381
L52742 53285
" />
<path d="M52742 45714
L52742 48618
" />
<path d="M52726 50381
L52726 53293
" />
<path d="M52726 45706
L52726 48618
" />
<path d="M52710 50381
L52710 53302
" />
<path d="M52710 45697
L52710 48618
" />
<path d="M52694 50381
L52694 53311
" />
<path d="M52694 45688
L52694 48618
" />
<path d="M52679 50381
L52679 53320
" />
<path d="M52679 45679
L52679 48618
" />
<path d="M52663 50381
L52663 53328
" />
<path d="M52663 45671
L52663 48618
" />
<path d="M52647 50381
L52647 53337
" />
<path d="M52647 45662
L52647 48618
" />
<path d="M52631 50381
L52631 53345
" />
<path d="M52631 45654
L52631 48618
" />
<path d="M52616 50381
L52616 53354
" />
<path d="M52616 45645
L52616 48618
" />
<path d="M52600 50381
L52600 53362
" />
<path d="M52600 45637
L52600 48618
" />
<path d="M52584 50381
L52584 53370
" />
<path d="M52584 45629
L52584 48618
" />
<path d="M52568 50381
L52568 53378
" />
<path d="M52568 45621
L52568 48618
" />
<path d="M52553 50381
L52553 53387
" />
<path d="M52553 45612
L52553 48618
" />
<path d="M52537 50381
L52537 53394
" />
<path d="M52537 45605
L52537 48618
" />
<path d="M52521 50381
L52521 53402
" />
<path d="M52521 45597
L52521 48618
" />
<path d="M52505 50381
L52505 53410
" />
<path d="M52505 45589
L52505 48618
" />
<path d="M52490 50381
L52490 53418
" />
<path d="M52490 45581
L52490 48618
" />
<path d="M52474 50381
L52474 53425
" />
<path d="M52474 45574
L52474 48618
" />
<path d="M52458 50381
L52458 53433
" />
<path d="M52458 45566
L52458 48618
" />
<path d="M52442 50381
L52442 53440
" />
<path d="M52442 45559
L52442 48618
" />
<path d="M52427 50381
L52427 53448
" />
<path d="M52427 45551
L52427 48618
" />
<path d="M52411 50381
L52411 53455
" />
<path d="M52411 45544
L52411 48618
" />
<path d="M52395 50381
L52395 53462
" />
<path d="M52395 45537
L52395 48618
" />
<path d="M52379 50381
L52379 53470
" />
<path d="M52379 45529
L52379 48618
" />
<path d="M52364 50381
L52364 53477
" />
<path d="M52364 45522
L52364 48618
" />
<path d="M52348 50381
L52348 53484
" />
<path d="M52348 45515
L52348 48618
" />
<path d="M52332 50381
L52332 53491
" />
<path d="M52332 45508
L52332 48618
" />
<path d="M52316 50381
L52316 53498
" />
<path d="M52316 45501
L52316 48618
" />
<path d="M52301 50381
L52301 53505
" />
<path d="M52301 45494
L52301 48618
" />
<path d="M52285 50381
L52285 53511
" />
<path d="M52285 45488
L52285 48618
" />
<path d="M52269 50381
L52269 53518
" />
<path d="M52269 45481
L52269 48618
" />
<path d="M52253 50381
L52253 53525
" />
<path d="M52253 45474
L52253 48618
" />
<path d="M52238 50381
L52238 53531
" />
<path d="M52238 45468
L52238 48618
" />
<path d="M52222 50381
L52222 53538
" />
<path d="M52222 45461
L52222 48618
" />
<path d="M52206 50381
L52206 53544
" />
<path d="M52206 45455
L52206 48618
" />
<path d="M52190 50381
L52190 53550
" />
<path d="M52190 45449
L52190 48618
" />
<path d="M52175 50381
L52175 53557
" />
<path d="M52175 45442
L52175 48618
" />
<path d="M52159 50381
L52159 53563
" />
<path d="M52159 45436
L52159 48618
" />
<path d="M52143 50381
L52143 53569
" />
<path d="M52143 45430
L52143 48618
" />
<path d="M52127 50381
L52127 53575
" />
<path d="M52127 45424
L52127 48618
" />
<path d="M52112 50381
L52112 53581
" />
<path d="M52112 45418
L52112 48618
" />
<path d="M52096 50381
L52096 53587
" />
<path d="M52096 45412
L52096 48618
" />
<path d="M52080 50381
L52080 53592
" />
<path d="M52080 45407
L52080 48618
" />
<path d="M52064 50381
L52064 53598
" />
<path d="M52064 45401
L52064 48618
" />
<path d="M52049 50381
L52049 53604
" />
<path d="M52049 45395
L52049 48618
" />
<path d="M52033 50381
L52033 53610
" />
<path d="M52033 45389
L52033 48618
" />
<path d="M52017 50381
L52017 53615
" />
<path d="M52017 45384
L52017 48618
" />
<path d="M52001 50381
L52001 53621
" />
<path d="M52001 45378
L52001 48618
" />
<path d="M51986 50381
L51986 53626
" />
<path d="M51986 45373
L51986 48618
" />
<path d="M51970 50381
L51970 53631
" />
<path d="M51970 45368
L51970 48618
" />
<path d="M51954 50381
L51954 53637
" />
<path d="M51954 45362
L51954 48618
" />
<path d="M51938 50381
L51938 53642
" />
<path d="M51938 45357
L51938 48618
" />
<path d="M51923 50381
L51923 53647
" />
<path d="M51923 45352
L51923 48618
" />
<path d="M51907 50381
L51907 53652
" />
<path d="M51907 45347
L51907 48618
" />
<path d="M51891 50381
L51891 53657
" />
<path d="M51891 45342
L51891 48618
" />
<path d="M51875 50381
L51875 53662
" />
<path d="M51875 45337
L51875 48618
" />
<path d="M51860 50381
L51860 53667
" />
<path d="M51860 45332
L51860 48618
" />
<path d="M51844 50381
L51844 53672
" />
<path d="M51844 45327
L51844 48618
" />
<path d="M51828 50381
L51828 53677
" />
<path d="M51828 45322
L51828 48618
" />
<path d="M51812 50381
L51812 53681
" />
<path d="M51812 45318
L51812 48618
" />
<path d="M51797 50381
L51797 53686
" />
<path d="M51797 45313
L51797 48618
" />
<path d="M51781 50381
L51781 53690
" />
<path d="M51781 45309
L51781 48618
" />
<path d="M51765 50381
L51765 53695
" />
<path d="M51765 45304
L51765 48618
" />
<path d="M51750 50381
L51750 53700
" />
<path d="M51750 45300
L51750 48618
" />
<path d="M51734 50381
L51734 53704
" />
<path d="M51734 45295
L51734 48618
" />
<path d="M51718 50381
L51718 53708
" />
<path d="M51718 45291
L51718 48618
" />
<path d="M51702 50381
L51702 53712
" />
<path d="M51702 45287
L51702 48618
" />
<path d="M51687 50381
L51687 53717
" />
<path d="M51687 45282
L51687 48618
" />
<path d="M51671 50381
L51671 53721
" />
<path d="M51671 45278
L51671 48618
" />
<path d="M51655 50381
L51655 53725
" />
<path d="M51655 45274
L51655 48618
" />
<path d="M51639 45270
L51639 53729
" />
<path d="M51624 45266
L51624 53733
" />
<path d="M51608 45262
L51608 53737
" />
<path d="M51592 45259
L51592 53740
" />
<path d="M51576 45255
L51576 53744
" />
<path d="M51561 45251
L51561 53748
" />
<path d="M51545 45248
L51545 53751
" />
<path d="M51529 45244
L51529 53755
" />
<path d="M51513 45240
L51513 53759
" />
<path d="M51498 45237
L51498 53762
" />
<path d="M51482 45233
L51482 53766
" />
<path d="M51466 45230
L51466 53769
" />
<path d="M51450 45227
L51450 53772
" />
<path d="M51435 45224
L51435 53775
" />
<path d="M51419 45220
L51419 53779
" />
<path d="M51403 45217
L51403 53782
" />
<path d="M51387 45214
L51387 53785
" />
<path d="M51372 45211
L51372 53788
" />
<path d="M51356 45209
L51356 53790
" />
<path d="M51340 45206
L51340 53793
" />
<path d="M51324 45203
L51324 53796
" />
<path d="M51309 45200
L51309 53799
" />
<path d="M51293 45198
L51293 53801
" />
<path d="M51277 45195
L51277 53804
" />
<path d="M51261 45192
L51261 53807
" />
<path d="M51246 45190
L51246 53809
" />
<path d="M51230 45187
L51230 53812
" />
<path d="M51214 45185
L51214 53814
" />
<path d="M51198 45183
L51198 53816
" />
<path d="M51183 45180
L51183 53819
" />
<path d="M51167 45178
L51167 53821
" />
<path d="M51151 45176
L51151 53823
" />
<path d="M51135 45174
L51135 53825
" />
<path d="M51120 45172
L51120 53827
" />
<path d="M51104 45170
L51104 53829
" />
<path d="M51088 45168
L51088 53831
" />
<path d="M51072 45166
L51072 53833
" />
<path d="M51057 45164
L51057 53835
" />
<path d="M51041 45162
L51041 53837
" />
<path d="M51025 45161
L51025 53838
" />
<path d="M51009 45159
L51009 53840
" />
<path d="M50994 45158
L50994 53841
" />
<path d="M50978 45156
L50978 53843
" />
<path d="M50962 45155
L50962 53844
" />
<path d="M50946 45153
L50946 53846
" />
<path d="M50931 45152
L50931 53847
" />
<path d="M50915 45151
L50915 53848
" />
<path d="M50899 45150
L50899 53850
" />
<path d="M50883 45148
L50883 53851
" />
<path d="M50868 45148
L50868 53851
" />
<path d="M50852 45146
L50852 53853
" />
<path d="M50836 45145
L50836 53854
" />
<path d="M50820 45144
L50820 53855
" />
<path d="M50804 45144
L50804 53855
" />
<path d="M50788 45143
L50788 53856
" />
<path d="M50773 45142
L50773 53857
" />
<path d="M50757 45141
L50757 53858
" />
<path d="M50741 45140
L50741 53859
" />
<path d="M50725 45140
L50725 53859
" />
<path d="M50710 45139
L50710 53860
" />
<path d="M50694 45139
L50694 53860
" />
<path d="M50678 45138
L50678 53861
" />
<path d="M50662 45138
L50662 53861
" />
<path d="M50647 45138
L50647 53861
" />
<path d="M50631 45138
L50631 53861
" />
<path d="M50615 45137
L50615 53862
" />
<path d="M50600 45137
L50600 53862
" />
<path d="M50584 45137
L50584 53862
" />
<path d="M50568 45137
L50568 53862
" />
<circle cx="50568.5" cy="49500" r="4377.95" /> 
<path d="M43200 40400
L43200 49000
" />
<path d="M43200 49000
L41600 49000
" />
<path d="M41600 49000
L41600 40400
" />
<path d="M41600 40400
L43200 40400
" />
<path d="M31700 41000
L36100 41000
" />
<path d="M36100 41000
L36100 45000
" />
<path d="M36100 45000
L31700 45000
" />
<path d="M31700 45000
L31700 41000
" />
<path d="M54256 28823
L54906 28823
" />
<path d="M54256 26776
L54256 28823
" />
<path d="M56343 26776
L54256 26776
" />
<path d="M56343 28823
L56343 26776
" />
<path d="M55693 28823
L56343 28823
" />
<path d="M55693.7 28823.6 A393.701 393.701 0.0 0 0 54906.3 28823.6 " />
<path d="M47343 31776
L46693 31776
" />
<path d="M47343 35823
L47343 31776
" />
<path d="M45256 35823
L47343 35823
" />
<path d="M45256 31776
L45256 35823
" />
<path d="M45906 31776
L45256 31776
" />
<path d="M45906.3 31776.4 A393.701 393.701 0.0 0 0 46693.7 31776.4 " />
<path d="M70744 34137
L69862 34137
" />
<path d="M70744 32664
L69862 32664
" />
<path d="M69862 32664
L69862 34137
" />
<path d="M70744 32664
L70744 34137
" />
<path d="M70867 32664
L69738 32664
" />
<path d="M71590 34137
L69015 34137
" />
<path d="M69015 33075
L69015 34137
" />
<path d="M71590 33075
L71590 34137
" />
<path d="M53266 39000
L54310 39000
" />
<path d="M60133 39000
L59089 39000
" />
<path d="M54310 39933
L59089 39933
" />
<path d="M54310 38066
L54310 39933
" />
<path d="M59089 38066
L54310 38066
" />
<path d="M59089 39933
L59089 38066
" />
<path d="M58433 36800
L57389 36800
" />
<path d="M51566 36800
L52610 36800
" />
<path d="M57389 35866
L52610 35866
" />
<path d="M57389 37733
L57389 35866
" />
<path d="M52610 37733
L57389 37733
" />
<path d="M52610 35866
L52610 37733
" />
<path d="M40266 30000
L41310 30000
" />
<path d="M47133 30000
L46089 30000
" />
<path d="M41310 30933
L46089 30933
" />
<path d="M41310 29066
L41310 30933
" />
<path d="M46089 29066
L41310 29066
" />
<path d="M46089 30933
L46089 29066
" />
<path d="M49533 27000
L48489 27000
" />
<path d="M42666 27000
L43710 27000
" />
<path d="M48489 26066
L43710 26066
" />
<path d="M48489 27933
L48489 26066
" />
<path d="M43710 27933
L48489 27933
" />
<path d="M43710 26066
L43710 27933
" />
<path d="M68000 43133
L68000 42089
" />
<path d="M68000 36266
L68000 37310
" />
<path d="M68933 42089
L68933 37310
" />
<path d="M67066 42089
L68933 42089
" />
<path d="M67066 37310
L67066 42089
" />
<path d="M68933 37310
L67066 37310
" />
<path d="M59200 42266
L59200 42715
" />
<path d="M59200 51133
L59200 50684
" />
<path d="M57381 42715
L57381 50684
" />
<path d="M61018 42715
L57381 42715
" />
<path d="M61018 50684
L61018 42715
" />
<path d="M57381 50684
L61018 50684
" />
<path d="M65087 38728
L64492 38728
" />
<path d="M65087 37271
L64492 37271
" />
<path d="M64492 35984
L64492 40015
" />
<path d="M65087 40015
L63260 40015
" />
<path d="M65087 35984
L63260 35984
" />
<path d="M63260 35984
L63260 40015
" />
<path d="M65087 35984
L65087 40015
" />
<path d="M62937 44666
L63662 44666
" />
<path d="M62937 44571
L63662 44571
" />
<path d="M62937 44618
L63662 44618
" />
<path d="M63300 42089
L63300 43554
" />
<path d="M63300 46310
L63300 44845
" />
<path d="M62937 43554
L62937 44845
" />
<path d="M63662 43554
L62937 43554
" />
<path d="M63662 44845
L63662 43554
" />
<path d="M62937 44845
L63662 44845
" />
<path d="M76663 32050
L77137 32050
" />
<circle cx="75807.1" cy="32050.4" r="856.259" /> 
<path d="M37959 26298
L38840 26298
" />
<path d="M37959 26203
L38840 26203
" />
<path d="M37959 26251
L38840 26251
" />
<path d="M38400 24609
L38400 24865
" />
<path d="M38400 26790
L38400 26534
" />
<path d="M37959 24865
L37959 26534
" />
<path d="M38840 24865
L37959 24865
" />
<path d="M38840 26534
L38840 24865
" />
<path d="M37959 26534
L38840 26534
" />
<path d="M61582 33869
L61582 34751
" />
<path d="M61677 33869
L61677 34751
" />
<path d="M61629 33869
L61629 34751
" />
<path d="M63271 34310
L63015 34310
" />
<path d="M61090 34310
L61346 34310
" />
<path d="M63015 33869
L61346 33869
" />
<path d="M63015 34751
L63015 33869
" />
<path d="M61346 34751
L63015 34751
" />
<path d="M61346 33869
L61346 34751
" />
<path d="M68440 46101
L67559 46101
" />
<path d="M68440 46196
L67559 46196
" />
<path d="M68440 46148
L67559 46148
" />
<path d="M68000 47790
L68000 47534
" />
<path d="M68000 45609
L68000 45865
" />
<path d="M68440 47534
L68440 45865
" />
<path d="M67559 47534
L68440 47534
" />
<path d="M67559 45865
L67559 47534
" />
<path d="M68440 45865
L67559 45865
" />
<path d="M82507 37768
L83232 37768
" />
<path d="M82507 37674
L83232 37674
" />
<path d="M82507 37721
L83232 37721
" />
<path d="M82870 35192
L82870 36656
" />
<path d="M82870 39412
L82870 37948
" />
<path d="M82507 36656
L82507 37948
" />
<path d="M83232 36656
L82507 36656
" />
<path d="M83232 37948
L83232 36656
" />
<path d="M82507 37948
L83232 37948
" />
<path d="M48700 39343
L48700 39071
" />
<path d="M48700 37209
L48700 37481
" />
<path d="M49259 39071
L49259 37481
" />
<path d="M48140 39071
L49259 39071
" />
<path d="M48140 37481
L48140 39071
" />
<path d="M49259 37481
L48140 37481
" />
<path d="M36056 28900
L36328 28900
" />
<path d="M38190 28900
L37918 28900
" />
<path d="M36328 29459
L37918 29459
" />
<path d="M36328 28340
L36328 29459
" />
<path d="M37918 28340
L36328 28340
" />
<path d="M37918 29459
L37918 28340
" />
<path d="M50000 34843
L50000 34571
" />
<path d="M50000 32709
L50000 32981
" />
<path d="M50559 34571
L50559 32981
" />
<path d="M49440 34571
L50559 34571
" />
<path d="M49440 32981
L49440 34571
" />
<path d="M50559 32981
L49440 32981
" />
<path d="M69208 25113
L69208 24841
" />
<path d="M69208 22979
L69208 23251
" />
<path d="M69767 24841
L69767 23251
" />
<path d="M68649 24841
L69767 24841
" />
<path d="M68649 23251
L68649 24841
" />
<path d="M69767 23251
L68649 23251
" />
<path d="M55240 25672
L54968 25672
" />
<path d="M53106 25672
L53377 25672
" />
<path d="M54968 25113
L53377 25113
" />
<path d="M54968 26231
L54968 25113
" />
<path d="M53377 26231
L54968 26231
" />
<path d="M53377 25113
L53377 26231
" />
<circle cx="41200" cy="35684.3" r="2015.75" /> 
<path d="M36700 24656
L36700 24928
" />
<path d="M36700 26790
L36700 26518
" />
<path d="M36140 24928
L36140 26518
" />
<path d="M37259 24928
L36140 24928
" />
<path d="M37259 26518
L37259 24928
" />
<path d="M36140 26518
L37259 26518
" />
<path d="M81204 38800
L81204 38170
" />
<path d="M81519 38485
L80889 38485
" />
<path d="M74916 36993
L74916 36390
" />
<path d="M74932 37124
L74932 36259
" />
<path d="M74948 37224
L74948 36160
" />
<path d="M74964 37307
L74964 36076
" />
<path d="M74979 37381
L74979 36002
" />
<path d="M74995 37448
L74995 35936
" />
<path d="M75011 37508
L75011 35875
" />
<path d="M75027 37565
L75027 35818
" />
<path d="M75042 37617
L75042 35766
" />
<path d="M75058 37667
L75058 35716
" />
<path d="M75074 37714
L75074 35669
" />
<path d="M75090 37759
L75090 35624
" />
<path d="M75105 37802
L75105 35581
" />
<path d="M75121 37843
L75121 35540
" />
<path d="M75137 37882
L75137 35501
" />
<path d="M75153 37920
L75153 35463
" />
<path d="M75168 37957
L75168 35427
" />
<path d="M75184 37992
L75184 35391
" />
<path d="M75200 38026
L75200 35357
" />
<path d="M75216 38060
L75216 35324
" />
<path d="M75231 38092
L75231 35291
" />
<path d="M75247 38124
L75247 35260
" />
<path d="M75263 38154
L75263 35229
" />
<path d="M75279 38184
L75279 35200
" />
<path d="M75294 38213
L75294 35170
" />
<path d="M75310 38241
L75310 35142
" />
<path d="M75326 38269
L75326 35114
" />
<path d="M75342 38296
L75342 35087
" />
<path d="M75357 38323
L75357 35061
" />
<path d="M75373 38349
L75373 35035
" />
<path d="M75389 38374
L75389 35009
" />
<path d="M75405 38399
L75405 34985
" />
<path d="M75420 38423
L75420 34960
" />
<path d="M75436 38447
L75436 34936
" />
<path d="M75452 38471
L75452 34912
" />
<path d="M75468 38494
L75468 34890
" />
<path d="M75483 38516
L75483 34867
" />
<path d="M75499 38538
L75499 34845
" />
<path d="M75515 38560
L75515 34823
" />
<path d="M75531 38581
L75531 34802
" />
<path d="M75546 38603
L75546 34781
" />
<path d="M75562 38623
L75562 34760
" />
<path d="M75578 38644
L75578 34740
" />
<path d="M75594 38664
L75594 34720
" />
<path d="M75609 38683
L75609 34700
" />
<path d="M75625 38703
L75625 34681
" />
<path d="M75641 38722
L75641 34662
" />
<path d="M75657 38740
L75657 34643
" />
<path d="M75672 38759
L75672 34624
" />
<path d="M75688 38777
L75688 34606
" />
<path d="M75704 38795
L75704 34588
" />
<path d="M75720 38813
L75720 34570
" />
<path d="M75735 38830
L75735 34553
" />
<path d="M75751 38847
L75751 34536
" />
<path d="M75767 38864
L75767 34519
" />
<path d="M75783 38881
L75783 34503
" />
<path d="M75798 38897
L75798 34486
" />
<path d="M75814 38913
L75814 34470
" />
<path d="M75830 38929
L75830 34454
" />
<path d="M75846 38945
L75846 34438
" />
<path d="M75861 38961
L75861 34423
" />
<path d="M75877 38976
L75877 34407
" />
<path d="M75893 38991
L75893 34392
" />
<path d="M75909 39006
L75909 34377
" />
<path d="M75924 39021
L75924 34362
" />
<path d="M75940 39035
L75940 34348
" />
<path d="M75956 39050
L75956 34334
" />
<path d="M75972 39064
L75972 34320
" />
<path d="M75987 39077
L75987 34306
" />
<path d="M76003 39091
L76003 34292
" />
<path d="M76019 39105
L76019 34279
" />
<path d="M76035 39118
L76035 34265
" />
<path d="M76050 39131
L76050 34252
" />
<path d="M76066 36125
L76066 34239
" />
<path d="M76066 39144
L76066 37259
" />
<path d="M76082 36125
L76082 34226
" />
<path d="M76082 39157
L76082 37259
" />
<path d="M76098 36125
L76098 34213
" />
<path d="M76098 39170
L76098 37259
" />
<path d="M76113 36125
L76113 34201
" />
<path d="M76113 39183
L76113 37259
" />
<path d="M76129 36125
L76129 34188
" />
<path d="M76129 39195
L76129 37259
" />
<path d="M76145 36125
L76145 34176
" />
<path d="M76145 39207
L76145 37259
" />
<path d="M76161 36125
L76161 34164
" />
<path d="M76161 39219
L76161 37259
" />
<path d="M76176 36125
L76176 34152
" />
<path d="M76176 39231
L76176 37259
" />
<path d="M76192 36125
L76192 34140
" />
<path d="M76192 39243
L76192 37259
" />
<path d="M76208 36125
L76208 34129
" />
<path d="M76208 39255
L76208 37259
" />
<path d="M76224 36125
L76224 34117
" />
<path d="M76224 39266
L76224 37259
" />
<path d="M76239 36125
L76239 34106
" />
<path d="M76239 39277
L76239 37259
" />
<path d="M76255 36125
L76255 34095
" />
<path d="M76255 39288
L76255 37259
" />
<path d="M76271 36125
L76271 34084
" />
<path d="M76271 39300
L76271 37259
" />
<path d="M76287 36125
L76287 34073
" />
<path d="M76287 39311
L76287 37259
" />
<path d="M76302 36125
L76302 34062
" />
<path d="M76302 39321
L76302 37259
" />
<path d="M76318 36125
L76318 34051
" />
<path d="M76318 39332
L76318 37259
" />
<path d="M76334 36125
L76334 34041
" />
<path d="M76334 39342
L76334 37259
" />
<path d="M76350 36125
L76350 34031
" />
<path d="M76350 39353
L76350 37259
" />
<path d="M76365 36125
L76365 34020
" />
<path d="M76365 39363
L76365 37259
" />
<path d="M76381 36125
L76381 34010
" />
<path d="M76381 39373
L76381 37259
" />
<path d="M76397 36125
L76397 34000
" />
<path d="M76397 39383
L76397 37259
" />
<path d="M76412 36125
L76412 33990
" />
<path d="M76412 39393
L76412 37259
" />
<path d="M76428 36125
L76428 33981
" />
<path d="M76428 39403
L76428 37259
" />
<path d="M76444 36125
L76444 33971
" />
<path d="M76444 39412
L76444 37259
" />
<path d="M76460 36125
L76460 33962
" />
<path d="M76460 39422
L76460 37259
" />
<path d="M76475 36125
L76475 33952
" />
<path d="M76475 39431
L76475 37259
" />
<path d="M76491 36125
L76491 33943
" />
<path d="M76491 39440
L76491 37259
" />
<path d="M76507 36125
L76507 33934
" />
<path d="M76507 39449
L76507 37259
" />
<path d="M76523 36125
L76523 33925
" />
<path d="M76523 39458
L76523 37259
" />
<path d="M76538 36125
L76538 33916
" />
<path d="M76538 39467
L76538 37259
" />
<path d="M76554 36125
L76554 33907
" />
<path d="M76554 39476
L76554 37259
" />
<path d="M76570 36125
L76570 33899
" />
<path d="M76570 39485
L76570 37259
" />
<path d="M76586 36125
L76586 33890
" />
<path d="M76586 39493
L76586 37259
" />
<path d="M76601 36125
L76601 33882
" />
<path d="M76601 39501
L76601 37259
" />
<path d="M76617 36125
L76617 33874
" />
<path d="M76617 39509
L76617 37259
" />
<path d="M76633 36125
L76633 33866
" />
<path d="M76633 39518
L76633 37259
" />
<path d="M76649 36125
L76649 33857
" />
<path d="M76649 39526
L76649 37259
" />
<path d="M76664 36125
L76664 33850
" />
<path d="M76664 39534
L76664 37259
" />
<path d="M76680 36125
L76680 33842
" />
<path d="M76680 39542
L76680 37259
" />
<path d="M76696 36125
L76696 33834
" />
<path d="M76696 39549
L76696 37259
" />
<path d="M76712 36125
L76712 33826
" />
<path d="M76712 39557
L76712 37259
" />
<path d="M76727 36125
L76727 33819
" />
<path d="M76727 39564
L76727 37259
" />
<path d="M76743 36125
L76743 33811
" />
<path d="M76743 39572
L76743 37259
" />
<path d="M76759 36125
L76759 33804
" />
<path d="M76759 39579
L76759 37259
" />
<path d="M76775 36125
L76775 33797
" />
<path d="M76775 39587
L76775 37259
" />
<path d="M76790 36125
L76790 33790
" />
<path d="M76790 39594
L76790 37259
" />
<path d="M76806 36125
L76806 33783
" />
<path d="M76806 39601
L76806 37259
" />
<path d="M76822 36125
L76822 33776
" />
<path d="M76822 39607
L76822 37259
" />
<path d="M76838 36125
L76838 33769
" />
<path d="M76838 39614
L76838 37259
" />
<path d="M76853 36125
L76853 33762
" />
<path d="M76853 39621
L76853 37259
" />
<path d="M76869 36125
L76869 33756
" />
<path d="M76869 39627
L76869 37259
" />
<path d="M76885 36125
L76885 33749
" />
<path d="M76885 39634
L76885 37259
" />
<path d="M76901 36125
L76901 33743
" />
<path d="M76901 39640
L76901 37259
" />
<path d="M76916 36125
L76916 33737
" />
<path d="M76916 39647
L76916 37259
" />
<path d="M76932 36125
L76932 33730
" />
<path d="M76932 39653
L76932 37259
" />
<path d="M76948 36125
L76948 33724
" />
<path d="M76948 39659
L76948 37259
" />
<path d="M76964 36125
L76964 33718
" />
<path d="M76964 39665
L76964 37259
" />
<path d="M76979 36125
L76979 33712
" />
<path d="M76979 39671
L76979 37259
" />
<path d="M76995 36125
L76995 33707
" />
<path d="M76995 39677
L76995 37259
" />
<path d="M77011 36125
L77011 33701
" />
<path d="M77011 39683
L77011 37259
" />
<path d="M77027 36125
L77027 33695
" />
<path d="M77027 39688
L77027 37259
" />
<path d="M77042 36125
L77042 33690
" />
<path d="M77042 39694
L77042 37259
" />
<path d="M77058 36125
L77058 33684
" />
<path d="M77058 39699
L77058 37259
" />
<path d="M77074 36125
L77074 33679
" />
<path d="M77074 39705
L77074 37259
" />
<path d="M77090 36125
L77090 33674
" />
<path d="M77090 39710
L77090 37259
" />
<path d="M77105 36125
L77105 33668
" />
<path d="M77105 39715
L77105 37259
" />
<path d="M77121 36125
L77121 33663
" />
<path d="M77121 39720
L77121 37259
" />
<path d="M77137 36125
L77137 33658
" />
<path d="M77137 39725
L77137 37259
" />
<path d="M77153 36125
L77153 33653
" />
<path d="M77153 39730
L77153 37259
" />
<path d="M77168 36125
L77168 33648
" />
<path d="M77168 39735
L77168 37259
" />
<path d="M77184 36125
L77184 33644
" />
<path d="M77184 39740
L77184 37259
" />
<path d="M77200 39744
L77200 33639
" />
<path d="M77216 39749
L77216 33635
" />
<path d="M77231 39753
L77231 33630
" />
<path d="M77247 39758
L77247 33625
" />
<path d="M77263 39762
L77263 33621
" />
<path d="M77279 39766
L77279 33617
" />
<path d="M77294 39770
L77294 33613
" />
<path d="M77310 39774
L77310 33609
" />
<path d="M77326 39778
L77326 33605
" />
<path d="M77342 39782
L77342 33601
" />
<path d="M77357 39786
L77357 33597
" />
<path d="M77373 39790
L77373 33594
" />
<path d="M77389 39793
L77389 33590
" />
<path d="M77405 39797
L77405 33587
" />
<path d="M77420 39800
L77420 33583
" />
<path d="M77436 39804
L77436 33579
" />
<path d="M77452 39807
L77452 33576
" />
<path d="M77468 39810
L77468 33573
" />
<path d="M77483 39813
L77483 33570
" />
<path d="M77499 39816
L77499 33567
" />
<path d="M77515 39819
L77515 33564
" />
<path d="M77531 39822
L77531 33561
" />
<path d="M77546 39825
L77546 33558
" />
<path d="M77562 39828
L77562 33555
" />
<path d="M77578 39830
L77578 33553
" />
<path d="M77594 39833
L77594 33550
" />
<path d="M77609 39835
L77609 33548
" />
<path d="M77625 39838
L77625 33546
" />
<path d="M77641 39840
L77641 33543
" />
<path d="M77657 39842
L77657 33541
" />
<path d="M77672 39844
L77672 33539
" />
<path d="M77688 39847
L77688 33537
" />
<path d="M77704 39849
L77704 33535
" />
<path d="M77720 39851
L77720 33533
" />
<path d="M77735 39852
L77735 33531
" />
<path d="M77751 39854
L77751 33529
" />
<path d="M77767 39856
L77767 33527
" />
<path d="M77783 39857
L77783 33526
" />
<path d="M77798 39859
L77798 33524
" />
<path d="M77814 39861
L77814 33523
" />
<path d="M77830 39862
L77830 33522
" />
<path d="M77846 39863
L77846 33520
" />
<path d="M77862 39864
L77862 33519
" />
<path d="M77877 39865
L77877 33518
" />
<path d="M77893 39866
L77893 33517
" />
<path d="M77909 39867
L77909 33516
" />
<path d="M77925 39868
L77925 33515
" />
<path d="M77940 39869
L77940 33514
" />
<path d="M77956 39870
L77956 33513
" />
<path d="M77972 39870
L77972 33513
" />
<path d="M77988 39871
L77988 33512
" />
<path d="M78003 39872
L78003 33512
" />
<path d="M78019 39872
L78019 33511
" />
<path d="M78035 39872
L78035 33511
" />
<path d="M78051 39873
L78051 33511
" />
<path d="M78066 39873
L78066 33511
" />
<path d="M78082 39873
L78082 33511
" />
<path d="M78098 39873
L78098 33510
" />
<circle cx="78098.4" cy="36692.1" r="3196.85" /> 
<path d="M53096 43300
L51603 43300
" />
<path d="M48009 43300
L49501 43300
" />
<path d="M51603 42642
L49501 42642
" />
<path d="M51603 43957
L51603 42642
" />
<path d="M49501 43957
L51603 43957
" />
<path d="M49501 42642
L49501 43957
" />
</g>
<g style="fill:#000000; fill-opacity:0.0; 
stroke:#000000; stroke-width:59.0551; stroke-opacity:1; 
stroke-linecap:round; stroke-linejoin:round;">
<path d="M39651 40336
L37918 40336
" />
<path d="M39651 48800
L37918 48800
" />
<path d="M39651 40336
L39651 48800
" />
<path d="M37918 40336
L37918 48800
" />
</g>
<g style="fill:#000000; fill-opacity:0.0; 
stroke:#000000; stroke-width:47.2441; stroke-opacity:1; 
stroke-linecap:round; stroke-linejoin:round;">
<path d="M29600 43024
L29600 43788
" />
<path d="M29600 51733
L29600 50969
" />
<path d="M30926 49551
L30926 43788
" />
<path d="M30572 49906
L30926 49551
" />
<path d="M30926 50260
L30572 49906
" />
<path d="M30926 50969
L30926 50260
" />
<path d="M28273 49551
L28273 43788
" />
<path d="M28627 49906
L28273 49551
" />
<path d="M28273 50260
L28627 49906
" />
<path d="M28273 50969
L28273 50260
" />
<path d="M28273 43788
L30926 43788
" />
<path d="M28273 50969
L30926 50969
" />
<path d="M28222 51441
L28930 51441
" />
<path d="M28576 51796
L28576 51087
" />
</g>
<g style="fill:#000000; fill-opacity:0.0; 
stroke:#000000; stroke-width:59.0551; stroke-opacity:1; 
stroke-linecap:round; stroke-linejoin:round;">
<text x="76066.9" y="42026.8"
textLength="1220.38" font-size="524.934" lengthAdjust="spacingAndGlyphs"
text-anchor="middle" opacity="0">C13</text>
<path d="M75813 41970
L75795 41989
L75738 42008
L75701 42008
L75645 41989
L75607 41951
L75588 41914
L75570 41839
L75570 41783
L75588 41708
L75607 41670
L75645 41633
L75701 41614
L75738 41614
L75795 41633
L75813 41651
" />
<path d="M76188 42008
L75963 42008
" />
<path d="M76076 42008
L76076 41614
L76038 41670
L76001 41708
L75963 41726
" />
<path d="M76320 41614
L76563 41614
L76432 41764
L76488 41764
L76526 41783
L76544 41801
L76563 41839
L76563 41933
L76544 41970
L76526 41989
L76488 42008
L76376 42008
L76338 41989
L76320 41970
" />
<text x="29740.2" y="38132.3"
textLength="751.687" font-size="524.934" lengthAdjust="spacingAndGlyphs"
text-anchor="middle" opacity="0">J4</text>
<path d="M29608 37719
L29608 38001
L29590 38057
L29552 38094
L29496 38113
L29458 38113
" />
<path d="M29965 37851
L29965 38113
" />
<path d="M29871 37701
L29777 37982
L30021 37982
" />
<text x="34913.4" y="52510.2"
textLength="751.687" font-size="524.934" lengthAdjust="spacingAndGlyphs"
text-anchor="middle" opacity="0">J3</text>
<path d="M34782 52097
L34782 52379
L34763 52435
L34725 52472
L34669 52491
L34632 52491
" />
<path d="M34932 52097
L35175 52097
L35044 52247
L35100 52247
L35138 52266
L35157 52285
L35175 52322
L35175 52416
L35157 52453
L35138 52472
L35100 52491
L34988 52491
L34950 52472
L34932 52453
" />
<text x="71606.3" y="38837"
textLength="751.687" font-size="524.934" lengthAdjust="spacingAndGlyphs"
text-anchor="middle" opacity="0">J2</text>
<path d="M71475 38424
L71475 38705
L71456 38762
L71418 38799
L71362 38818
L71325 38818
" />
<path d="M71643 38462
L71662 38443
L71700 38424
L71793 38424
L71831 38443
L71850 38462
L71868 38499
L71868 38537
L71850 38593
L71625 38818
L71868 38818
" />
<text x="79736.2" y="25372.4"
textLength="751.687" font-size="524.934" lengthAdjust="spacingAndGlyphs"
text-anchor="middle" opacity="0">J1</text>
<path d="M79604 24959
L79604 25241
L79586 25297
L79548 25334
L79492 25353
L79455 25353
" />
<path d="M79998 25353
L79773 25353
" />
<path d="M79886 25353
L79886 24959
L79848 25016
L79811 25053
L79773 25072
" />
<text x="83600" y="42100"
textLength="1145.39" font-size="524.934" lengthAdjust="spacingAndGlyphs"
text-anchor="middle" opacity="0">TR1</text>
<path d="M83103 41687
L83328 41687
" />
<path d="M83215 42081
L83215 41687
" />
<path d="M83684 42081
L83553 41893
" />
<path d="M83459 42081
L83459 41687
L83609 41687
L83646 41706
L83665 41725
L83684 41762
L83684 41818
L83665 41856
L83646 41875
L83609 41893
L83459 41893
" />
<path d="M84059 42081
L83834 42081
" />
<path d="M83946 42081
L83946 41687
L83909 41743
L83871 41781
L83834 41800
" />
<text x="58740.2" y="30952"
textLength="845.426" font-size="524.934" lengthAdjust="spacingAndGlyphs"
text-anchor="middle" opacity="0">R5</text>
<path d="M58674 30933
L58543 30745
" />
<path d="M58449 30933
L58449 30539
L58599 30539
L58637 30558
L58655 30577
L58674 30614
L58674 30670
L58655 30708
L58637 30726
L58599 30745
L58449 30745
" />
<path d="M59030 30539
L58843 30539
L58824 30726
L58843 30708
L58880 30689
L58974 30689
L59011 30708
L59030 30726
L59049 30764
L59049 30858
L59030 30895
L59011 30914
L58974 30933
L58880 30933
L58843 30914
L58824 30895
" />
<text x="68716.5" y="31944.1"
textLength="845.426" font-size="524.934" lengthAdjust="spacingAndGlyphs"
text-anchor="middle" opacity="0">R7</text>
<path d="M68650 31925
L68519 31737
" />
<path d="M68425 31925
L68425 31531
L68575 31531
L68613 31550
L68632 31569
L68650 31606
L68650 31662
L68632 31700
L68613 31719
L68575 31737
L68425 31737
" />
<path d="M68782 31531
L69044 31531
L68875 31925
" />
<text x="64381.9" y="26829.9"
textLength="1220.38" font-size="524.934" lengthAdjust="spacingAndGlyphs"
text-anchor="middle" opacity="0">R12</text>
<path d="M64128 26811
L63997 26623
" />
<path d="M63903 26811
L63903 26417
L64053 26417
L64091 26436
L64110 26454
L64128 26492
L64128 26548
L64110 26586
L64091 26604
L64053 26623
L63903 26623
" />
<path d="M64503 26811
L64278 26811
" />
<path d="M64391 26811
L64391 26417
L64353 26473
L64316 26511
L64278 26529
" />
<path d="M64653 26454
L64672 26436
L64709 26417
L64803 26417
L64841 26436
L64859 26454
L64878 26492
L64878 26529
L64859 26586
L64634 26811
L64878 26811
" />
<g transform="rotate(-90 74815 34932.3)">
<text x="74815" y="35129.1"
textLength="845.426" font-size="524.934" lengthAdjust="spacingAndGlyphs"
text-anchor="middle" opacity="0">R9</text>
</g>
<path d="M74993 34997
L74805 35129
" />
<path d="M74993 35222
L74599 35222
L74599 35072
L74618 35035
L74636 35016
L74674 34997
L74730 34997
L74768 35016
L74786 35035
L74805 35072
L74805 35222
" />
<path d="M74993 34810
L74993 34735
L74974 34697
L74955 34679
L74899 34641
L74824 34622
L74674 34622
L74636 34641
L74618 34660
L74599 34697
L74599 34772
L74618 34810
L74636 34829
L74674 34847
L74768 34847
L74805 34829
L74824 34810
L74843 34772
L74843 34697
L74824 34660
L74805 34641
L74768 34622
" />
<g transform="rotate(-90 57586.6 25188.2)">
<text x="57586.6" y="25385"
textLength="845.426" font-size="524.934" lengthAdjust="spacingAndGlyphs"
text-anchor="middle" opacity="0">R8</text>
</g>
<path d="M57764 25253
L57577 25385
" />
<path d="M57764 25478
L57371 25478
L57371 25328
L57389 25291
L57408 25272
L57446 25253
L57502 25253
L57539 25272
L57558 25291
L57577 25328
L57577 25478
" />
<path d="M57539 25028
L57520 25066
L57502 25085
L57464 25103
L57446 25103
L57408 25085
L57389 25066
L57371 25028
L57371 24953
L57389 24916
L57408 24897
L57446 24878
L57464 24878
L57502 24897
L57520 24916
L57539 24953
L57539 25028
L57558 25066
L57577 25085
L57614 25103
L57689 25103
L57727 25085
L57745 25066
L57764 25028
L57764 24953
L57745 24916
L57727 24897
L57689 24878
L57614 24878
L57577 24897
L57558 24916
L57539 24953
" />
<text x="64437" y="21463.8"
textLength="845.426" font-size="524.934" lengthAdjust="spacingAndGlyphs"
text-anchor="middle" opacity="0">R2</text>
<path d="M64371 21445
L64240 21257
" />
<path d="M64146 21445
L64146 21051
L64296 21051
L64333 21070
L64352 21088
L64371 21126
L64371 21182
L64352 21220
L64333 21238
L64296 21257
L64146 21257
" />
<path d="M64521 21088
L64540 21070
L64577 21051
L64671 21051
L64708 21070
L64727 21088
L64746 21126
L64746 21163
L64727 21220
L64502 21445
L64746 21445
" />
<g transform="rotate(-90 65960.6 27877.2)">
<text x="65960.6" y="28074"
textLength="864.173" font-size="524.934" lengthAdjust="spacingAndGlyphs"
text-anchor="middle" opacity="0">U3</text>
</g>
<path d="M65745 28177
L66063 28177
L66101 28158
L66119 28139
L66138 28102
L66138 28027
L66119 27989
L66101 27970
L66063 27952
L65745 27952
" />
<path d="M65745 27802
L65745 27558
L65895 27689
L65895 27633
L65913 27595
L65932 27577
L65970 27558
L66063 27558
L66101 27577
L66119 27595
L66138 27633
L66138 27745
L66119 27783
L66101 27802
" />
<g transform="rotate(-90 33887.4 35000)">
<text x="33887.4" y="35196.9"
textLength="845.426" font-size="524.934" lengthAdjust="spacingAndGlyphs"
text-anchor="middle" opacity="0">R3</text>
</g>
<path d="M34065 35065
L33878 35196
" />
<path d="M34065 35290
L33671 35290
L33671 35140
L33690 35103
L33709 35084
L33746 35065
L33803 35065
L33840 35084
L33859 35103
L33878 35140
L33878 35290
" />
<path d="M33671 34934
L33671 34690
L33821 34821
L33821 34765
L33840 34728
L33859 34709
L33896 34690
L33990 34690
L34028 34709
L34046 34728
L34065 34765
L34065 34878
L34046 34915
L34028 34934
" />
<text x="82153.5" y="29326"
textLength="770.435" font-size="524.934" lengthAdjust="spacingAndGlyphs"
text-anchor="middle" opacity="0">L2</text>
<path d="M82087 29307
L81900 29307
L81900 28913
" />
<path d="M82200 28951
L82219 28932
L82256 28913
L82350 28913
L82387 28932
L82406 28951
L82425 28988
L82425 29026
L82406 29082
L82181 29307
L82425 29307
" />
<text x="50568.5" y="44874"
textLength="845.426" font-size="524.934" lengthAdjust="spacingAndGlyphs"
text-anchor="middle" opacity="0">C3</text>
<path d="M50502 44817
L50484 44836
L50427 44855
L50390 44855
L50334 44836
L50296 44799
L50277 44761
L50259 44686
L50259 44630
L50277 44555
L50296 44517
L50334 44480
L50390 44461
L50427 44461
L50484 44480
L50502 44499
" />
<path d="M50634 44461
L50877 44461
L50746 44611
L50802 44611
L50840 44630
L50859 44649
L50877 44686
L50877 44780
L50859 44817
L50840 44836
L50802 44855
L50690 44855
L50652 44836
L50634 44817
" />
<g transform="rotate(-90 41000 44800)">
<text x="41000" y="44996.9"
textLength="845.426" font-size="524.934" lengthAdjust="spacingAndGlyphs"
text-anchor="middle" opacity="0">D1</text>
</g>
<path d="M41178 45090
L40784 45090
L40784 44996
L40803 44940
L40840 44903
L40878 44884
L40953 44865
L41009 44865
L41084 44884
L41121 44903
L41159 44940
L41178 44996
L41178 45090
" />
<path d="M41178 44490
L41178 44715
" />
<path d="M41178 44603
L40784 44603
L40840 44640
L40878 44678
L40896 44715
" />
<text x="32500" y="46393.7"
textLength="770.435" font-size="524.934" lengthAdjust="spacingAndGlyphs"
text-anchor="middle" opacity="0">L1</text>
<path d="M32434 46374
L32246 46374
L32246 45981
" />
<path d="M32771 46374
L32546 46374
" />
<path d="M32659 46374
L32659 45981
L32621 46037
L32584 46074
L32546 46093
" />
<text x="55300" y="29414.2"
textLength="864.173" font-size="524.934" lengthAdjust="spacingAndGlyphs"
text-anchor="middle" opacity="0">U2</text>
<path d="M55000 29001
L55000 29320
L55018 29357
L55037 29376
L55075 29395
L55150 29395
L55187 29376
L55206 29357
L55225 29320
L55225 29001
" />
<path d="M55393 29039
L55412 29020
L55449 29001
L55543 29001
L55581 29020
L55599 29039
L55618 29076
L55618 29114
L55599 29170
L55374 29395
L55618 29395
" />
<text x="46300" y="31579.5"
textLength="864.173" font-size="524.934" lengthAdjust="spacingAndGlyphs"
text-anchor="middle" opacity="0">U1</text>
<path d="M46000 31167
L46000 31485
L46018 31523
L46037 31542
L46075 31560
L46150 31560
L46187 31542
L46206 31523
L46225 31485
L46225 31167
" />
<path d="M46618 31560
L46393 31560
" />
<path d="M46506 31560
L46506 31167
L46468 31223
L46431 31260
L46393 31279
" />
<g transform="rotate(-90 72098.4 32711.8)">
<text x="72098.4" y="32908.7"
textLength="1182.88" font-size="524.934" lengthAdjust="spacingAndGlyphs"
text-anchor="middle" opacity="0">RV1</text>
</g>
<path d="M72276 32946
L72089 33077
" />
<path d="M72276 33171
L71882 33171
L71882 33021
L71901 32983
L71920 32964
L71957 32946
L72014 32946
L72051 32964
L72070 32983
L72089 33021
L72089 33171
" />
<path d="M71882 32833
L72276 32702
L71882 32571
" />
<path d="M72276 32233
L72276 32458
" />
<path d="M72276 32346
L71882 32346
L71939 32383
L71976 32421
L71995 32458
" />
<text x="56700" y="40523.6"
textLength="1220.38" font-size="524.934" lengthAdjust="spacingAndGlyphs"
text-anchor="middle" opacity="0">R13</text>
<path d="M56446 40504
L56315 40317
" />
<path d="M56221 40504
L56221 40111
L56371 40111
L56409 40129
L56428 40148
L56446 40186
L56446 40242
L56428 40279
L56409 40298
L56371 40317
L56221 40317
" />
<path d="M56821 40504
L56596 40504
" />
<path d="M56709 40504
L56709 40111
L56671 40167
L56634 40204
L56596 40223
" />
<path d="M56953 40111
L57196 40111
L57065 40261
L57121 40261
L57159 40279
L57178 40298
L57196 40336
L57196 40429
L57178 40467
L57159 40486
L57121 40504
L57009 40504
L56971 40486
L56953 40467
" />
<text x="55000" y="35670.1"
textLength="1220.38" font-size="524.934" lengthAdjust="spacingAndGlyphs"
text-anchor="middle" opacity="0">R11</text>
<path d="M54746 35651
L54615 35463
" />
<path d="M54521 35651
L54521 35257
L54671 35257
L54709 35276
L54728 35295
L54746 35332
L54746 35388
L54728 35426
L54709 35445
L54671 35463
L54521 35463
" />
<path d="M55121 35651
L54896 35651
" />
<path d="M55009 35651
L55009 35257
L54971 35313
L54934 35351
L54896 35370
" />
<path d="M55496 35651
L55271 35651
" />
<path d="M55384 35651
L55384 35257
L55346 35313
L55309 35351
L55271 35370
" />
<text x="43700" y="31523.6"
textLength="1220.38" font-size="524.934" lengthAdjust="spacingAndGlyphs"
text-anchor="middle" opacity="0">R10</text>
<path d="M43446 31504
L43315 31317
" />
<path d="M43221 31504
L43221 31111
L43371 31111
L43409 31129
L43428 31148
L43446 31186
L43446 31242
L43428 31279
L43409 31298
L43371 31317
L43221 31317
" />
<path d="M43821 31504
L43596 31504
" />
<path d="M43709 31504
L43709 31111
L43671 31167
L43634 31204
L43596 31223
" />
<path d="M44065 31111
L44103 31111
L44140 31129
L44159 31148
L44178 31186
L44196 31261
L44196 31354
L44178 31429
L44159 31467
L44140 31486
L44103 31504
L44065 31504
L44028 31486
L44009 31467
L43990 31429
L43971 31354
L43971 31261
L43990 31186
L44009 31148
L44028 31129
L44065 31111
" />
<text x="46100" y="25870.1"
textLength="845.426" font-size="524.934" lengthAdjust="spacingAndGlyphs"
text-anchor="middle" opacity="0">R6</text>
<path d="M46034 25851
L45903 25663
" />
<path d="M45809 25851
L45809 25457
L45959 25457
L45996 25476
L46015 25495
L46034 25532
L46034 25588
L46015 25626
L45996 25645
L45959 25663
L45809 25663
" />
<path d="M46371 25457
L46296 25457
L46259 25476
L46240 25495
L46203 25551
L46184 25626
L46184 25776
L46203 25813
L46221 25832
L46259 25851
L46334 25851
L46371 25832
L46390 25813
L46409 25776
L46409 25682
L46390 25645
L46371 25626
L46334 25607
L46259 25607
L46221 25626
L46203 25645
L46184 25682
" />
<g transform="rotate(-90 69326.8 39700)">
<text x="69326.8" y="39896.9"
textLength="845.426" font-size="524.934" lengthAdjust="spacingAndGlyphs"
text-anchor="middle" opacity="0">R4</text>
</g>
<path d="M69504 39765
L69317 39896
" />
<path d="M69504 39990
L69111 39990
L69111 39840
L69129 39803
L69148 39784
L69186 39765
L69242 39765
L69279 39784
L69298 39803
L69317 39840
L69317 39990
" />
<path d="M69242 39428
L69504 39428
" />
<path d="M69092 39521
L69373 39615
L69373 39371
" />
<g transform="rotate(-90 56987.4 46700)">
<text x="56987.4" y="46896.9"
textLength="845.426" font-size="524.934" lengthAdjust="spacingAndGlyphs"
text-anchor="middle" opacity="0">R1</text>
</g>
<path d="M57165 46765
L56978 46896
" />
<path d="M57165 46990
L56771 46990
L56771 46840
L56790 46803
L56809 46784
L56846 46765
L56903 46765
L56940 46784
L56959 46803
L56978 46840
L56978 46990
" />
<path d="M57165 46390
L57165 46615
" />
<path d="M57165 46503
L56771 46503
L56828 46540
L56865 46578
L56884 46615
" />
<g transform="rotate(-90 65481.1 38000)">
<text x="65481.1" y="38196.9"
textLength="864.173" font-size="524.934" lengthAdjust="spacingAndGlyphs"
text-anchor="middle" opacity="0">Q1</text>
</g>
<path d="M65696 38037
L65677 38074
L65640 38112
L65584 38168
L65565 38206
L65565 38243
" />
<path d="M65659 38224
L65640 38262
L65602 38299
L65527 38318
L65396 38318
L65321 38299
L65284 38262
L65265 38224
L65265 38149
L65284 38112
L65321 38074
L65396 38056
L65527 38056
L65602 38074
L65640 38112
L65659 38149
L65659 38224
" />
<path d="M65659 37681
L65659 37906
" />
<path d="M65659 37793
L65265 37793
L65321 37831
L65359 37868
L65377 37906
" />
<g transform="rotate(-90 62544.1 44200)">
<text x="62544.1" y="44396.9"
textLength="1932.79" font-size="524.934" lengthAdjust="spacingAndGlyphs"
text-anchor="middle" opacity="0">FR107</text>
</g>
<path d="M62515 44903
L62515 45034
" />
<path d="M62722 45034
L62328 45034
L62328 44846
" />
<path d="M62722 44471
L62534 44603
" />
<path d="M62722 44696
L62328 44696
L62328 44546
L62347 44509
L62365 44490
L62403 44471
L62459 44471
L62497 44490
L62515 44509
L62534 44546
L62534 44696
" />
<path d="M62722 44096
L62722 44321
" />
<path d="M62722 44209
L62328 44209
L62384 44246
L62422 44284
L62440 44321
" />
<path d="M62328 43853
L62328 43815
L62347 43778
L62365 43759
L62403 43740
L62478 43721
L62572 43721
L62647 43740
L62684 43759
L62703 43778
L62722 43815
L62722 43853
L62703 43890
L62684 43909
L62647 43928
L62572 43946
L62478 43946
L62403 43928
L62365 43909
L62347 43890
L62328 43853
" />
<path d="M62328 43590
L62328 43328
L62722 43496
" />
<g transform="rotate(-90 62611 46700)">
<text x="62611" y="46896.9"
textLength="470.472" font-size="524.934" lengthAdjust="spacingAndGlyphs"
text-anchor="middle" opacity="0">K</text>
</g>
<path d="M62789 46803
L62395 46803
" />
<path d="M62789 46578
L62564 46746
" />
<path d="M62395 46578
L62620 46803
" />
<text x="76807.1" y="30997.3"
textLength="845.426" font-size="524.934" lengthAdjust="spacingAndGlyphs"
text-anchor="middle" opacity="0">D6</text>
<path d="M76516 30978
L76516 30584
L76610 30584
L76666 30603
L76703 30641
L76722 30678
L76741 30753
L76741 30809
L76722 30884
L76703 30922
L76666 30959
L76610 30978
L76516 30978
" />
<path d="M77078 30584
L77003 30584
L76966 30603
L76947 30622
L76910 30678
L76891 30753
L76891 30903
L76910 30941
L76928 30959
L76966 30978
L77041 30978
L77078 30959
L77097 30941
L77116 30903
L77116 30809
L77097 30772
L77078 30753
L77041 30734
L76966 30734
L76928 30753
L76910 30772
L76891 30809
" />
<text x="76980.3" y="32798.4"
textLength="414.23" font-size="524.934" lengthAdjust="spacingAndGlyphs"
text-anchor="middle" opacity="0">A</text>
<path d="M76886 32667
L77074 32667
" />
<path d="M76849 32779
L76980 32385
L77111 32779
" />
<g transform="rotate(-90 37565.4 25700)">
<text x="37565.4" y="25896.9"
textLength="845.426" font-size="524.934" lengthAdjust="spacingAndGlyphs"
text-anchor="middle" opacity="0">D5</text>
</g>
<path d="M37743 25990
L37349 25990
L37349 25896
L37368 25840
L37405 25803
L37443 25784
L37518 25765
L37574 25765
L37649 25784
L37687 25803
L37724 25840
L37743 25896
L37743 25990
" />
<path d="M37349 25409
L37349 25596
L37537 25615
L37518 25596
L37499 25559
L37499 25465
L37518 25428
L37537 25409
L37574 25390
L37668 25390
L37705 25409
L37724 25428
L37743 25465
L37743 25559
L37724 25596
L37705 25615
" />
<g transform="rotate(-90 37691.3 27200)">
<text x="37691.3" y="27396.9"
textLength="470.472" font-size="524.934" lengthAdjust="spacingAndGlyphs"
text-anchor="middle" opacity="0">K</text>
</g>
<path d="M37869 27303
L37475 27303
" />
<path d="M37869 27078
L37644 27246
" />
<path d="M37475 27078
L37700 27303
" />
<text x="62181.1" y="33672.4"
textLength="845.426" font-size="524.934" lengthAdjust="spacingAndGlyphs"
text-anchor="middle" opacity="0">D4</text>
<path d="M61890 33653
L61890 33259
L61984 33259
L62040 33278
L62077 33316
L62096 33353
L62115 33428
L62115 33484
L62096 33559
L62077 33597
L62040 33634
L61984 33653
L61890 33653
" />
<path d="M62452 33391
L62452 33653
" />
<path d="M62359 33241
L62265 33522
L62509 33522
" />
<text x="60681.1" y="33798.4"
textLength="470.472" font-size="524.934" lengthAdjust="spacingAndGlyphs"
text-anchor="middle" opacity="0">K</text>
<path d="M60577 33779
L60577 33385
" />
<path d="M60802 33779
L60634 33554
" />
<path d="M60802 33385
L60577 33610
" />
<g transform="rotate(-90 68834.6 46700)">
<text x="68834.6" y="46896.9"
textLength="845.426" font-size="524.934" lengthAdjust="spacingAndGlyphs"
text-anchor="middle" opacity="0">D3</text>
</g>
<path d="M69012 46990
L68619 46990
L68619 46896
L68637 46840
L68675 46803
L68712 46784
L68787 46765
L68844 46765
L68919 46784
L68956 46803
L68994 46840
L69012 46896
L69012 46990
" />
<path d="M68619 46634
L68619 46390
L68769 46521
L68769 46465
L68787 46428
L68806 46409
L68844 46390
L68937 46390
L68975 46409
L68994 46428
L69012 46465
L69012 46578
L68994 46615
L68975 46634
" />
<g transform="rotate(-90 68708.7 45200)">
<text x="68708.7" y="45396.9"
textLength="470.472" font-size="524.934" lengthAdjust="spacingAndGlyphs"
text-anchor="middle" opacity="0">K</text>
</g>
<path d="M68886 45303
L68493 45303
" />
<path d="M68886 45078
L68661 45246
" />
<path d="M68493 45078
L68718 45303
" />
<g transform="rotate(-90 82114.2 37302.4)">
<text x="82114.2" y="37499.2"
textLength="845.426" font-size="524.934" lengthAdjust="spacingAndGlyphs"
text-anchor="middle" opacity="0">D2</text>
</g>
<path d="M82292 37592
L81898 37592
L81898 37499
L81917 37442
L81954 37405
L81992 37386
L82067 37367
L82123 37367
L82198 37386
L82236 37405
L82273 37442
L82292 37499
L82292 37592
" />
<path d="M81936 37217
L81917 37199
L81898 37161
L81898 37068
L81917 37030
L81936 37011
L81973 36993
L82011 36993
L82067 37011
L82292 37236
L82292 36993
" />
<g transform="rotate(-90 82181.1 39802.4)">
<text x="82181.1" y="39999.2"
textLength="470.472" font-size="524.934" lengthAdjust="spacingAndGlyphs"
text-anchor="middle" opacity="0">K</text>
</g>
<path d="M82359 39905
L81965 39905
" />
<path d="M82359 39680
L82134 39849
" />
<path d="M81965 39680
L82190 39905
" />
<g transform="rotate(-90 49652.8 38276.4)">
<text x="49652.8" y="38473.2"
textLength="1220.38" font-size="524.934" lengthAdjust="spacingAndGlyphs"
text-anchor="middle" opacity="0">C12</text>
</g>
<path d="M49793 38529
L49812 38548
L49830 38604
L49830 38641
L49812 38698
L49774 38735
L49737 38754
L49662 38773
L49605 38773
L49530 38754
L49493 38735
L49455 38698
L49437 38641
L49437 38604
L49455 38548
L49474 38529
" />
<path d="M49830 38154
L49830 38379
" />
<path d="M49830 38267
L49437 38267
L49493 38304
L49530 38341
L49549 38379
" />
<path d="M49474 38004
L49455 37985
L49437 37948
L49437 37854
L49455 37817
L49474 37798
L49512 37779
L49549 37779
L49605 37798
L49830 38023
L49830 37779
" />
<text x="37123.6" y="30049.6"
textLength="1220.38" font-size="524.934" lengthAdjust="spacingAndGlyphs"
text-anchor="middle" opacity="0">C11</text>
<path d="M36870 29993
L36851 30012
L36795 30030
L36758 30030
L36701 30012
L36664 29974
L36645 29937
L36626 29862
L36626 29805
L36645 29730
L36664 29693
L36701 29655
L36758 29637
L36795 29637
L36851 29655
L36870 29674
" />
<path d="M37245 30030
L37020 30030
" />
<path d="M37132 30030
L37132 29637
L37095 29693
L37058 29730
L37020 29749
" />
<path d="M37620 30030
L37395 30030
" />
<path d="M37507 30030
L37507 29637
L37470 29693
L37432 29730
L37395 29749
" />
<g transform="rotate(-90 49900 33800)">
<text x="49900" y="33996.9"
textLength="1220.38" font-size="524.934" lengthAdjust="spacingAndGlyphs"
text-anchor="middle" opacity="0">C10</text>
</g>
<path d="M50040 34053
L50059 34071
L50078 34128
L50078 34165
L50059 34221
L50021 34259
L49984 34278
L49909 34296
L49853 34296
L49778 34278
L49740 34259
L49703 34221
L49684 34165
L49684 34128
L49703 34071
L49721 34053
" />
<path d="M50078 33678
L50078 33903
" />
<path d="M50078 33790
L49684 33790
L49740 33828
L49778 33865
L49796 33903
" />
<path d="M49684 33434
L49684 33396
L49703 33359
L49721 33340
L49759 33321
L49834 33303
L49928 33303
L50003 33321
L50040 33340
L50059 33359
L50078 33396
L50078 33434
L50059 33471
L50040 33490
L50003 33509
L49928 33528
L49834 33528
L49759 33509
L49721 33490
L49703 33471
L49684 33434
" />
<g transform="rotate(-90 70161.4 24046.5)">
<text x="70161.4" y="24243.3"
textLength="845.426" font-size="524.934" lengthAdjust="spacingAndGlyphs"
text-anchor="middle" opacity="0">C9</text>
</g>
<path d="M70302 24112
L70320 24130
L70339 24187
L70339 24224
L70320 24280
L70283 24318
L70245 24337
L70170 24355
L70114 24355
L70039 24337
L70002 24318
L69964 24280
L69945 24224
L69945 24187
L69964 24130
L69983 24112
" />
<path d="M70339 23924
L70339 23849
L70320 23812
L70302 23793
L70245 23755
L70170 23737
L70020 23737
L69983 23755
L69964 23774
L69945 23812
L69945 23887
L69964 23924
L69983 23943
L70020 23962
L70114 23962
L70152 23943
L70170 23924
L70189 23887
L70189 23812
L70170 23774
L70152 23755
L70114 23737
" />
<text x="54173.2" y="24916.5"
textLength="845.426" font-size="524.934" lengthAdjust="spacingAndGlyphs"
text-anchor="middle" opacity="0">C8</text>
<path d="M54107 24860
L54088 24879
L54032 24897
L53995 24897
L53938 24879
L53901 24841
L53882 24804
L53863 24729
L53863 24672
L53882 24597
L53901 24560
L53938 24522
L53995 24504
L54032 24504
L54088 24522
L54107 24541
" />
<path d="M54332 24672
L54295 24654
L54276 24635
L54257 24597
L54257 24579
L54276 24541
L54295 24522
L54332 24504
L54407 24504
L54445 24522
L54463 24541
L54482 24579
L54482 24597
L54463 24635
L54445 24654
L54407 24672
L54332 24672
L54295 24691
L54276 24710
L54257 24747
L54257 24822
L54276 24860
L54295 24879
L54332 24897
L54407 24897
L54445 24879
L54463 24860
L54482 24822
L54482 24747
L54463 24710
L54445 24691
L54407 24672
" />
<g transform="rotate(-90 43660.6 35684.3)">
<text x="43660.6" y="35881.1"
textLength="845.426" font-size="524.934" lengthAdjust="spacingAndGlyphs"
text-anchor="middle" opacity="0">C7</text>
</g>
<path d="M43801 35749
L43819 35768
L43838 35824
L43838 35862
L43819 35918
L43782 35956
L43744 35974
L43670 35993
L43613 35993
L43538 35974
L43501 35956
L43463 35918
L43445 35862
L43445 35824
L43463 35768
L43482 35749
" />
<path d="M43445 35618
L43445 35356
L43838 35524
" />
<g transform="rotate(-90 35747.2 25723.6)">
<text x="35747.2" y="25920.5"
textLength="845.426" font-size="524.934" lengthAdjust="spacingAndGlyphs"
text-anchor="middle" opacity="0">C6</text>
</g>
<path d="M35887 25789
L35906 25807
L35925 25864
L35925 25901
L35906 25957
L35869 25995
L35831 26014
L35756 26032
L35700 26032
L35625 26014
L35587 25995
L35550 25957
L35531 25901
L35531 25864
L35550 25807
L35569 25789
" />
<path d="M35531 25451
L35531 25526
L35550 25564
L35569 25583
L35625 25620
L35700 25639
L35850 25639
L35887 25620
L35906 25601
L35925 25564
L35925 25489
L35906 25451
L35887 25433
L35850 25414
L35756 25414
L35719 25433
L35700 25451
L35681 25489
L35681 25564
L35700 25601
L35719 25620
L35756 25639
" />
<text x="78098.4" y="40530.7"
textLength="845.426" font-size="524.934" lengthAdjust="spacingAndGlyphs"
text-anchor="middle" opacity="0">C5</text>
<path d="M78032 40474
L78014 40493
L77957 40511
L77920 40511
L77864 40493
L77826 40455
L77807 40418
L77789 40343
L77789 40286
L77807 40211
L77826 40174
L77864 40137
L77920 40118
L77957 40118
L78014 40137
L78032 40155
" />
<path d="M78389 40118
L78201 40118
L78182 40305
L78201 40286
L78239 40268
L78332 40268
L78370 40286
L78389 40305
L78407 40343
L78407 40436
L78389 40474
L78370 40493
L78332 40511
L78239 40511
L78201 40493
L78182 40474
" />
<text x="50552.8" y="42445.7"
textLength="845.426" font-size="524.934" lengthAdjust="spacingAndGlyphs"
text-anchor="middle" opacity="0">C4</text>
<path d="M50487 42389
L50468 42408
L50412 42426
L50374 42426
L50318 42408
L50280 42370
L50262 42333
L50243 42258
L50243 42201
L50262 42126
L50280 42089
L50318 42051
L50374 42033
L50412 42033
L50468 42051
L50487 42070
" />
<path d="M50824 42164
L50824 42426
" />
<path d="M50730 42014
L50637 42295
L50880 42295
" />
<g transform="rotate(-90 37525.2 44568.5)">
<text x="37525.2" y="44765.4"
textLength="845.426" font-size="524.934" lengthAdjust="spacingAndGlyphs"
text-anchor="middle" opacity="0">C2</text>
</g>
<path d="M37665 44634
L37684 44652
L37703 44709
L37703 44746
L37684 44802
L37647 44840
L37609 44859
L37534 44877
L37478 44877
L37403 44859
L37365 44840
L37328 44802
L37309 44746
L37309 44709
L37328 44652
L37347 44634
" />
<path d="M37347 44484
L37328 44465
L37309 44427
L37309 44334
L37328 44296
L37347 44277
L37384 44259
L37422 44259
L37478 44277
L37703 44502
L37703 44259
" />
<g transform="rotate(-90 27879.5 47378.7)">
<text x="27879.5" y="47575.6"
textLength="845.426" font-size="524.934" lengthAdjust="spacingAndGlyphs"
text-anchor="middle" opacity="0">C1</text>
</g>
<path d="M28020 47444
L28038 47463
L28057 47519
L28057 47556
L28038 47613
L28001 47650
L27963 47669
L27888 47688
L27832 47688
L27757 47669
L27720 47650
L27682 47613
L27663 47556
L27663 47519
L27682 47463
L27701 47444
" />
<path d="M28057 47069
L28057 47294
" />
<path d="M28057 47181
L27663 47181
L27720 47219
L27757 47256
L27776 47294
" />
<g >
</g>
</g>
<g style="fill:#000000; fill-opacity:0.0; 
stroke:#000000; stroke-width:59.0551; stroke-opacity:1; 
stroke-linecap:round; stroke-linejoin:round;">
<g >
</g>
<g >
</g>
<g >
</g>
<g >
</g>
<g >
</g>
<g >
</g>
<g >
</g>
<g >
</g>
<g >
</g>
<g >
</g>
<g >
</g>
<g >
</g>
<g >
</g>
<g >
</g>
<g >
</g>
<g >
</g>
<g >
</g>
<g >
</g>
<g >
</g>
<g >
</g>
<g >
</g>
<g >
</g>
<g >
</g>
<g >
</g>
<g >
</g>
<g >
</g>
<g >
</g>
<g >
</g>
<g >
</g>
<g >
</g>
<g >
</g>
<g >
</g>
<g >
</g>
<g >
</g>
<g >
</g>
<g >
</g>
<g >
</g>
<g >
</g>
<g >
</g>
<g >
</g>
<g >
</g>
<g >
</g>
<g >
</g>
<g >
</g>
<g >
</g>
<g >
</g>
</g> 
</svg>
