<?xml version="1.0" standalone="no"?>
 <!DOCTYPE svg PUBLIC "-//W3C//DTD SVG 1.1//EN" 
 "http://www.w3.org/Graphics/SVG/1.1/DTD/svg11.dtd"> 
<svg xmlns="http://www.w3.org/2000/svg" version="1.1" 
    width="29.7002cm" height="21.0007cm" viewBox="0 0 116930 82680 ">
<title>SVG Picture created as IBP-F_Fab.svg date 2019/12/18 14:58:19 </title>
  <desc>Picture generated by PCBNEW </desc>
<g style="fill:#000000; fill-opacity:1;stroke:#000000; stroke-opacity:1;
stroke-linecap:round; stroke-linejoin:round; "
 transform="translate(0 0) scale(1 1)">
</g>
<g style="fill:#000000; fill-opacity:0.0; 
stroke:#000000; stroke-width:-0.000393701; stroke-opacity:1; 
stroke-linecap:round; stroke-linejoin:round;">
</g>
<g style="fill:#000000; fill-opacity:0.0; 
stroke:#000000; stroke-width:39.3701; stroke-opacity:1; 
stroke-linecap:round; stroke-linejoin:round;">
<path d="M79019 42881
L77070 42881
" />
<path d="M73114 42881
L75062 42881
" />
<path d="M77070 42270
L75062 42270
" />
<path d="M77070 43491
L77070 42270
" />
<path d="M75062 43491
L77070 43491
" />
<path d="M75062 42270
L75062 43491
" />
<path d="M61740 32081
L61082 32081
" />
<path d="M55740 32081
L56397 32081
" />
<path d="M61082 31196
L56397 31196
" />
<path d="M61082 32967
L61082 31196
" />
<path d="M56397 32967
L61082 32967
" />
<path d="M56397 31196
L56397 32967
" />
<path d="M65716 30420
L66374 30420
" />
<path d="M71716 30420
L71059 30420
" />
<path d="M66374 31306
L71059 31306
" />
<path d="M66374 29534
L66374 31306
" />
<path d="M71059 29534
L66374 29534
" />
<path d="M71059 31306
L71059 29534
" />
<path d="M61381 25306
L62039 25306
" />
<path d="M67381 25306
L66724 25306
" />
<path d="M62039 26192
L66724 26192
" />
<path d="M62039 24420
L62039 26192
" />
<path d="M66724 24420
L62039 24420
" />
<path d="M66724 26192
L66724 24420
" />
<path d="M73488 37932
L73488 37274
" />
<path d="M73488 31932
L73488 32589
" />
<path d="M74374 37274
L74374 32589
" />
<path d="M72602 37274
L74374 37274
" />
<path d="M72602 32589
L72602 37274
" />
<path d="M74374 32589
L72602 32589
" />
<path d="M58913 22188
L58913 22845
" />
<path d="M58913 28188
L58913 27530
" />
<path d="M58027 22845
L58027 27530
" />
<path d="M59799 22845
L58027 22845
" />
<path d="M59799 27530
L59799 22845
" />
<path d="M58027 27530
L59799 27530
" />
<path d="M67437 22593
L66779 22593
" />
<path d="M61437 22593
L62094 22593
" />
<path d="M66779 21707
L62094 21707
" />
<path d="M66779 23479
L66779 21707
" />
<path d="M62094 23479
L66779 23479
" />
<path d="M62094 21707
L62094 23479
" />
<path d="M66385.8 27877.2 A976.378 976.378 0.0 0 0 68052.6 28567.6 " />
<path d="M68052.6 27186.8 A976.378 976.378 0.0 0 0 66385.8 27877.2 " />
<path d="M68051 28574
L68051 27196
" />
<path d="M36100 36500
L36100 33500
" />
<circle cx="36100" cy="36500" r="1771.65" /> 
</g>
<g style="fill:#000000; fill-opacity:1.0; 
stroke:#000000; stroke-width:39.3701; stroke-opacity:1; 
stroke-linecap:round; stroke-linejoin:round;">
<path style="fill:#000000; fill-opacity:1.0; 
stroke:#000000; stroke-width:39.3701; stroke-opacity:1; 
stroke-linecap:round; stroke-linejoin:round;fill-rule:evenodd;"
d="M 79353.5,27126
82753.5,27126
82753.5,31726
79353.5,31726
" /> 
</g>
<g style="fill:#000000; fill-opacity:0.0; 
stroke:#000000; stroke-width:39.3701; stroke-opacity:1; 
stroke-linecap:round; stroke-linejoin:round;">
<path d="M47276 47166
L47276 48032
" />
<path d="M46843 47599
L47709 47599
" />
<circle cx="50568.5" cy="49500" r="4330.71" /> 
<path d="M56550 28406
L56156 28800
" />
<path d="M56550 26800
L56550 28406
" />
<path d="M54050 26800
L56550 26800
" />
<path d="M54050 28800
L54050 26800
" />
<path d="M56156 28800
L54050 28800
" />
<path d="M45050 32193
L45443 31800
" />
<path d="M45050 35800
L45050 32193
" />
<path d="M47550 35800
L45050 35800
" />
<path d="M47550 31800
L47550 35800
" />
<path d="M45443 31800
L47550 31800
" />
<path d="M70696 34089
L70696 32711
" />
<path d="M69909 34089
L70696 34089
" />
<path d="M69909 32711
L69909 34089
" />
<path d="M70696 32711
L69909 32711
" />
<path d="M71543 32711
L71543 34089
" />
<path d="M69062 32711
L71543 32711
" />
<path d="M69062 34089
L69062 32711
" />
<path d="M71543 34089
L69062 34089
" />
<path d="M52700 39000
L54357 39000
" />
<path d="M60700 39000
L59042 39000
" />
<path d="M54357 39885
L59042 39885
" />
<path d="M54357 38114
L54357 39885
" />
<path d="M59042 38114
L54357 38114
" />
<path d="M59042 39885
L59042 38114
" />
<path d="M59000 36800
L57342 36800
" />
<path d="M51000 36800
L52657 36800
" />
<path d="M57342 35914
L52657 35914
" />
<path d="M57342 37685
L57342 35914
" />
<path d="M52657 37685
L57342 37685
" />
<path d="M52657 35914
L52657 37685
" />
<path d="M39700 30000
L41357 30000
" />
<path d="M47700 30000
L46042 30000
" />
<path d="M41357 30885
L46042 30885
" />
<path d="M41357 29114
L41357 30885
" />
<path d="M46042 29114
L41357 29114
" />
<path d="M46042 30885
L46042 29114
" />
<path d="M50100 27000
L48442 27000
" />
<path d="M42100 27000
L43757 27000
" />
<path d="M48442 26114
L43757 26114
" />
<path d="M48442 27885
L48442 26114
" />
<path d="M43757 27885
L48442 27885
" />
<path d="M43757 26114
L43757 27885
" />
<path d="M68000 43700
L68000 42042
" />
<path d="M68000 35700
L68000 37357
" />
<path d="M68885 42042
L68885 37357
" />
<path d="M67114 42042
L68885 42042
" />
<path d="M67114 37357
L67114 42042
" />
<path d="M68885 37357
L67114 37357
" />
<path d="M59200 41700
L59200 42762
" />
<path d="M59200 51700
L59200 50637
" />
<path d="M57428 42762
L57428 50637
" />
<path d="M60971 42762
L57428 42762
" />
<path d="M60971 50637
L60971 42762
" />
<path d="M57428 50637
L60971 50637
" />
<path d="M65040 38728
L64540 38728
" />
<path d="M65040 37271
L64540 37271
" />
<path d="M64540 36031
L64540 39968
" />
<path d="M65040 39968
L65040 36031
" />
<path d="M63307 39968
L65040 39968
" />
<path d="M63307 36031
L63307 39968
" />
<path d="M65040 36031
L63307 36031
" />
<path d="M62985 44658
L63614 44658
" />
<path d="M62985 44579
L63614 44579
" />
<path d="M62985 44618
L63614 44618
" />
<path d="M63300 41700
L63300 43601
" />
<path d="M63300 46700
L63300 44798
" />
<path d="M62985 43601
L62985 44798
" />
<path d="M63614 43601
L62985 43601
" />
<path d="M63614 44798
L63614 43601
" />
<path d="M62985 44798
L63614 44798
" />
<path d="M75807 32050
L77807 32050
" />
<circle cx="75807.1" cy="32050.4" r="728.346" /> 
<path d="M38006 26290
L38793 26290
" />
<path d="M38006 26211
L38793 26211
" />
<path d="M38006 26251
L38793 26251
" />
<path d="M38400 24200
L38400 24912
" />
<path d="M38400 27200
L38400 26487
" />
<path d="M38006 24912
L38006 26487
" />
<path d="M38793 24912
L38006 24912
" />
<path d="M38793 26487
L38793 24912
" />
<path d="M38006 26487
L38793 26487
" />
<path d="M61590 33916
L61590 34703
" />
<path d="M61669 33916
L61669 34703
" />
<path d="M61629 33916
L61629 34703
" />
<path d="M63681 34310
L62968 34310
" />
<path d="M60681 34310
L61393 34310
" />
<path d="M62968 33916
L61393 33916
" />
<path d="M62968 34703
L62968 33916
" />
<path d="M61393 34703
L62968 34703
" />
<path d="M61393 33916
L61393 34703
" />
<path d="M68393 46109
L67606 46109
" />
<path d="M68393 46188
L67606 46188
" />
<path d="M68393 46148
L67606 46148
" />
<path d="M68000 48200
L68000 47487
" />
<path d="M68000 45200
L68000 45912
" />
<path d="M68393 47487
L68393 45912
" />
<path d="M67606 47487
L68393 47487
" />
<path d="M67606 45912
L67606 47487
" />
<path d="M68393 45912
L67606 45912
" />
<path d="M82555 37760
L83185 37760
" />
<path d="M82555 37681
L83185 37681
" />
<path d="M82555 37721
L83185 37721
" />
<path d="M82870 34802
L82870 36703
" />
<path d="M82870 39802
L82870 37900
" />
<path d="M82555 36703
L82555 37900
" />
<path d="M83185 36703
L82555 36703
" />
<path d="M83185 37900
L83185 36703
" />
<path d="M82555 37900
L83185 37900
" />
<path d="M48700 39752
L48700 39024
" />
<path d="M48700 36800
L48700 37528
" />
<path d="M49211 39024
L49211 37528
" />
<path d="M48188 39024
L49211 39024
" />
<path d="M48188 37528
L48188 39024
" />
<path d="M49211 37528
L48188 37528
" />
<path d="M35647 28900
L36375 28900
" />
<path d="M38600 28900
L37871 28900
" />
<path d="M36375 29411
L37871 29411
" />
<path d="M36375 28388
L36375 29411
" />
<path d="M37871 28388
L36375 28388
" />
<path d="M37871 29411
L37871 28388
" />
<path d="M50000 35252
L50000 34524
" />
<path d="M50000 32300
L50000 33028
" />
<path d="M50511 34524
L50511 33028
" />
<path d="M49488 34524
L50511 34524
" />
<path d="M49488 33028
L49488 34524
" />
<path d="M50511 33028
L49488 33028
" />
<path d="M69208 25522
L69208 24794
" />
<path d="M69208 22570
L69208 23298
" />
<path d="M69720 24794
L69720 23298
" />
<path d="M68696 24794
L69720 24794
" />
<path d="M68696 23298
L68696 24794
" />
<path d="M69720 23298
L68696 23298
" />
<path d="M55649 25672
L54921 25672
" />
<path d="M52696 25672
L53425 25672
" />
<path d="M54921 25160
L53425 25160
" />
<path d="M54921 26184
L54921 25160
" />
<path d="M53425 26184
L54921 26184
" />
<path d="M53425 25160
L53425 26184
" />
<circle cx="41200" cy="35684.3" r="1968.5" /> 
<path d="M36700 24247
L36700 24975
" />
<path d="M36700 27200
L36700 26471
" />
<path d="M36188 24975
L36188 26471
" />
<path d="M37211 24975
L36188 24975
" />
<path d="M37211 26471
L37211 24975
" />
<path d="M36188 26471
L37211 26471
" />
<path d="M80490 38387
L80490 37758
" />
<path d="M80805 38073
L80175 38073
" />
<circle cx="78098.4" cy="36692.1" r="3149.61" /> 
<path d="M53505 43300
L51556 43300
" />
<path d="M47600 43300
L49548 43300
" />
<path d="M51556 42689
L49548 42689
" />
<path d="M51556 43910
L51556 42689
" />
<path d="M49548 43910
L51556 43910
" />
<path d="M49548 42689
L49548 43910
" />
<path d="M39651 40336
L37918 40336
" />
<path d="M39651 48800
L37918 48800
" />
<path d="M39651 40336
L39651 48800
" />
<path d="M37918 40336
L37918 48800
" />
<path d="M29245 49898
L29954 49898
" />
<path d="M29600 50252
L29600 49544
" />
<path d="M29600 42457
L29600 43835
" />
<path d="M29600 52300
L29600 50922
" />
<path d="M30879 49551
L30879 43835
" />
<path d="M30525 49906
L30879 49551
" />
<path d="M30879 50260
L30525 49906
" />
<path d="M30879 50922
L30879 50260
" />
<path d="M28320 49551
L28320 43835
" />
<path d="M28674 49906
L28320 49551
" />
<path d="M28320 50260
L28674 49906
" />
<path d="M28320 50922
L28320 50260
" />
<path d="M28320 43835
L30879 43835
" />
<path d="M28320 50922
L30879 50922
" />
<g >
</g>
<g >
</g>
<g >
</g>
<g >
</g>
<g >
</g>
<g >
</g>
<g >
</g>
<g >
</g>
<g >
</g>
<g >
</g>
<g >
</g>
<g >
</g>
<g >
</g>
<g >
</g>
<g >
</g>
<g >
</g>
<g >
</g>
<g >
</g>
<g >
</g>
<g >
</g>
<g >
</g>
<g >
</g>
<g >
</g>
<g >
</g>
<g >
</g>
<g >
</g>
<g >
</g>
<g >
</g>
<g >
</g>
<g >
</g>
<g >
</g>
<g >
</g>
<g >
</g>
<g >
</g>
<g >
</g>
<g >
</g>
<g >
</g>
<g >
</g>
<g >
</g>
<g >
</g>
<g >
</g>
<g >
</g>
<g >
</g>
<g >
</g>
<g >
</g>
</g>
<g style="fill:#000000; fill-opacity:0.0; 
stroke:#000000; stroke-width:39.3701; stroke-opacity:1; 
stroke-linecap:round; stroke-linejoin:round;">
</g>
<g style="fill:#000000; fill-opacity:0.0; 
stroke:#000000; stroke-width:59.0551; stroke-opacity:1; 
stroke-linecap:round; stroke-linejoin:round;">
<text x="76066.9" y="44129.1"
textLength="2270.25" font-size="524.934" lengthAdjust="spacingAndGlyphs"
text-anchor="middle" opacity="0">C_4700</text>
<path d="M75288 44072
L75270 44091
L75213 44110
L75176 44110
L75120 44091
L75082 44054
L75063 44016
L75045 43941
L75045 43885
L75063 43810
L75082 43772
L75120 43735
L75176 43716
L75213 43716
L75270 43735
L75288 43754
" />
<path d="M75363 44147
L75663 44147
" />
<path d="M75926 43847
L75926 44110
" />
<path d="M75832 43697
L75738 43979
L75982 43979
" />
<path d="M76095 43716
L76357 43716
L76188 44110
" />
<path d="M76582 43716
L76619 43716
L76657 43735
L76676 43754
L76694 43791
L76713 43866
L76713 43960
L76694 44035
L76676 44072
L76657 44091
L76619 44110
L76582 44110
L76544 44091
L76526 44072
L76507 44035
L76488 43960
L76488 43866
L76507 43791
L76526 43754
L76544 43735
L76582 43716
" />
<path d="M76957 43716
L76994 43716
L77032 43735
L77051 43754
L77069 43791
L77088 43866
L77088 43960
L77069 44035
L77051 44072
L77032 44091
L76994 44110
L76957 44110
L76919 44091
L76901 44072
L76882 44035
L76863 43960
L76863 43866
L76882 43791
L76901 43754
L76919 43735
L76957 43716
" />
<text x="76066.9" y="43078"
textLength="1220.38" font-size="524.934" lengthAdjust="spacingAndGlyphs"
text-anchor="middle" opacity="0">C13</text>
<path d="M75813 43021
L75795 43040
L75738 43059
L75701 43059
L75645 43040
L75607 43002
L75588 42965
L75570 42890
L75570 42834
L75588 42759
L75607 42721
L75645 42684
L75701 42665
L75738 42665
L75795 42684
L75813 42702
" />
<path d="M76188 43059
L75963 43059
" />
<path d="M76076 43059
L76076 42665
L76038 42721
L76001 42759
L75963 42777
" />
<path d="M76320 42665
L76563 42665
L76432 42815
L76488 42815
L76526 42834
L76544 42852
L76563 42890
L76563 42984
L76544 43021
L76526 43040
L76488 43059
L76376 43059
L76338 43040
L76320 43021
" />
<text x="29590.2" y="36382.3"
textLength="5307.37" font-size="524.934" lengthAdjust="spacingAndGlyphs"
text-anchor="middle" opacity="0">Conn_01x01_Male</text>
<path d="M27293 36326
L27274 36344
L27218 36363
L27181 36363
L27124 36344
L27087 36307
L27068 36269
L27049 36194
L27049 36138
L27068 36063
L27087 36026
L27124 35988
L27181 35969
L27218 35969
L27274 35988
L27293 36007
" />
<path d="M27518 36363
L27481 36344
L27462 36326
L27443 36288
L27443 36176
L27462 36138
L27481 36119
L27518 36101
L27574 36101
L27612 36119
L27631 36138
L27649 36176
L27649 36288
L27631 36326
L27612 36344
L27574 36363
L27518 36363
" />
<path d="M27818 36101
L27818 36363
" />
<path d="M27818 36138
L27837 36119
L27874 36101
L27930 36101
L27968 36119
L27987 36157
L27987 36363
" />
<path d="M28174 36101
L28174 36363
" />
<path d="M28174 36138
L28193 36119
L28230 36101
L28287 36101
L28324 36119
L28343 36157
L28343 36363
" />
<path d="M28437 36401
L28737 36401
" />
<path d="M28905 35969
L28943 35969
L28980 35988
L28999 36007
L29018 36044
L29037 36119
L29037 36213
L29018 36288
L28999 36326
L28980 36344
L28943 36363
L28905 36363
L28868 36344
L28849 36326
L28830 36288
L28812 36213
L28812 36119
L28830 36044
L28849 36007
L28868 35988
L28905 35969
" />
<path d="M29412 36363
L29187 36363
" />
<path d="M29299 36363
L29299 35969
L29262 36026
L29224 36063
L29187 36082
" />
<path d="M29543 36363
L29749 36101
" />
<path d="M29543 36101
L29749 36363
" />
<path d="M29974 35969
L30011 35969
L30049 35988
L30068 36007
L30086 36044
L30105 36119
L30105 36213
L30086 36288
L30068 36326
L30049 36344
L30011 36363
L29974 36363
L29936 36344
L29918 36326
L29899 36288
L29880 36213
L29880 36119
L29899 36044
L29918 36007
L29936 35988
L29974 35969
" />
<path d="M30480 36363
L30255 36363
" />
<path d="M30368 36363
L30368 35969
L30330 36026
L30293 36063
L30255 36082
" />
<path d="M30555 36401
L30855 36401
" />
<path d="M30949 36363
L30949 35969
L31080 36251
L31211 35969
L31211 36363
" />
<path d="M31568 36363
L31568 36157
L31549 36119
L31511 36101
L31436 36101
L31399 36119
" />
<path d="M31568 36344
L31530 36363
L31436 36363
L31399 36344
L31380 36307
L31380 36269
L31399 36232
L31436 36213
L31530 36213
L31568 36194
" />
<path d="M31811 36363
L31774 36344
L31755 36307
L31755 35969
" />
<path d="M32111 36344
L32074 36363
L31999 36363
L31961 36344
L31942 36307
L31942 36157
L31961 36119
L31999 36101
L32074 36101
L32111 36119
L32130 36157
L32130 36194
L31942 36232
" />
<text x="34763.4" y="50760.2"
textLength="5307.37" font-size="524.934" lengthAdjust="spacingAndGlyphs"
text-anchor="middle" opacity="0">Conn_01x01_Male</text>
<path d="M32466 50703
L32448 50722
L32391 50741
L32354 50741
L32298 50722
L32260 50685
L32241 50647
L32223 50572
L32223 50516
L32241 50441
L32260 50404
L32298 50366
L32354 50347
L32391 50347
L32448 50366
L32466 50385
" />
<path d="M32691 50741
L32654 50722
L32635 50703
L32616 50666
L32616 50554
L32635 50516
L32654 50497
L32691 50479
L32748 50479
L32785 50497
L32804 50516
L32823 50554
L32823 50666
L32804 50703
L32785 50722
L32748 50741
L32691 50741
" />
<path d="M32991 50479
L32991 50741
" />
<path d="M32991 50516
L33010 50497
L33047 50479
L33104 50479
L33141 50497
L33160 50535
L33160 50741
" />
<path d="M33347 50479
L33347 50741
" />
<path d="M33347 50516
L33366 50497
L33404 50479
L33460 50479
L33497 50497
L33516 50535
L33516 50741
" />
<path d="M33610 50778
L33910 50778
" />
<path d="M34079 50347
L34116 50347
L34154 50366
L34172 50385
L34191 50422
L34210 50497
L34210 50591
L34191 50666
L34172 50703
L34154 50722
L34116 50741
L34079 50741
L34041 50722
L34022 50703
L34004 50666
L33985 50591
L33985 50497
L34004 50422
L34022 50385
L34041 50366
L34079 50347
" />
<path d="M34585 50741
L34360 50741
" />
<path d="M34472 50741
L34472 50347
L34435 50404
L34397 50441
L34360 50460
" />
<path d="M34716 50741
L34922 50479
" />
<path d="M34716 50479
L34922 50741
" />
<path d="M35147 50347
L35185 50347
L35222 50366
L35241 50385
L35260 50422
L35278 50497
L35278 50591
L35260 50666
L35241 50703
L35222 50722
L35185 50741
L35147 50741
L35110 50722
L35091 50703
L35072 50666
L35053 50591
L35053 50497
L35072 50422
L35091 50385
L35110 50366
L35147 50347
" />
<path d="M35653 50741
L35428 50741
" />
<path d="M35541 50741
L35541 50347
L35503 50404
L35466 50441
L35428 50460
" />
<path d="M35728 50778
L36028 50778
" />
<path d="M36122 50741
L36122 50347
L36253 50629
L36385 50347
L36385 50741
" />
<path d="M36741 50741
L36741 50535
L36722 50497
L36685 50479
L36610 50479
L36572 50497
" />
<path d="M36741 50722
L36703 50741
L36610 50741
L36572 50722
L36553 50685
L36553 50647
L36572 50610
L36610 50591
L36703 50591
L36741 50572
" />
<path d="M36984 50741
L36947 50722
L36928 50685
L36928 50347
" />
<path d="M37284 50722
L37247 50741
L37172 50741
L37134 50722
L37116 50685
L37116 50535
L37134 50497
L37172 50479
L37247 50479
L37284 50497
L37303 50535
L37303 50572
L37116 50610
" />
<text x="71456.3" y="37087"
textLength="5307.37" font-size="524.934" lengthAdjust="spacingAndGlyphs"
text-anchor="middle" opacity="0">Conn_01x01_Male</text>
<path d="M69159 37030
L69140 37049
L69084 37068
L69047 37068
L68990 37049
L68953 37012
L68934 36974
L68915 36899
L68915 36843
L68934 36768
L68953 36730
L68990 36693
L69047 36674
L69084 36674
L69140 36693
L69159 36712
" />
<path d="M69384 37068
L69347 37049
L69328 37030
L69309 36993
L69309 36880
L69328 36843
L69347 36824
L69384 36805
L69440 36805
L69478 36824
L69497 36843
L69515 36880
L69515 36993
L69497 37030
L69478 37049
L69440 37068
L69384 37068
" />
<path d="M69684 36805
L69684 37068
" />
<path d="M69684 36843
L69703 36824
L69740 36805
L69797 36805
L69834 36824
L69853 36862
L69853 37068
" />
<path d="M70040 36805
L70040 37068
" />
<path d="M70040 36843
L70059 36824
L70097 36805
L70153 36805
L70190 36824
L70209 36862
L70209 37068
" />
<path d="M70303 37105
L70603 37105
" />
<path d="M70772 36674
L70809 36674
L70847 36693
L70865 36712
L70884 36749
L70903 36824
L70903 36918
L70884 36993
L70865 37030
L70847 37049
L70809 37068
L70772 37068
L70734 37049
L70715 37030
L70697 36993
L70678 36918
L70678 36824
L70697 36749
L70715 36712
L70734 36693
L70772 36674
" />
<path d="M71278 37068
L71053 37068
" />
<path d="M71165 37068
L71165 36674
L71128 36730
L71090 36768
L71053 36787
" />
<path d="M71409 37068
L71615 36805
" />
<path d="M71409 36805
L71615 37068
" />
<path d="M71840 36674
L71878 36674
L71915 36693
L71934 36712
L71953 36749
L71971 36824
L71971 36918
L71953 36993
L71934 37030
L71915 37049
L71878 37068
L71840 37068
L71803 37049
L71784 37030
L71765 36993
L71746 36918
L71746 36824
L71765 36749
L71784 36712
L71803 36693
L71840 36674
" />
<path d="M72346 37068
L72121 37068
" />
<path d="M72234 37068
L72234 36674
L72196 36730
L72159 36768
L72121 36787
" />
<path d="M72421 37105
L72721 37105
" />
<path d="M72815 37068
L72815 36674
L72946 36955
L73077 36674
L73077 37068
" />
<path d="M73434 37068
L73434 36862
L73415 36824
L73377 36805
L73302 36805
L73265 36824
" />
<path d="M73434 37049
L73396 37068
L73302 37068
L73265 37049
L73246 37012
L73246 36974
L73265 36937
L73302 36918
L73396 36918
L73434 36899
" />
<path d="M73677 37068
L73640 37049
L73621 37012
L73621 36674
" />
<path d="M73977 37049
L73940 37068
L73865 37068
L73827 37049
L73809 37012
L73809 36862
L73827 36824
L73865 36805
L73940 36805
L73977 36824
L73996 36862
L73996 36899
L73809 36937
" />
<text x="79586.2" y="23622.4"
textLength="5307.37" font-size="524.934" lengthAdjust="spacingAndGlyphs"
text-anchor="middle" opacity="0">Conn_01x01_Male</text>
<path d="M77289 23566
L77270 23584
L77214 23603
L77177 23603
L77120 23584
L77083 23547
L77064 23509
L77045 23434
L77045 23378
L77064 23303
L77083 23266
L77120 23228
L77177 23209
L77214 23209
L77270 23228
L77289 23247
" />
<path d="M77514 23603
L77477 23584
L77458 23566
L77439 23528
L77439 23416
L77458 23378
L77477 23359
L77514 23341
L77570 23341
L77608 23359
L77627 23378
L77645 23416
L77645 23528
L77627 23566
L77608 23584
L77570 23603
L77514 23603
" />
<path d="M77814 23341
L77814 23603
" />
<path d="M77814 23378
L77833 23359
L77870 23341
L77927 23341
L77964 23359
L77983 23397
L77983 23603
" />
<path d="M78170 23341
L78170 23603
" />
<path d="M78170 23378
L78189 23359
L78227 23341
L78283 23341
L78320 23359
L78339 23397
L78339 23603
" />
<path d="M78433 23641
L78733 23641
" />
<path d="M78901 23209
L78939 23209
L78976 23228
L78995 23247
L79014 23284
L79033 23359
L79033 23453
L79014 23528
L78995 23566
L78976 23584
L78939 23603
L78901 23603
L78864 23584
L78845 23566
L78826 23528
L78808 23453
L78808 23359
L78826 23284
L78845 23247
L78864 23228
L78901 23209
" />
<path d="M79408 23603
L79183 23603
" />
<path d="M79295 23603
L79295 23209
L79258 23266
L79220 23303
L79183 23322
" />
<path d="M79539 23603
L79745 23341
" />
<path d="M79539 23341
L79745 23603
" />
<path d="M79970 23209
L80008 23209
L80045 23228
L80064 23247
L80083 23284
L80101 23359
L80101 23453
L80083 23528
L80064 23566
L80045 23584
L80008 23603
L79970 23603
L79933 23584
L79914 23566
L79895 23528
L79876 23453
L79876 23359
L79895 23284
L79914 23247
L79933 23228
L79970 23209
" />
<path d="M80476 23603
L80251 23603
" />
<path d="M80364 23603
L80364 23209
L80326 23266
L80289 23303
L80251 23322
" />
<path d="M80551 23641
L80851 23641
" />
<path d="M80945 23603
L80945 23209
L81076 23491
L81207 23209
L81207 23603
" />
<path d="M81564 23603
L81564 23397
L81545 23359
L81507 23341
L81432 23341
L81395 23359
" />
<path d="M81564 23584
L81526 23603
L81432 23603
L81395 23584
L81376 23547
L81376 23509
L81395 23472
L81432 23453
L81526 23453
L81564 23434
" />
<path d="M81807 23603
L81770 23584
L81751 23547
L81751 23209
" />
<path d="M82107 23584
L82070 23603
L81995 23603
L81957 23584
L81939 23547
L81939 23397
L81957 23359
L81995 23341
L82070 23341
L82107 23359
L82126 23397
L82126 23434
L81939 23472
" />
<text x="83600" y="42493.7"
textLength="2607.71" font-size="524.934" lengthAdjust="spacingAndGlyphs"
text-anchor="middle" opacity="0">TRANSF6</text>
<path d="M82372 42081
L82597 42081
" />
<path d="M82484 42474
L82484 42081
" />
<path d="M82953 42474
L82821 42287
" />
<path d="M82728 42474
L82728 42081
L82878 42081
L82915 42100
L82934 42118
L82953 42156
L82953 42212
L82934 42249
L82915 42268
L82878 42287
L82728 42287
" />
<path d="M83103 42362
L83290 42362
" />
<path d="M83065 42474
L83196 42081
L83328 42474
" />
<path d="M83459 42474
L83459 42081
L83684 42474
L83684 42081
" />
<path d="M83853 42456
L83909 42474
L84003 42474
L84040 42456
L84059 42437
L84078 42399
L84078 42362
L84059 42324
L84040 42306
L84003 42287
L83928 42268
L83890 42249
L83871 42231
L83853 42193
L83853 42156
L83871 42118
L83890 42100
L83928 42081
L84021 42081
L84078 42100
" />
<path d="M84378 42268
L84246 42268
" />
<path d="M84246 42474
L84246 42081
L84434 42081
" />
<path d="M84752 42081
L84677 42081
L84640 42100
L84621 42118
L84584 42174
L84565 42249
L84565 42399
L84584 42437
L84602 42456
L84640 42474
L84715 42474
L84752 42456
L84771 42437
L84790 42399
L84790 42306
L84771 42268
L84752 42249
L84715 42231
L84640 42231
L84602 42249
L84584 42268
L84565 42306
" />
<text x="58740.2" y="33605.5"
textLength="470.472" font-size="524.934" lengthAdjust="spacingAndGlyphs"
text-anchor="middle" opacity="0">R</text>
<path d="M58862 33586
L58730 33399
" />
<path d="M58637 33586
L58637 33193
L58787 33193
L58824 33211
L58843 33230
L58862 33268
L58862 33324
L58843 33361
L58824 33380
L58787 33399
L58637 33399
" />
<text x="58740.2" y="32278.7"
textLength="845.426" font-size="524.934" lengthAdjust="spacingAndGlyphs"
text-anchor="middle" opacity="0">R5</text>
<path d="M58674 32259
L58543 32072
" />
<path d="M58449 32259
L58449 31866
L58599 31866
L58637 31885
L58655 31903
L58674 31941
L58674 31997
L58655 32035
L58637 32053
L58599 32072
L58449 32072
" />
<path d="M59030 31866
L58843 31866
L58824 32053
L58843 32035
L58880 32016
L58974 32016
L59011 32035
L59030 32053
L59049 32091
L59049 32185
L59030 32222
L59011 32241
L58974 32259
L58880 32259
L58843 32241
L58824 32222
" />
<text x="68716.5" y="29290.6"
textLength="470.472" font-size="524.934" lengthAdjust="spacingAndGlyphs"
text-anchor="middle" opacity="0">R</text>
<path d="M68838 29271
L68707 29084
" />
<path d="M68613 29271
L68613 28878
L68763 28878
L68800 28896
L68819 28915
L68838 28953
L68838 29009
L68819 29046
L68800 29065
L68763 29084
L68613 29084
" />
<text x="68716.5" y="30617.3"
textLength="845.426" font-size="524.934" lengthAdjust="spacingAndGlyphs"
text-anchor="middle" opacity="0">R7</text>
<path d="M68650 30598
L68519 30411
" />
<path d="M68425 30598
L68425 30204
L68575 30204
L68613 30223
L68632 30242
L68650 30279
L68650 30336
L68632 30373
L68613 30392
L68575 30411
L68425 30411
" />
<path d="M68782 30204
L69044 30204
L68875 30598
" />
<text x="64381.9" y="24176.4"
textLength="470.472" font-size="524.934" lengthAdjust="spacingAndGlyphs"
text-anchor="middle" opacity="0">R</text>
<path d="M64503 24157
L64372 23970
" />
<path d="M64278 24157
L64278 23763
L64428 23763
L64466 23782
L64485 23801
L64503 23838
L64503 23895
L64485 23932
L64466 23951
L64428 23970
L64278 23970
" />
<text x="64381.9" y="25503.1"
textLength="1220.38" font-size="524.934" lengthAdjust="spacingAndGlyphs"
text-anchor="middle" opacity="0">R12</text>
<path d="M64128 25484
L63997 25296
" />
<path d="M63903 25484
L63903 25090
L64053 25090
L64091 25109
L64110 25128
L64128 25165
L64128 25221
L64110 25259
L64091 25278
L64053 25296
L63903 25296
" />
<path d="M64503 25484
L64278 25484
" />
<path d="M64391 25484
L64391 25090
L64353 25146
L64316 25184
L64278 25203
" />
<path d="M64653 25128
L64672 25109
L64709 25090
L64803 25090
L64841 25109
L64859 25128
L64878 25165
L64878 25203
L64859 25259
L64634 25484
L64878 25484
" />
<g transform="rotate(-90 72161.4 34932.3)">
<text x="72161.4" y="35129.1"
textLength="470.472" font-size="524.934" lengthAdjust="spacingAndGlyphs"
text-anchor="middle" opacity="0">R</text>
</g>
<path d="M72339 34810
L72152 34941
" />
<path d="M72339 35035
L71945 35035
L71945 34885
L71964 34847
L71983 34829
L72020 34810
L72077 34810
L72114 34829
L72133 34847
L72152 34885
L72152 35035
" />
<g transform="rotate(-90 73488.2 34932.3)">
<text x="73488.2" y="35129.1"
textLength="845.426" font-size="524.934" lengthAdjust="spacingAndGlyphs"
text-anchor="middle" opacity="0">R9</text>
</g>
<path d="M73666 34997
L73478 35129
" />
<path d="M73666 35222
L73272 35222
L73272 35072
L73291 35035
L73310 35016
L73347 34997
L73403 34997
L73441 35016
L73460 35035
L73478 35072
L73478 35222
" />
<path d="M73666 34810
L73666 34735
L73647 34697
L73628 34679
L73572 34641
L73497 34622
L73347 34622
L73310 34641
L73291 34660
L73272 34697
L73272 34772
L73291 34810
L73310 34829
L73347 34847
L73441 34847
L73478 34829
L73497 34810
L73516 34772
L73516 34697
L73497 34660
L73478 34641
L73441 34622
" />
<g transform="rotate(-90 60240.2 25188.2)">
<text x="60240.2" y="25385"
textLength="470.472" font-size="524.934" lengthAdjust="spacingAndGlyphs"
text-anchor="middle" opacity="0">R</text>
</g>
<path d="M60418 25066
L60230 25197
" />
<path d="M60418 25291
L60024 25291
L60024 25141
L60043 25103
L60062 25085
L60099 25066
L60155 25066
L60193 25085
L60212 25103
L60230 25141
L60230 25291
" />
<g transform="rotate(-90 58913.4 25188.2)">
<text x="58913.4" y="25385"
textLength="845.426" font-size="524.934" lengthAdjust="spacingAndGlyphs"
text-anchor="middle" opacity="0">R8</text>
</g>
<path d="M59091 25253
L58904 25385
" />
<path d="M59091 25478
L58697 25478
L58697 25328
L58716 25291
L58735 25272
L58772 25253
L58829 25253
L58866 25272
L58885 25291
L58904 25328
L58904 25478
" />
<path d="M58866 25028
L58847 25066
L58829 25085
L58791 25103
L58772 25103
L58735 25085
L58716 25066
L58697 25028
L58697 24953
L58716 24916
L58735 24897
L58772 24878
L58791 24878
L58829 24897
L58847 24916
L58866 24953
L58866 25028
L58885 25066
L58904 25085
L58941 25103
L59016 25103
L59053 25085
L59072 25066
L59091 25028
L59091 24953
L59072 24916
L59053 24897
L59016 24878
L58941 24878
L58904 24897
L58885 24916
L58866 24953
" />
<text x="64437" y="24117.3"
textLength="470.472" font-size="524.934" lengthAdjust="spacingAndGlyphs"
text-anchor="middle" opacity="0">R</text>
<path d="M64558 24098
L64427 23911
" />
<path d="M64333 24098
L64333 23704
L64483 23704
L64521 23723
L64540 23742
L64558 23779
L64558 23836
L64540 23873
L64521 23892
L64483 23911
L64333 23911
" />
<text x="64437" y="22790.6"
textLength="845.426" font-size="524.934" lengthAdjust="spacingAndGlyphs"
text-anchor="middle" opacity="0">R2</text>
<path d="M64371 22771
L64240 22584
" />
<path d="M64146 22771
L64146 22378
L64296 22378
L64333 22396
L64352 22415
L64371 22453
L64371 22509
L64352 22546
L64333 22565
L64296 22584
L64146 22584
" />
<path d="M64521 22415
L64540 22396
L64577 22378
L64671 22378
L64708 22396
L64727 22415
L64746 22453
L64746 22490
L64727 22546
L64502 22771
L64746 22771
" />
<g transform="rotate(-90 68460.6 27877.2)">
<text x="68460.6" y="28074"
textLength="2532.71" font-size="524.934" lengthAdjust="spacingAndGlyphs"
text-anchor="middle" opacity="0">TL431LP</text>
</g>
<path d="M68245 29067
L68245 28842
" />
<path d="M68638 28955
L68245 28955
" />
<path d="M68638 28523
L68638 28711
L68245 28711
" />
<path d="M68376 28223
L68638 28223
" />
<path d="M68226 28317
L68507 28411
L68507 28167
" />
<path d="M68245 28055
L68245 27811
L68395 27942
L68395 27886
L68413 27849
L68432 27830
L68470 27811
L68563 27811
L68601 27830
L68619 27849
L68638 27886
L68638 27999
L68619 28036
L68601 28055
" />
<path d="M68638 27436
L68638 27661
" />
<path d="M68638 27549
L68245 27549
L68301 27586
L68338 27624
L68357 27661
" />
<path d="M68638 27080
L68638 27267
L68245 27267
" />
<path d="M68638 26949
L68245 26949
L68245 26799
L68263 26761
L68282 26742
L68320 26724
L68376 26724
L68413 26742
L68432 26761
L68451 26799
L68451 26949
" />
<g transform="rotate(-90 65960.6 27877.2)">
<text x="65960.6" y="28074"
textLength="864.173" font-size="524.934" lengthAdjust="spacingAndGlyphs"
text-anchor="middle" opacity="0">U3</text>
</g>
<path d="M65745 28177
L66063 28177
L66101 28158
L66119 28139
L66138 28102
L66138 28027
L66119 27989
L66101 27970
L66063 27952
L65745 27952
" />
<path d="M65745 27802
L65745 27558
L65895 27689
L65895 27633
L65913 27595
L65932 27577
L65970 27558
L66063 27558
L66101 27577
L66119 27595
L66138 27633
L66138 27745
L66119 27783
L66101 27802
" />
<g transform="rotate(-90 38312.6 35000)">
<text x="38312.6" y="35196.9"
textLength="3338.86" font-size="524.934" lengthAdjust="spacingAndGlyphs"
text-anchor="middle" opacity="0">R 300k 2W</text>
</g>
<path d="M38490 36312
L38303 36443
" />
<path d="M38490 36537
L38097 36537
L38097 36387
L38115 36349
L38134 36331
L38171 36312
L38228 36312
L38265 36331
L38284 36349
L38303 36387
L38303 36537
" />
<path d="M38097 35881
L38097 35637
L38246 35768
L38246 35712
L38265 35674
L38284 35656
L38321 35637
L38415 35637
L38453 35656
L38471 35674
L38490 35712
L38490 35824
L38471 35862
L38453 35881
" />
<path d="M38097 35393
L38097 35356
L38115 35318
L38134 35299
L38171 35281
L38246 35262
L38340 35262
L38415 35281
L38453 35299
L38471 35318
L38490 35356
L38490 35393
L38471 35431
L38453 35449
L38415 35468
L38340 35487
L38246 35487
L38171 35468
L38134 35449
L38115 35431
L38097 35393
" />
<path d="M38097 35018
L38097 34981
L38115 34943
L38134 34925
L38171 34906
L38246 34887
L38340 34887
L38415 34906
L38453 34925
L38471 34943
L38490 34981
L38490 35018
L38471 35056
L38453 35074
L38415 35093
L38340 35112
L38246 35112
L38171 35093
L38134 35074
L38115 35056
L38097 35018
" />
<path d="M38490 34718
L38097 34718
" />
<path d="M38340 34681
L38490 34568
" />
<path d="M38228 34568
L38378 34718
" />
<path d="M38134 34118
L38115 34100
L38097 34062
L38097 33968
L38115 33931
L38134 33912
L38171 33893
L38209 33893
L38265 33912
L38490 34137
L38490 33893
" />
<path d="M38097 33762
L38490 33668
L38209 33593
L38490 33518
L38097 33425
" />
<g transform="rotate(-90 35430.7 36500)">
<text x="35430.7" y="36696.9"
textLength="845.426" font-size="524.934" lengthAdjust="spacingAndGlyphs"
text-anchor="middle" opacity="0">R3</text>
</g>
<path d="M35608 36565
L35421 36696
" />
<path d="M35608 36790
L35215 36790
L35215 36640
L35233 36603
L35252 36584
L35290 36565
L35346 36565
L35383 36584
L35402 36603
L35421 36640
L35421 36790
" />
<path d="M35215 36434
L35215 36190
L35365 36321
L35365 36265
L35383 36228
L35402 36209
L35440 36190
L35533 36190
L35571 36209
L35590 36228
L35608 36265
L35608 36378
L35590 36415
L35571 36434
" />
<text x="82153.5" y="29719.7"
textLength="2982.66" font-size="524.934" lengthAdjust="spacingAndGlyphs"
text-anchor="middle" opacity="0">INDUCTOR</text>
<path d="M80794 29700
L80794 29307
" />
<path d="M80981 29700
L80981 29307
L81206 29700
L81206 29307
" />
<path d="M81394 29700
L81394 29307
L81488 29307
L81544 29325
L81581 29363
L81600 29400
L81619 29475
L81619 29532
L81600 29607
L81581 29644
L81544 29682
L81488 29700
L81394 29700
" />
<path d="M81787 29307
L81787 29625
L81806 29663
L81825 29682
L81862 29700
L81937 29700
L81975 29682
L81994 29663
L82012 29625
L82012 29307
" />
<path d="M82425 29663
L82406 29682
L82350 29700
L82312 29700
L82256 29682
L82219 29644
L82200 29607
L82181 29532
L82181 29475
L82200 29400
L82219 29363
L82256 29325
L82312 29307
L82350 29307
L82406 29325
L82425 29344
" />
<path d="M82537 29307
L82762 29307
" />
<path d="M82650 29700
L82650 29307
" />
<path d="M82969 29307
L83044 29307
L83081 29325
L83119 29363
L83137 29438
L83137 29569
L83119 29644
L83081 29682
L83044 29700
L82969 29700
L82931 29682
L82894 29644
L82875 29569
L82875 29438
L82894 29363
L82931 29325
L82969 29307
" />
<path d="M83531 29700
L83400 29513
" />
<path d="M83306 29700
L83306 29307
L83456 29307
L83494 29325
L83512 29344
L83531 29382
L83531 29438
L83512 29475
L83494 29494
L83456 29513
L83306 29513
" />
<text x="50568.5" y="54519.7"
textLength="864.173" font-size="524.934" lengthAdjust="spacingAndGlyphs"
text-anchor="middle" opacity="0">CP</text>
<path d="M50493 54463
L50474 54482
L50418 54500
L50381 54500
L50324 54482
L50287 54444
L50268 54407
L50249 54332
L50249 54275
L50268 54200
L50287 54163
L50324 54125
L50381 54107
L50418 54107
L50474 54125
L50493 54144
" />
<path d="M50662 54500
L50662 54107
L50812 54107
L50849 54125
L50868 54144
L50887 54182
L50887 54238
L50868 54275
L50849 54294
L50812 54313
L50662 54313
" />
<text x="50568.5" y="49696.9"
textLength="845.426" font-size="524.934" lengthAdjust="spacingAndGlyphs"
text-anchor="middle" opacity="0">C3</text>
<path d="M50502 49640
L50484 49659
L50427 49678
L50390 49678
L50334 49659
L50296 49621
L50277 49584
L50259 49509
L50259 49453
L50277 49378
L50296 49340
L50334 49303
L50390 49284
L50427 49284
L50484 49303
L50502 49321
" />
<path d="M50634 49284
L50877 49284
L50746 49434
L50802 49434
L50840 49453
L50859 49471
L50877 49509
L50877 49603
L50859 49640
L50840 49659
L50802 49678
L50690 49678
L50652 49659
L50634 49640
" />
<g transform="rotate(-90 43800 44400)">
<text x="43800" y="44596.9"
textLength="4594.96" font-size="524.934" lengthAdjust="spacingAndGlyphs"
text-anchor="middle" opacity="0">D_Bridge_-AA+</text>
</g>
<path d="M43978 46565
L43584 46565
L43584 46471
L43603 46415
L43640 46377
L43678 46359
L43753 46340
L43809 46340
L43884 46359
L43921 46377
L43959 46415
L43978 46471
L43978 46565
" />
<path d="M44015 46265
L44015 45965
" />
<path d="M43771 45740
L43790 45684
L43809 45665
L43846 45646
L43903 45646
L43940 45665
L43959 45684
L43978 45721
L43978 45871
L43584 45871
L43584 45740
L43603 45702
L43621 45684
L43659 45665
L43696 45665
L43734 45684
L43753 45702
L43771 45740
L43771 45871
" />
<path d="M43978 45477
L43715 45477
" />
<path d="M43790 45477
L43753 45459
L43734 45440
L43715 45402
L43715 45365
" />
<path d="M43978 45234
L43715 45234
" />
<path d="M43584 45234
L43603 45253
L43621 45234
L43603 45215
L43584 45234
L43621 45234
" />
<path d="M43978 44878
L43584 44878
" />
<path d="M43959 44878
L43978 44915
L43978 44990
L43959 45028
L43940 45046
L43903 45065
L43790 45065
L43753 45046
L43734 45028
L43715 44990
L43715 44915
L43734 44878
" />
<path d="M43715 44521
L44034 44521
L44071 44540
L44090 44559
L44109 44596
L44109 44653
L44090 44690
" />
<path d="M43959 44521
L43978 44559
L43978 44634
L43959 44671
L43940 44690
L43903 44709
L43790 44709
L43753 44690
L43734 44671
L43715 44634
L43715 44559
L43734 44521
" />
<path d="M43959 44184
L43978 44221
L43978 44296
L43959 44334
L43921 44353
L43771 44353
L43734 44334
L43715 44296
L43715 44221
L43734 44184
L43771 44165
L43809 44165
L43846 44353
" />
<path d="M44015 44090
L44015 43790
" />
<path d="M43828 43696
L43828 43397
" />
<path d="M43865 43228
L43865 43040
" />
<path d="M43978 43265
L43584 43134
L43978 43003
" />
<path d="M43865 42890
L43865 42703
" />
<path d="M43978 42928
L43584 42797
L43978 42665
" />
<path d="M43828 42534
L43828 42234
" />
<path d="M43978 42384
L43678 42384
" />
<text x="32500" y="46000"
textLength="3057.65" font-size="524.934" lengthAdjust="spacingAndGlyphs"
text-anchor="middle" opacity="0">L_Coupled</text>
<path d="M31290 45981
L31103 45981
L31103 45587
" />
<path d="M31328 46018
L31628 46018
" />
<path d="M31946 45943
L31928 45962
L31871 45981
L31834 45981
L31778 45962
L31740 45925
L31721 45887
L31703 45812
L31703 45756
L31721 45681
L31740 45643
L31778 45606
L31834 45587
L31871 45587
L31928 45606
L31946 45625
" />
<path d="M32171 45981
L32134 45962
L32115 45943
L32096 45906
L32096 45793
L32115 45756
L32134 45737
L32171 45718
L32228 45718
L32265 45737
L32284 45756
L32303 45793
L32303 45906
L32284 45943
L32265 45962
L32228 45981
L32171 45981
" />
<path d="M32640 45718
L32640 45981
" />
<path d="M32471 45718
L32471 45925
L32490 45962
L32528 45981
L32584 45981
L32621 45962
L32640 45943
" />
<path d="M32828 45718
L32828 46112
" />
<path d="M32828 45737
L32865 45718
L32940 45718
L32978 45737
L32996 45756
L33015 45793
L33015 45906
L32996 45943
L32978 45962
L32940 45981
L32865 45981
L32828 45962
" />
<path d="M33240 45981
L33203 45962
L33184 45925
L33184 45587
" />
<path d="M33540 45962
L33502 45981
L33428 45981
L33390 45962
L33371 45925
L33371 45775
L33390 45737
L33428 45718
L33502 45718
L33540 45737
L33559 45775
L33559 45812
L33371 45850
" />
<path d="M33896 45981
L33896 45587
" />
<path d="M33896 45962
L33859 45981
L33784 45981
L33746 45962
L33727 45943
L33709 45906
L33709 45793
L33727 45756
L33746 45737
L33784 45718
L33859 45718
L33896 45737
" />
<text x="55300" y="26579.5"
textLength="3526.34" font-size="524.934" lengthAdjust="spacingAndGlyphs"
text-anchor="middle" opacity="0">SFH617A-1</text>
<path d="M53650 26542
L53706 26560
L53800 26560
L53837 26542
L53856 26523
L53875 26485
L53875 26448
L53856 26410
L53837 26392
L53800 26373
L53725 26354
L53687 26335
L53668 26317
L53650 26279
L53650 26242
L53668 26204
L53687 26185
L53725 26167
L53818 26167
L53875 26185
" />
<path d="M54175 26354
L54043 26354
" />
<path d="M54043 26560
L54043 26167
L54231 26167
" />
<path d="M54381 26560
L54381 26167
" />
<path d="M54381 26354
L54606 26354
" />
<path d="M54606 26560
L54606 26167
" />
<path d="M54962 26167
L54887 26167
L54850 26185
L54831 26204
L54793 26260
L54775 26335
L54775 26485
L54793 26523
L54812 26542
L54850 26560
L54925 26560
L54962 26542
L54981 26523
L55000 26485
L55000 26392
L54981 26354
L54962 26335
L54925 26317
L54850 26317
L54812 26335
L54793 26354
L54775 26392
" />
<path d="M55374 26560
L55150 26560
" />
<path d="M55262 26560
L55262 26167
L55225 26223
L55187 26260
L55150 26279
" />
<path d="M55506 26167
L55768 26167
L55599 26560
" />
<path d="M55899 26448
L56087 26448
" />
<path d="M55862 26560
L55993 26167
L56124 26560
" />
<path d="M56256 26410
L56556 26410
" />
<path d="M56949 26560
L56724 26560
" />
<path d="M56837 26560
L56837 26167
L56799 26223
L56762 26260
L56724 26279
" />
<text x="55300" y="27996.9"
textLength="864.173" font-size="524.934" lengthAdjust="spacingAndGlyphs"
text-anchor="middle" opacity="0">U2</text>
<path d="M55000 27584
L55000 27903
L55018 27940
L55037 27959
L55075 27978
L55150 27978
L55187 27959
L55206 27940
L55225 27903
L55225 27584
" />
<path d="M55393 27621
L55412 27603
L55449 27584
L55543 27584
L55581 27603
L55599 27621
L55618 27659
L55618 27696
L55599 27753
L55374 27978
L55618 27978
" />
<text x="46300" y="36414.2"
textLength="4032.53" font-size="524.934" lengthAdjust="spacingAndGlyphs"
text-anchor="middle" opacity="0">UC3843_DIP8</text>
<path d="M44415 36001
L44415 36320
L44434 36357
L44453 36376
L44490 36395
L44565 36395
L44603 36376
L44622 36357
L44640 36320
L44640 36001
" />
<path d="M45053 36357
L45034 36376
L44978 36395
L44940 36395
L44884 36376
L44847 36339
L44828 36301
L44809 36226
L44809 36170
L44828 36095
L44847 36057
L44884 36020
L44940 36001
L44978 36001
L45034 36020
L45053 36039
" />
<path d="M45184 36001
L45428 36001
L45297 36151
L45353 36151
L45390 36170
L45409 36189
L45428 36226
L45428 36320
L45409 36357
L45390 36376
L45353 36395
L45240 36395
L45203 36376
L45184 36357
" />
<path d="M45653 36170
L45615 36151
L45596 36132
L45578 36095
L45578 36076
L45596 36039
L45615 36020
L45653 36001
L45728 36001
L45765 36020
L45784 36039
L45803 36076
L45803 36095
L45784 36132
L45765 36151
L45728 36170
L45653 36170
L45615 36189
L45596 36207
L45578 36245
L45578 36320
L45596 36357
L45615 36376
L45653 36395
L45728 36395
L45765 36376
L45784 36357
L45803 36320
L45803 36245
L45784 36207
L45765 36189
L45728 36170
" />
<path d="M46140 36132
L46140 36395
" />
<path d="M46046 35982
L45953 36264
L46196 36264
" />
<path d="M46309 36001
L46553 36001
L46421 36151
L46478 36151
L46515 36170
L46534 36189
L46553 36226
L46553 36320
L46534 36357
L46515 36376
L46478 36395
L46365 36395
L46328 36376
L46309 36357
" />
<path d="M46628 36432
L46928 36432
" />
<path d="M47021 36395
L47021 36001
L47115 36001
L47171 36020
L47209 36057
L47228 36095
L47246 36170
L47246 36226
L47228 36301
L47209 36339
L47171 36376
L47115 36395
L47021 36395
" />
<path d="M47415 36395
L47415 36001
" />
<path d="M47602 36395
L47602 36001
L47752 36001
L47790 36020
L47809 36039
L47827 36076
L47827 36132
L47809 36170
L47790 36189
L47752 36207
L47602 36207
" />
<path d="M48052 36170
L48015 36151
L47996 36132
L47977 36095
L47977 36076
L47996 36039
L48015 36020
L48052 36001
L48127 36001
L48165 36020
L48184 36039
L48202 36076
L48202 36095
L48184 36132
L48165 36151
L48127 36170
L48052 36170
L48015 36189
L47996 36207
L47977 36245
L47977 36320
L47996 36357
L48015 36376
L48052 36395
L48127 36395
L48165 36376
L48184 36357
L48202 36320
L48202 36245
L48184 36207
L48165 36189
L48127 36170
" />
<text x="46300" y="33996.9"
textLength="864.173" font-size="524.934" lengthAdjust="spacingAndGlyphs"
text-anchor="middle" opacity="0">U1</text>
<path d="M46000 33584
L46000 33903
L46018 33940
L46037 33959
L46075 33978
L46150 33978
L46187 33959
L46206 33940
L46225 33903
L46225 33584
" />
<path d="M46618 33978
L46393 33978
" />
<path d="M46506 33978
L46506 33584
L46468 33640
L46431 33678
L46393 33696
" />
<g transform="rotate(-90 68507.9 32711.8)">
<text x="68507.9" y="32908.7"
textLength="6375.98" font-size="524.934" lengthAdjust="spacingAndGlyphs"
text-anchor="middle" opacity="0">R_POT_Dual_Separate</text>
</g>
<path d="M68685 35542
L68498 35673
" />
<path d="M68685 35767
L68292 35767
L68292 35617
L68311 35580
L68329 35561
L68367 35542
L68423 35542
L68461 35561
L68479 35580
L68498 35617
L68498 35767
" />
<path d="M68723 35467
L68723 35167
" />
<path d="M68685 35074
L68292 35074
L68292 34924
L68311 34886
L68329 34867
L68367 34849
L68423 34849
L68461 34867
L68479 34886
L68498 34924
L68498 35074
" />
<path d="M68292 34605
L68292 34530
L68311 34492
L68348 34455
L68423 34436
L68554 34436
L68629 34455
L68667 34492
L68685 34530
L68685 34605
L68667 34642
L68629 34680
L68554 34699
L68423 34699
L68348 34680
L68311 34642
L68292 34605
" />
<path d="M68292 34324
L68292 34099
" />
<path d="M68685 34211
L68292 34211
" />
<path d="M68723 34061
L68723 33761
" />
<path d="M68685 33667
L68292 33667
L68292 33574
L68311 33517
L68348 33480
L68386 33461
L68461 33442
L68517 33442
L68592 33461
L68629 33480
L68667 33517
L68685 33574
L68685 33667
" />
<path d="M68423 33105
L68685 33105
" />
<path d="M68423 33274
L68629 33274
L68667 33255
L68685 33217
L68685 33161
L68667 33124
L68648 33105
" />
<path d="M68685 32749
L68479 32749
L68442 32768
L68423 32805
L68423 32880
L68442 32918
" />
<path d="M68667 32749
L68685 32786
L68685 32880
L68667 32918
L68629 32936
L68592 32936
L68554 32918
L68535 32880
L68535 32786
L68517 32749
" />
<path d="M68685 32505
L68667 32543
L68629 32561
L68292 32561
" />
<path d="M68723 32449
L68723 32149
" />
<path d="M68667 32074
L68685 32018
L68685 31924
L68667 31886
L68648 31868
L68610 31849
L68573 31849
L68535 31868
L68517 31886
L68498 31924
L68479 31999
L68461 32036
L68442 32055
L68404 32074
L68367 32074
L68329 32055
L68311 32036
L68292 31999
L68292 31905
L68311 31849
" />
<path d="M68667 31530
L68685 31568
L68685 31643
L68667 31680
L68629 31699
L68479 31699
L68442 31680
L68423 31643
L68423 31568
L68442 31530
L68479 31511
L68517 31511
L68554 31699
" />
<path d="M68423 31343
L68817 31343
" />
<path d="M68442 31343
L68423 31305
L68423 31230
L68442 31193
L68461 31174
L68498 31155
L68610 31155
L68648 31174
L68667 31193
L68685 31230
L68685 31305
L68667 31343
" />
<path d="M68685 30818
L68479 30818
L68442 30837
L68423 30874
L68423 30949
L68442 30987
" />
<path d="M68667 30818
L68685 30855
L68685 30949
L68667 30987
L68629 31005
L68592 31005
L68554 30987
L68535 30949
L68535 30855
L68517 30818
" />
<path d="M68685 30630
L68423 30630
" />
<path d="M68498 30630
L68461 30612
L68442 30593
L68423 30555
L68423 30518
" />
<path d="M68685 30218
L68479 30218
L68442 30237
L68423 30274
L68423 30349
L68442 30387
" />
<path d="M68667 30218
L68685 30255
L68685 30349
L68667 30387
L68629 30405
L68592 30405
L68554 30387
L68535 30349
L68535 30255
L68517 30218
" />
<path d="M68423 30087
L68423 29937
" />
<path d="M68292 30030
L68629 30030
L68667 30012
L68685 29974
L68685 29937
" />
<path d="M68667 29655
L68685 29693
L68685 29768
L68667 29805
L68629 29824
L68479 29824
L68442 29805
L68423 29768
L68423 29693
L68442 29655
L68479 29637
L68517 29637
L68554 29824
" />
<g transform="rotate(-90 70303.1 33400.8)">
<text x="70303.1" y="33554.3"
textLength="939.539" font-size="409.449" lengthAdjust="spacingAndGlyphs"
text-anchor="middle" opacity="0">RV1</text>
</g>
<path d="M70442 33583
L70295 33685
" />
<path d="M70442 33759
L70134 33759
L70134 33642
L70149 33612
L70164 33598
L70193 33583
L70237 33583
L70266 33598
L70281 33612
L70295 33642
L70295 33759
" />
<path d="M70134 33495
L70442 33393
L70134 33291
" />
<path d="M70442 33027
L70442 33203
" />
<path d="M70442 33115
L70134 33115
L70178 33144
L70208 33174
L70222 33203
" />
<text x="56700" y="37870.1"
textLength="1707.82" font-size="524.934" lengthAdjust="spacingAndGlyphs"
text-anchor="middle" opacity="0">R 1.8</text>
<path d="M56203 37851
L56071 37663
" />
<path d="M55978 37851
L55978 37457
L56128 37457
L56165 37476
L56184 37495
L56203 37532
L56203 37588
L56184 37626
L56165 37645
L56128 37663
L55978 37663
" />
<path d="M56878 37851
L56653 37851
" />
<path d="M56765 37851
L56765 37457
L56728 37513
L56690 37551
L56653 37570
" />
<path d="M57046 37813
L57065 37832
L57046 37851
L57028 37832
L57046 37813
L57046 37851
" />
<path d="M57290 37626
L57253 37607
L57234 37588
L57215 37551
L57215 37532
L57234 37495
L57253 37476
L57290 37457
L57365 37457
L57403 37476
L57421 37495
L57440 37532
L57440 37551
L57421 37588
L57403 37607
L57365 37626
L57290 37626
L57253 37645
L57234 37663
L57215 37701
L57215 37776
L57234 37813
L57253 37832
L57290 37851
L57365 37851
L57403 37832
L57421 37813
L57440 37776
L57440 37701
L57421 37663
L57403 37645
L57365 37626
" />
<text x="56700" y="39196.9"
textLength="1220.38" font-size="524.934" lengthAdjust="spacingAndGlyphs"
text-anchor="middle" opacity="0">R13</text>
<path d="M56446 39178
L56315 38990
" />
<path d="M56221 39178
L56221 38784
L56371 38784
L56409 38803
L56428 38821
L56446 38859
L56446 38915
L56428 38953
L56409 38971
L56371 38990
L56221 38990
" />
<path d="M56821 39178
L56596 39178
" />
<path d="M56709 39178
L56709 38784
L56671 38840
L56634 38878
L56596 38896
" />
<path d="M56953 38784
L57196 38784
L57065 38934
L57121 38934
L57159 38953
L57178 38971
L57196 39009
L57196 39103
L57178 39140
L57159 39159
L57121 39178
L57009 39178
L56971 39159
L56953 39140
" />
<text x="55000" y="38323.6"
textLength="1464.1" font-size="524.934" lengthAdjust="spacingAndGlyphs"
text-anchor="middle" opacity="0">R 1k</text>
<path d="M54625 38304
L54493 38117
" />
<path d="M54400 38304
L54400 37911
L54550 37911
L54587 37929
L54606 37948
L54625 37986
L54625 38042
L54606 38079
L54587 38098
L54550 38117
L54400 38117
" />
<path d="M55299 38304
L55074 38304
" />
<path d="M55187 38304
L55187 37911
L55149 37967
L55112 38004
L55074 38023
" />
<path d="M55468 38304
L55468 37911
" />
<path d="M55506 38154
L55618 38304
" />
<path d="M55618 38042
L55468 38192
" />
<text x="55000" y="36996.9"
textLength="1220.38" font-size="524.934" lengthAdjust="spacingAndGlyphs"
text-anchor="middle" opacity="0">R11</text>
<path d="M54746 36978
L54615 36790
" />
<path d="M54521 36978
L54521 36584
L54671 36584
L54709 36603
L54728 36621
L54746 36659
L54746 36715
L54728 36753
L54709 36771
L54671 36790
L54521 36790
" />
<path d="M55121 36978
L54896 36978
" />
<path d="M55009 36978
L55009 36584
L54971 36640
L54934 36678
L54896 36696
" />
<path d="M55496 36978
L55271 36978
" />
<path d="M55384 36978
L55384 36584
L55346 36640
L55309 36678
L55271 36696
" />
<text x="43700" y="28870.1"
textLength="1464.1" font-size="524.934" lengthAdjust="spacingAndGlyphs"
text-anchor="middle" opacity="0">R 1k</text>
<path d="M43325 28851
L43193 28663
" />
<path d="M43100 28851
L43100 28457
L43250 28457
L43287 28476
L43306 28495
L43325 28532
L43325 28588
L43306 28626
L43287 28645
L43250 28663
L43100 28663
" />
<path d="M43999 28851
L43774 28851
" />
<path d="M43887 28851
L43887 28457
L43849 28513
L43812 28551
L43774 28570
" />
<path d="M44168 28851
L44168 28457
" />
<path d="M44206 28701
L44318 28851
" />
<path d="M44318 28588
L44168 28738
" />
<text x="43700" y="30196.9"
textLength="1220.38" font-size="524.934" lengthAdjust="spacingAndGlyphs"
text-anchor="middle" opacity="0">R10</text>
<path d="M43446 30178
L43315 29990
" />
<path d="M43221 30178
L43221 29784
L43371 29784
L43409 29803
L43428 29821
L43446 29859
L43446 29915
L43428 29953
L43409 29971
L43371 29990
L43221 29990
" />
<path d="M43821 30178
L43596 30178
" />
<path d="M43709 30178
L43709 29784
L43671 29840
L43634 29878
L43596 29896
" />
<path d="M44065 29784
L44103 29784
L44140 29803
L44159 29821
L44178 29859
L44196 29934
L44196 30028
L44178 30103
L44159 30140
L44140 30159
L44103 30178
L44065 30178
L44028 30159
L44009 30140
L43990 30103
L43971 30028
L43971 29934
L43990 29859
L44009 29821
L44028 29803
L44065 29784
" />
<text x="46100" y="28523.6"
textLength="1464.1" font-size="524.934" lengthAdjust="spacingAndGlyphs"
text-anchor="middle" opacity="0">R 1k</text>
<path d="M45725 28504
L45593 28317
" />
<path d="M45500 28504
L45500 28111
L45650 28111
L45687 28129
L45706 28148
L45725 28186
L45725 28242
L45706 28279
L45687 28298
L45650 28317
L45500 28317
" />
<path d="M46399 28504
L46174 28504
" />
<path d="M46287 28504
L46287 28111
L46249 28167
L46212 28204
L46174 28223
" />
<path d="M46568 28504
L46568 28111
" />
<path d="M46606 28354
L46718 28504
" />
<path d="M46718 28242
L46568 28392
" />
<text x="46100" y="27196.9"
textLength="845.426" font-size="524.934" lengthAdjust="spacingAndGlyphs"
text-anchor="middle" opacity="0">R6</text>
<path d="M46034 27178
L45903 26990
" />
<path d="M45809 27178
L45809 26784
L45959 26784
L45996 26803
L46015 26821
L46034 26859
L46034 26915
L46015 26953
L45996 26971
L45959 26990
L45809 26990
" />
<path d="M46371 26784
L46296 26784
L46259 26803
L46240 26821
L46203 26878
L46184 26953
L46184 27103
L46203 27140
L46221 27159
L46259 27178
L46334 27178
L46371 27159
L46390 27140
L46409 27103
L46409 27009
L46390 26971
L46371 26953
L46334 26934
L46259 26934
L46221 26953
L46203 26971
L46184 27009
" />
<g transform="rotate(-90 66673.2 39700)">
<text x="66673.2" y="39896.9"
textLength="1520.34" font-size="524.934" lengthAdjust="spacingAndGlyphs"
text-anchor="middle" opacity="0">R 33</text>
</g>
<path d="M66851 40103
L66663 40234
" />
<path d="M66851 40328
L66457 40328
L66457 40178
L66476 40140
L66495 40121
L66532 40103
L66588 40103
L66626 40121
L66645 40140
L66663 40178
L66663 40328
" />
<path d="M66457 39671
L66457 39428
L66607 39559
L66607 39503
L66626 39465
L66645 39446
L66682 39428
L66776 39428
L66813 39446
L66832 39465
L66851 39503
L66851 39615
L66832 39653
L66813 39671
" />
<path d="M66457 39296
L66457 39053
L66607 39184
L66607 39128
L66626 39090
L66645 39071
L66682 39053
L66776 39053
L66813 39071
L66832 39090
L66851 39128
L66851 39240
L66832 39278
L66813 39296
" />
<g transform="rotate(-90 68000 39700)">
<text x="68000" y="39896.9"
textLength="845.426" font-size="524.934" lengthAdjust="spacingAndGlyphs"
text-anchor="middle" opacity="0">R4</text>
</g>
<path d="M68178 39765
L67990 39896
" />
<path d="M68178 39990
L67784 39990
L67784 39840
L67803 39803
L67821 39784
L67859 39765
L67915 39765
L67953 39784
L67971 39803
L67990 39840
L67990 39990
" />
<path d="M67915 39428
L68178 39428
" />
<path d="M67765 39521
L68046 39615
L68046 39371
" />
<g transform="rotate(-90 61412.6 46700)">
<text x="61412.6" y="46896.9"
textLength="1839.05" font-size="524.934" lengthAdjust="spacingAndGlyphs"
text-anchor="middle" opacity="0">R 39k</text>
</g>
<path d="M61590 47262
L61403 47393
" />
<path d="M61590 47487
L61197 47487
L61197 47337
L61215 47299
L61234 47281
L61271 47262
L61328 47262
L61365 47281
L61384 47299
L61403 47337
L61403 47487
" />
<path d="M61197 46831
L61197 46587
L61346 46718
L61346 46662
L61365 46625
L61384 46606
L61421 46587
L61515 46587
L61553 46606
L61571 46625
L61590 46662
L61590 46774
L61571 46812
L61553 46831
" />
<path d="M61590 46400
L61590 46325
L61571 46287
L61553 46268
L61496 46231
L61421 46212
L61271 46212
L61234 46231
L61215 46250
L61197 46287
L61197 46362
L61215 46400
L61234 46418
L61271 46437
L61365 46437
L61403 46418
L61421 46400
L61440 46362
L61440 46287
L61421 46250
L61403 46231
L61365 46212
" />
<path d="M61590 46043
L61197 46043
" />
<path d="M61440 46006
L61590 45893
" />
<path d="M61328 45893
L61478 46043
" />
<g transform="rotate(-90 59200 46700)">
<text x="59200" y="46896.9"
textLength="845.426" font-size="524.934" lengthAdjust="spacingAndGlyphs"
text-anchor="middle" opacity="0">R1</text>
</g>
<path d="M59378 46765
L59190 46896
" />
<path d="M59378 46990
L58984 46990
L58984 46840
L59003 46803
L59021 46784
L59059 46765
L59115 46765
L59153 46784
L59171 46803
L59190 46840
L59190 46990
" />
<path d="M59378 46390
L59378 46615
" />
<path d="M59378 46503
L58984 46503
L59040 46540
L59078 46578
L59096 46615
" />
<g transform="rotate(-90 62815.7 38000)">
<text x="62815.7" y="38196.9"
textLength="2120.27" font-size="524.934" lengthAdjust="spacingAndGlyphs"
text-anchor="middle" opacity="0">IRF740</text>
</g>
<path d="M62993 38928
L62600 38928
" />
<path d="M62993 38515
L62806 38646
" />
<path d="M62993 38740
L62600 38740
L62600 38590
L62618 38553
L62637 38534
L62675 38515
L62731 38515
L62768 38534
L62787 38553
L62806 38590
L62806 38740
" />
<path d="M62787 38215
L62787 38346
" />
<path d="M62993 38346
L62600 38346
L62600 38159
" />
<path d="M62600 38046
L62600 37784
L62993 37953
" />
<path d="M62731 37465
L62993 37465
" />
<path d="M62581 37559
L62862 37653
L62862 37409
" />
<path d="M62600 37184
L62600 37146
L62618 37109
L62637 37090
L62675 37071
L62750 37053
L62843 37053
L62918 37071
L62956 37090
L62975 37109
L62993 37146
L62993 37184
L62975 37221
L62956 37240
L62918 37259
L62843 37278
L62750 37278
L62675 37259
L62637 37240
L62618 37221
L62600 37184
" />
<g transform="rotate(-90 65481.1 38000)">
<text x="65481.1" y="38196.9"
textLength="864.173" font-size="524.934" lengthAdjust="spacingAndGlyphs"
text-anchor="middle" opacity="0">Q1</text>
</g>
<path d="M65696 38037
L65677 38074
L65640 38112
L65584 38168
L65565 38206
L65565 38243
" />
<path d="M65659 38224
L65640 38262
L65602 38299
L65527 38318
L65396 38318
L65321 38299
L65284 38262
L65265 38224
L65265 38149
L65284 38112
L65321 38074
L65396 38056
L65527 38056
L65602 38074
L65640 38112
L65659 38149
L65659 38224
" />
<path d="M65659 37681
L65659 37906
" />
<path d="M65659 37793
L65265 37793
L65321 37831
L65359 37868
L65377 37906
" />
<g transform="rotate(-90 64055.9 44200)">
<text x="64055.9" y="44396.9"
textLength="1820.3" font-size="524.934" lengthAdjust="spacingAndGlyphs"
text-anchor="middle" opacity="0">DIODE</text>
</g>
<path d="M64234 44978
L63840 44978
L63840 44884
L63859 44828
L63896 44790
L63934 44771
L64009 44753
L64065 44753
L64140 44771
L64177 44790
L64215 44828
L64234 44884
L64234 44978
" />
<path d="M64234 44584
L63840 44584
" />
<path d="M63840 44321
L63840 44246
L63859 44209
L63896 44171
L63971 44153
L64102 44153
L64177 44171
L64215 44209
L64234 44246
L64234 44321
L64215 44359
L64177 44396
L64102 44415
L63971 44415
L63896 44396
L63859 44359
L63840 44321
" />
<path d="M64234 43984
L63840 43984
L63840 43890
L63859 43834
L63896 43796
L63934 43778
L64009 43759
L64065 43759
L64140 43778
L64177 43796
L64215 43834
L64234 43890
L64234 43984
" />
<path d="M64027 43590
L64027 43459
" />
<path d="M64234 43403
L64234 43590
L63840 43590
L63840 43403
" />
<g transform="rotate(-90 62611 46700)">
<text x="62611" y="46896.9"
textLength="470.472" font-size="524.934" lengthAdjust="spacingAndGlyphs"
text-anchor="middle" opacity="0">K</text>
</g>
<path d="M62789 46803
L62395 46803
" />
<path d="M62789 46578
L62564 46746
" />
<path d="M62395 46578
L62620 46803
" />
</g>
<g style="fill:#000000; fill-opacity:0.0; 
stroke:#000000; stroke-width:35.9055; stroke-opacity:1; 
stroke-linecap:round; stroke-linejoin:round;">
<g transform="rotate(-90 63300 44110.2)">
<text x="63300" y="44229.9"
textLength="1205.23" font-size="319.16" lengthAdjust="spacingAndGlyphs"
text-anchor="middle" opacity="0">FR107</text>
</g>
<path d="M63282 44537
L63282 44617
" />
<path d="M63408 44617
L63168 44617
L63168 44503
" />
<path d="M63408 44275
L63294 44355
" />
<path d="M63408 44412
L63168 44412
L63168 44321
L63180 44298
L63191 44286
L63214 44275
L63248 44275
L63271 44286
L63282 44298
L63294 44321
L63294 44412
" />
<path d="M63408 44047
L63408 44184
" />
<path d="M63408 44115
L63168 44115
L63203 44138
L63225 44161
L63237 44184
" />
<path d="M63168 43899
L63168 43876
L63180 43853
L63191 43842
L63214 43830
L63260 43819
L63317 43819
L63362 43830
L63385 43842
L63396 43853
L63408 43876
L63408 43899
L63396 43922
L63385 43933
L63362 43944
L63317 43956
L63260 43956
L63214 43944
L63191 43933
L63180 43922
L63168 43899
" />
<path d="M63168 43739
L63168 43580
L63408 43682
" />
</g>
<g style="fill:#000000; fill-opacity:0.0; 
stroke:#000000; stroke-width:59.0551; stroke-opacity:1; 
stroke-linecap:round; stroke-linejoin:round;">
<text x="76807.1" y="33497.2"
textLength="1115.29" font-size="524.934" lengthAdjust="spacingAndGlyphs"
text-anchor="middle" opacity="0">LED</text>
<path d="M76553 33478
L76366 33478
L76366 33084
" />
<path d="M76685 33272
L76816 33272
" />
<path d="M76872 33478
L76685 33478
L76685 33084
L76872 33084
" />
<path d="M77041 33478
L77041 33084
L77135 33084
L77191 33103
L77228 33140
L77247 33178
L77266 33253
L77266 33309
L77247 33384
L77228 33422
L77191 33459
L77135 33478
L77041 33478
" />
<text x="76980.3" y="32798.4"
textLength="414.23" font-size="524.934" lengthAdjust="spacingAndGlyphs"
text-anchor="middle" opacity="0">A</text>
<path d="M76886 32667
L77074 32667
" />
<path d="M76849 32779
L76980 32385
L77111 32779
" />
<text x="76807.1" y="30997.3"
textLength="845.426" font-size="524.934" lengthAdjust="spacingAndGlyphs"
text-anchor="middle" opacity="0">D6</text>
<path d="M76516 30978
L76516 30584
L76610 30584
L76666 30603
L76703 30641
L76722 30678
L76741 30753
L76741 30809
L76722 30884
L76703 30922
L76666 30959
L76610 30978
L76516 30978
" />
<path d="M77078 30584
L77003 30584
L76966 30603
L76947 30622
L76910 30678
L76891 30753
L76891 30903
L76910 30941
L76928 30959
L76966 30978
L77041 30978
L77078 30959
L77097 30941
L77116 30903
L77116 30809
L77097 30772
L77078 30753
L77041 30734
L76966 30734
L76928 30753
L76910 30772
L76891 30809
" />
<g transform="rotate(-90 39234.6 25700)">
<text x="39234.6" y="25896.9"
textLength="3807.56" font-size="524.934" lengthAdjust="spacingAndGlyphs"
text-anchor="middle" opacity="0">D_Zener_27V</text>
</g>
<path d="M39412 27471
L39019 27471
L39019 27377
L39037 27321
L39075 27284
L39112 27265
L39187 27246
L39244 27246
L39319 27265
L39356 27284
L39394 27321
L39412 27377
L39412 27471
" />
<path d="M39450 27171
L39450 26871
" />
<path d="M39019 26815
L39019 26553
L39412 26815
L39412 26553
" />
<path d="M39394 26253
L39412 26290
L39412 26365
L39394 26403
L39356 26421
L39206 26421
L39169 26403
L39150 26365
L39150 26290
L39169 26253
L39206 26234
L39244 26234
L39281 26421
" />
<path d="M39150 26065
L39412 26065
" />
<path d="M39187 26065
L39169 26046
L39150 26009
L39150 25953
L39169 25915
L39206 25896
L39412 25896
" />
<path d="M39394 25559
L39412 25596
L39412 25671
L39394 25709
L39356 25728
L39206 25728
L39169 25709
L39150 25671
L39150 25596
L39169 25559
L39206 25540
L39244 25540
L39281 25728
" />
<path d="M39412 25371
L39150 25371
" />
<path d="M39225 25371
L39187 25353
L39169 25334
L39150 25296
L39150 25259
" />
<path d="M39450 25221
L39450 24921
" />
<path d="M39056 24846
L39037 24828
L39019 24790
L39019 24697
L39037 24659
L39056 24640
L39094 24622
L39131 24622
L39187 24640
L39412 24865
L39412 24622
" />
<path d="M39019 24490
L39019 24228
L39412 24397
" />
<path d="M39019 24134
L39412 24003
L39019 23872
" />
<g transform="rotate(-90 37691.3 27200)">
<text x="37691.3" y="27396.9"
textLength="470.472" font-size="524.934" lengthAdjust="spacingAndGlyphs"
text-anchor="middle" opacity="0">K</text>
</g>
<path d="M37869 27303
L37475 27303
" />
<path d="M37869 27078
L37644 27246
" />
<path d="M37475 27078
L37700 27303
" />
</g>
<g style="fill:#000000; fill-opacity:0.0; 
stroke:#000000; stroke-width:47.2441; stroke-opacity:1; 
stroke-linecap:round; stroke-linejoin:round;">
<text x="38400" y="25739.4"
textLength="691.695" font-size="419.947" lengthAdjust="spacingAndGlyphs"
text-anchor="middle" opacity="0">D5</text>
<path d="M38167 25724
L38167 25409
L38242 25409
L38287 25424
L38317 25454
L38332 25484
L38347 25544
L38347 25589
L38332 25649
L38317 25679
L38287 25709
L38242 25724
L38167 25724
" />
<path d="M38632 25409
L38482 25409
L38467 25559
L38482 25544
L38512 25529
L38587 25529
L38617 25544
L38632 25559
L38647 25589
L38647 25664
L38632 25694
L38617 25709
L38587 25724
L38512 25724
L38482 25709
L38467 25694
" />
</g>
<g style="fill:#000000; fill-opacity:0.0; 
stroke:#000000; stroke-width:59.0551; stroke-opacity:1; 
stroke-linecap:round; stroke-linejoin:round;">
<text x="62181.1" y="35341.7"
textLength="2348.63" font-size="524.934" lengthAdjust="spacingAndGlyphs"
text-anchor="middle" opacity="0">1N4148</text>
<path d="M61337 35322
L61112 35322
" />
<path d="M61224 35322
L61224 34929
L61187 34985
L61149 35023
L61112 35041
" />
<path d="M61506 35322
L61506 34929
L61731 35322
L61731 34929
" />
<path d="M62087 35060
L62087 35322
" />
<path d="M61993 34910
L61899 35191
L62143 35191
" />
<path d="M62499 35322
L62274 35322
" />
<path d="M62387 35322
L62387 34929
L62349 34985
L62312 35023
L62274 35041
" />
<path d="M62837 35060
L62837 35322
" />
<path d="M62743 34910
L62649 35191
L62893 35191
" />
<path d="M63099 35098
L63062 35079
L63043 35060
L63024 35023
L63024 35004
L63043 34966
L63062 34948
L63099 34929
L63174 34929
L63212 34948
L63230 34966
L63249 35004
L63249 35023
L63230 35060
L63212 35079
L63174 35098
L63099 35098
L63062 35116
L63043 35135
L63024 35173
L63024 35247
L63043 35285
L63062 35304
L63099 35322
L63174 35322
L63212 35304
L63230 35285
L63249 35247
L63249 35173
L63230 35135
L63212 35116
L63174 35098
" />
<text x="60681.1" y="33798.4"
textLength="470.472" font-size="524.934" lengthAdjust="spacingAndGlyphs"
text-anchor="middle" opacity="0">K</text>
<path d="M60577 33779
L60577 33385
" />
<path d="M60802 33779
L60634 33554
" />
<path d="M60802 33385
L60577 33610
" />
</g>
<g style="fill:#000000; fill-opacity:0.0; 
stroke:#000000; stroke-width:47.2441; stroke-opacity:1; 
stroke-linecap:round; stroke-linejoin:round;">
<text x="62299.2" y="34467.7"
textLength="691.695" font-size="419.947" lengthAdjust="spacingAndGlyphs"
text-anchor="middle" opacity="0">D4</text>
<path d="M62066 34452
L62066 34137
L62141 34137
L62186 34152
L62216 34182
L62231 34212
L62246 34272
L62246 34317
L62231 34377
L62216 34407
L62186 34437
L62141 34452
L62066 34452
" />
<path d="M62516 34242
L62516 34452
" />
<path d="M62441 34122
L62366 34347
L62561 34347
" />
</g>
<g style="fill:#000000; fill-opacity:0.0; 
stroke:#000000; stroke-width:59.0551; stroke-opacity:1; 
stroke-linecap:round; stroke-linejoin:round;">
<g transform="rotate(-90 67165.4 46700)">
<text x="67165.4" y="46896.9"
textLength="2348.63" font-size="524.934" lengthAdjust="spacingAndGlyphs"
text-anchor="middle" opacity="0">1N4148</text>
</g>
<path d="M67343 47543
L67343 47768
" />
<path d="M67343 47656
L66949 47656
L67005 47693
L67043 47731
L67062 47768
" />
<path d="M67343 47374
L66949 47374
L67343 47149
L66949 47149
" />
<path d="M67080 46793
L67343 46793
" />
<path d="M66931 46887
L67212 46981
L67212 46737
" />
<path d="M67343 46381
L67343 46606
" />
<path d="M67343 46493
L66949 46493
L67005 46531
L67043 46568
L67062 46606
" />
<path d="M67080 46043
L67343 46043
" />
<path d="M66931 46137
L67212 46231
L67212 45987
" />
<path d="M67118 45781
L67099 45818
L67080 45837
L67043 45856
L67024 45856
L66987 45837
L66968 45818
L66949 45781
L66949 45706
L66968 45668
L66987 45650
L67024 45631
L67043 45631
L67080 45650
L67099 45668
L67118 45706
L67118 45781
L67137 45818
L67155 45837
L67193 45856
L67268 45856
L67305 45837
L67324 45818
L67343 45781
L67343 45706
L67324 45668
L67305 45650
L67268 45631
L67193 45631
L67155 45650
L67137 45668
L67118 45706
" />
<g transform="rotate(-90 68708.7 45200)">
<text x="68708.7" y="45396.9"
textLength="470.472" font-size="524.934" lengthAdjust="spacingAndGlyphs"
text-anchor="middle" opacity="0">K</text>
</g>
<path d="M68886 45303
L68493 45303
" />
<path d="M68886 45078
L68661 45246
" />
<path d="M68493 45078
L68718 45303
" />
</g>
<g style="fill:#000000; fill-opacity:0.0; 
stroke:#000000; stroke-width:47.2441; stroke-opacity:1; 
stroke-linecap:round; stroke-linejoin:round;">
<g transform="rotate(-90 68000 46818.1)">
<text x="68000" y="46975.6"
textLength="691.695" font-size="419.947" lengthAdjust="spacingAndGlyphs"
text-anchor="middle" opacity="0">D3</text>
</g>
<path d="M68142 47050
L67827 47050
L67827 46975
L67842 46930
L67872 46900
L67902 46885
L67962 46870
L68007 46870
L68067 46885
L68097 46900
L68127 46930
L68142 46975
L68142 47050
" />
<path d="M67827 46765
L67827 46570
L67947 46675
L67947 46630
L67962 46600
L67977 46585
L68007 46570
L68082 46570
L68112 46585
L68127 46600
L68142 46630
L68142 46720
L68127 46750
L68112 46765
" />
</g>
<g style="fill:#000000; fill-opacity:0.0; 
stroke:#000000; stroke-width:59.0551; stroke-opacity:1; 
stroke-linecap:round; stroke-linejoin:round;">
<g transform="rotate(-90 83626 37302.4)">
<text x="83626" y="37499.2"
textLength="2348.63" font-size="524.934" lengthAdjust="spacingAndGlyphs"
text-anchor="middle" opacity="0">HER304</text>
</g>
<path d="M83804 38352
L83410 38352
" />
<path d="M83597 38352
L83597 38127
" />
<path d="M83804 38127
L83410 38127
" />
<path d="M83597 37939
L83597 37808
" />
<path d="M83804 37752
L83804 37939
L83410 37939
L83410 37752
" />
<path d="M83804 37358
L83616 37489
" />
<path d="M83804 37583
L83410 37583
L83410 37433
L83429 37396
L83447 37377
L83485 37358
L83541 37358
L83579 37377
L83597 37396
L83616 37433
L83616 37583
" />
<path d="M83410 37227
L83410 36983
L83560 37114
L83560 37058
L83579 37021
L83597 37002
L83635 36983
L83729 36983
L83766 37002
L83785 37021
L83804 37058
L83804 37171
L83785 37208
L83766 37227
" />
<path d="M83410 36739
L83410 36702
L83429 36664
L83447 36646
L83485 36627
L83560 36608
L83654 36608
L83729 36627
L83766 36646
L83785 36664
L83804 36702
L83804 36739
L83785 36777
L83766 36796
L83729 36814
L83654 36833
L83560 36833
L83485 36814
L83447 36796
L83429 36777
L83410 36739
" />
<path d="M83541 36271
L83804 36271
" />
<path d="M83391 36364
L83672 36458
L83672 36214
" />
<g transform="rotate(-90 82181.1 39802.4)">
<text x="82181.1" y="39999.2"
textLength="470.472" font-size="524.934" lengthAdjust="spacingAndGlyphs"
text-anchor="middle" opacity="0">K</text>
</g>
<path d="M82359 39905
L81965 39905
" />
<path d="M82359 39680
L82134 39849
" />
<path d="M81965 39680
L82190 39905
" />
</g>
<g style="fill:#000000; fill-opacity:0.0; 
stroke:#000000; stroke-width:35.9055; stroke-opacity:1; 
stroke-linecap:round; stroke-linejoin:round;">
<g transform="rotate(-90 83031.5 36995.3)">
<text x="83031.5" y="37115"
textLength="544.113" font-size="319.16" lengthAdjust="spacingAndGlyphs"
text-anchor="middle" opacity="0">D2</text>
</g>
<path d="M83139 37171
L82900 37171
L82900 37114
L82911 37080
L82934 37057
L82957 37046
L83002 37035
L83037 37035
L83082 37046
L83105 37057
L83128 37080
L83139 37114
L83139 37171
" />
<path d="M82923 36943
L82911 36932
L82900 36909
L82900 36852
L82911 36829
L82923 36818
L82946 36807
L82968 36807
L83002 36818
L83139 36955
L83139 36807
" />
</g>
<g style="fill:#000000; fill-opacity:0.0; 
stroke:#000000; stroke-width:59.0551; stroke-opacity:1; 
stroke-linecap:round; stroke-linejoin:round;">
<g transform="rotate(-90 47747.2 38276.4)">
<text x="47747.2" y="38473.2"
textLength="2746.34" font-size="524.934" lengthAdjust="spacingAndGlyphs"
text-anchor="middle" opacity="0">C_0.47nF</text>
</g>
<path d="M47887 39307
L47906 39326
L47925 39382
L47925 39419
L47906 39476
L47869 39513
L47831 39532
L47756 39551
L47700 39551
L47625 39532
L47587 39513
L47550 39476
L47531 39419
L47531 39382
L47550 39326
L47569 39307
" />
<path d="M47962 39232
L47962 38932
" />
<path d="M47531 38763
L47531 38726
L47550 38688
L47569 38670
L47606 38651
L47681 38632
L47775 38632
L47850 38651
L47887 38670
L47906 38688
L47925 38726
L47925 38763
L47906 38801
L47887 38820
L47850 38838
L47775 38857
L47681 38857
L47606 38838
L47569 38820
L47550 38801
L47531 38763
" />
<path d="M47887 38463
L47906 38445
L47925 38463
L47906 38482
L47887 38463
L47925 38463
" />
<path d="M47662 38107
L47925 38107
" />
<path d="M47512 38201
L47794 38295
L47794 38051
" />
<path d="M47531 37938
L47531 37676
L47925 37845
" />
<path d="M47662 37526
L47925 37526
" />
<path d="M47700 37526
L47681 37507
L47662 37470
L47662 37413
L47681 37376
L47719 37357
L47925 37357
" />
<path d="M47719 37039
L47719 37170
" />
<path d="M47925 37170
L47531 37170
L47531 36982
" />
</g>
<g style="fill:#000000; fill-opacity:0.0; 
stroke:#000000; stroke-width:44.8819; stroke-opacity:1; 
stroke-linecap:round; stroke-linejoin:round;">
<g transform="rotate(-90 48700 38276.4)">
<text x="48700" y="38426"
textLength="945.913" font-size="398.95" lengthAdjust="spacingAndGlyphs"
text-anchor="middle" opacity="0">C12</text>
</g>
<path d="M48806 38468
L48821 38482
L48835 38525
L48835 38554
L48821 38596
L48792 38625
L48764 38639
L48707 38653
L48664 38653
L48607 38639
L48578 38625
L48550 38596
L48536 38554
L48536 38525
L48550 38482
L48564 38468
" />
<path d="M48835 38183
L48835 38354
" />
<path d="M48835 38269
L48536 38269
L48578 38297
L48607 38326
L48621 38354
" />
<path d="M48564 38069
L48550 38055
L48536 38027
L48536 37955
L48550 37927
L48564 37913
L48593 37898
L48621 37898
L48664 37913
L48835 38084
L48835 37898
" />
</g>
<g style="fill:#000000; fill-opacity:0.0; 
stroke:#000000; stroke-width:59.0551; stroke-opacity:1; 
stroke-linecap:round; stroke-linejoin:round;">
<text x="37123.6" y="28144.1"
textLength="1820.63" font-size="524.934" lengthAdjust="spacingAndGlyphs"
text-anchor="middle" opacity="0">C_1nF</text>
<path d="M36561 28087
L36542 28106
L36486 28125
L36448 28125
L36392 28106
L36354 28069
L36336 28031
L36317 27956
L36317 27900
L36336 27825
L36354 27787
L36392 27750
L36448 27731
L36486 27731
L36542 27750
L36561 27769
" />
<path d="M36636 28162
L36936 28162
" />
<path d="M37236 28125
L37011 28125
" />
<path d="M37123 28125
L37123 27731
L37086 27787
L37048 27825
L37011 27844
" />
<path d="M37404 27862
L37404 28125
" />
<path d="M37404 27900
L37423 27881
L37461 27862
L37517 27862
L37554 27881
L37573 27919
L37573 28125
" />
<path d="M37892 27919
L37761 27919
" />
<path d="M37761 28125
L37761 27731
L37948 27731
" />
</g>
<g style="fill:#000000; fill-opacity:0.0; 
stroke:#000000; stroke-width:44.8819; stroke-opacity:1; 
stroke-linecap:round; stroke-linejoin:round;">
<text x="37123.6" y="29049.6"
textLength="945.913" font-size="398.95" lengthAdjust="spacingAndGlyphs"
text-anchor="middle" opacity="0">C11</text>
<path d="M36931 29006
L36917 29021
L36874 29035
L36845 29035
L36803 29021
L36774 28992
L36760 28964
L36746 28907
L36746 28864
L36760 28807
L36774 28778
L36803 28750
L36845 28736
L36874 28736
L36917 28750
L36931 28764
" />
<path d="M37216 29035
L37045 29035
" />
<path d="M37130 29035
L37130 28736
L37102 28778
L37073 28807
L37045 28821
" />
<path d="M37501 29035
L37330 29035
" />
<path d="M37415 29035
L37415 28736
L37387 28778
L37358 28807
L37330 28821
" />
</g>
<g style="fill:#000000; fill-opacity:0.0; 
stroke:#000000; stroke-width:59.0551; stroke-opacity:1; 
stroke-linecap:round; stroke-linejoin:round;">
<g transform="rotate(-90 49047.2 33776.4)">
<text x="49047.2" y="33973.2"
textLength="2570.53" font-size="524.934" lengthAdjust="spacingAndGlyphs"
text-anchor="middle" opacity="0">C_100nF</text>
</g>
<path d="M49187 34713
L49206 34732
L49225 34788
L49225 34826
L49206 34882
L49169 34919
L49131 34938
L49056 34957
L49000 34957
L48925 34938
L48887 34919
L48850 34882
L48831 34826
L48831 34788
L48850 34732
L48869 34713
" />
<path d="M49262 34638
L49262 34338
" />
<path d="M49225 34038
L49225 34263
" />
<path d="M49225 34151
L48831 34151
L48887 34188
L48925 34226
L48944 34263
" />
<path d="M48831 33795
L48831 33757
L48850 33720
L48869 33701
L48906 33682
L48981 33663
L49075 33663
L49150 33682
L49187 33701
L49206 33720
L49225 33757
L49225 33795
L49206 33832
L49187 33851
L49150 33870
L49075 33888
L48981 33888
L48906 33870
L48869 33851
L48850 33832
L48831 33795
" />
<path d="M48831 33420
L48831 33382
L48850 33345
L48869 33326
L48906 33307
L48981 33288
L49075 33288
L49150 33307
L49187 33326
L49206 33345
L49225 33382
L49225 33420
L49206 33457
L49187 33476
L49150 33495
L49075 33513
L48981 33513
L48906 33495
L48869 33476
L48850 33457
L48831 33420
" />
<path d="M48962 33120
L49225 33120
" />
<path d="M49000 33120
L48981 33101
L48962 33063
L48962 33007
L48981 32970
L49019 32951
L49225 32951
" />
<path d="M49019 32632
L49019 32764
" />
<path d="M49225 32764
L48831 32764
L48831 32576
" />
</g>
<g style="fill:#000000; fill-opacity:0.0; 
stroke:#000000; stroke-width:44.8819; stroke-opacity:1; 
stroke-linecap:round; stroke-linejoin:round;">
<g transform="rotate(-90 50000 33776.4)">
<text x="50000" y="33926"
textLength="945.913" font-size="398.95" lengthAdjust="spacingAndGlyphs"
text-anchor="middle" opacity="0">C10</text>
</g>
<path d="M50106 33968
L50121 33982
L50135 34025
L50135 34054
L50121 34096
L50092 34125
L50064 34139
L50007 34153
L49964 34153
L49907 34139
L49878 34125
L49850 34096
L49836 34054
L49836 34025
L49850 33982
L49864 33968
" />
<path d="M50135 33683
L50135 33854
" />
<path d="M50135 33769
L49836 33769
L49878 33797
L49907 33826
L49921 33854
" />
<path d="M49836 33498
L49836 33470
L49850 33441
L49864 33427
L49893 33413
L49950 33398
L50021 33398
L50078 33413
L50106 33427
L50121 33441
L50135 33470
L50135 33498
L50121 33527
L50106 33541
L50078 33555
L50021 33569
L49950 33569
L49893 33555
L49864 33541
L49850 33527
L49836 33498
" />
</g>
<g style="fill:#000000; fill-opacity:0.0; 
stroke:#000000; stroke-width:59.0551; stroke-opacity:1; 
stroke-linecap:round; stroke-linejoin:round;">
<g transform="rotate(-90 68255.9 24046.5)">
<text x="68255.9" y="24243.3"
textLength="2420.55" font-size="524.934" lengthAdjust="spacingAndGlyphs"
text-anchor="middle" opacity="0">C_Small</text>
</g>
<path d="M68396 24908
L68415 24927
L68434 24983
L68434 25021
L68415 25077
L68377 25115
L68340 25133
L68265 25152
L68209 25152
L68134 25133
L68096 25115
L68059 25077
L68040 25021
L68040 24983
L68059 24927
L68077 24908
" />
<path d="M68471 24833
L68471 24533
" />
<path d="M68415 24458
L68434 24402
L68434 24308
L68415 24271
L68396 24252
L68359 24233
L68321 24233
L68284 24252
L68265 24271
L68246 24308
L68227 24383
L68209 24421
L68190 24440
L68152 24458
L68115 24458
L68077 24440
L68059 24421
L68040 24383
L68040 24290
L68059 24233
" />
<path d="M68434 24065
L68171 24065
" />
<path d="M68209 24065
L68190 24046
L68171 24008
L68171 23952
L68190 23915
L68227 23896
L68434 23896
" />
<path d="M68227 23896
L68190 23877
L68171 23840
L68171 23783
L68190 23746
L68227 23727
L68434 23727
" />
<path d="M68434 23371
L68227 23371
L68190 23390
L68171 23427
L68171 23502
L68190 23540
" />
<path d="M68415 23371
L68434 23409
L68434 23502
L68415 23540
L68377 23559
L68340 23559
L68302 23540
L68284 23502
L68284 23409
L68265 23371
" />
<path d="M68434 23127
L68415 23165
L68377 23184
L68040 23184
" />
<path d="M68434 22921
L68415 22959
L68377 22977
L68040 22977
" />
</g>
<g style="fill:#000000; fill-opacity:0.0; 
stroke:#000000; stroke-width:44.8819; stroke-opacity:1; 
stroke-linecap:round; stroke-linejoin:round;">
<g transform="rotate(-90 69208.7 24046.5)">
<text x="69208.7" y="24196.1"
textLength="660.949" font-size="398.95" lengthAdjust="spacingAndGlyphs"
text-anchor="middle" opacity="0">C9</text>
</g>
<path d="M69315 24096
L69329 24110
L69344 24153
L69344 24181
L69329 24224
L69301 24253
L69272 24267
L69215 24281
L69173 24281
L69116 24267
L69087 24253
L69059 24224
L69044 24181
L69044 24153
L69059 24110
L69073 24096
" />
<path d="M69344 23953
L69344 23896
L69329 23868
L69315 23854
L69272 23825
L69215 23811
L69101 23811
L69073 23825
L69059 23839
L69044 23868
L69044 23925
L69059 23953
L69073 23968
L69101 23982
L69173 23982
L69201 23968
L69215 23953
L69230 23925
L69230 23868
L69215 23839
L69201 23825
L69173 23811
" />
</g>
<g style="fill:#000000; fill-opacity:0.0; 
stroke:#000000; stroke-width:59.0551; stroke-opacity:1; 
stroke-linecap:round; stroke-linejoin:round;">
<text x="54173.2" y="26822"
textLength="2420.55" font-size="524.934" lengthAdjust="spacingAndGlyphs"
text-anchor="middle" opacity="0">C_Small</text>
<path d="M53310 26765
L53292 26784
L53235 26803
L53198 26803
L53142 26784
L53104 26747
L53085 26709
L53067 26634
L53067 26578
L53085 26503
L53104 26465
L53142 26428
L53198 26409
L53235 26409
L53292 26428
L53310 26447
" />
<path d="M53385 26840
L53685 26840
" />
<path d="M53760 26784
L53817 26803
L53910 26803
L53948 26784
L53967 26765
L53985 26728
L53985 26690
L53967 26653
L53948 26634
L53910 26615
L53835 26597
L53798 26578
L53779 26559
L53760 26522
L53760 26484
L53779 26447
L53798 26428
L53835 26409
L53929 26409
L53985 26428
" />
<path d="M54154 26803
L54154 26540
" />
<path d="M54154 26578
L54173 26559
L54210 26540
L54266 26540
L54304 26559
L54323 26597
L54323 26803
" />
<path d="M54323 26597
L54341 26559
L54379 26540
L54435 26540
L54473 26559
L54491 26597
L54491 26803
" />
<path d="M54848 26803
L54848 26597
L54829 26559
L54791 26540
L54716 26540
L54679 26559
" />
<path d="M54848 26784
L54810 26803
L54716 26803
L54679 26784
L54660 26747
L54660 26709
L54679 26672
L54716 26653
L54810 26653
L54848 26634
" />
<path d="M55091 26803
L55054 26784
L55035 26747
L55035 26409
" />
<path d="M55298 26803
L55260 26784
L55241 26747
L55241 26409
" />
</g>
<g style="fill:#000000; fill-opacity:0.0; 
stroke:#000000; stroke-width:44.8819; stroke-opacity:1; 
stroke-linecap:round; stroke-linejoin:round;">
<text x="54173.2" y="25822"
textLength="660.949" font-size="398.95" lengthAdjust="spacingAndGlyphs"
text-anchor="middle" opacity="0">C8</text>
<path d="M54123 25779
L54109 25793
L54066 25807
L54037 25807
L53995 25793
L53966 25765
L53952 25736
L53938 25679
L53938 25636
L53952 25579
L53966 25551
L53995 25522
L54037 25508
L54066 25508
L54109 25522
L54123 25537
" />
<path d="M54294 25636
L54265 25622
L54251 25608
L54237 25579
L54237 25565
L54251 25537
L54265 25522
L54294 25508
L54351 25508
L54379 25522
L54394 25537
L54408 25565
L54408 25579
L54394 25608
L54379 25622
L54351 25636
L54294 25636
L54265 25651
L54251 25665
L54237 25693
L54237 25750
L54251 25779
L54265 25793
L54294 25807
L54351 25807
L54379 25793
L54394 25779
L54408 25750
L54408 25693
L54394 25665
L54379 25651
L54351 25636
" />
</g>
<g style="fill:#000000; fill-opacity:0.0; 
stroke:#000000; stroke-width:59.0551; stroke-opacity:1; 
stroke-linecap:round; stroke-linejoin:round;">
<g transform="rotate(-90 38739.4 35684.3)">
<text x="38739.4" y="35881.1"
textLength="845.748" font-size="524.934" lengthAdjust="spacingAndGlyphs"
text-anchor="middle" opacity="0">CP</text>
</g>
<path d="M38879 35759
L38898 35777
L38917 35834
L38917 35871
L38898 35927
L38861 35965
L38823 35984
L38748 36002
L38692 36002
L38617 35984
L38580 35965
L38542 35927
L38523 35871
L38523 35834
L38542 35777
L38561 35759
" />
<path d="M38917 35590
L38523 35590
L38523 35440
L38542 35403
L38561 35384
L38598 35365
L38655 35365
L38692 35384
L38711 35403
L38729 35440
L38729 35590
" />
<g transform="rotate(-90 41200 35684.3)">
<text x="41200" y="35881.1"
textLength="845.426" font-size="524.934" lengthAdjust="spacingAndGlyphs"
text-anchor="middle" opacity="0">C7</text>
</g>
<path d="M41340 35749
L41359 35768
L41378 35824
L41378 35862
L41359 35918
L41321 35956
L41284 35974
L41209 35993
L41153 35993
L41078 35974
L41040 35956
L41003 35918
L40984 35862
L40984 35824
L41003 35768
L41021 35749
" />
<path d="M40984 35618
L40984 35356
L41378 35524
" />
<g transform="rotate(-90 37652.8 25723.6)">
<text x="37652.8" y="25920.5"
textLength="2438.98" font-size="524.934" lengthAdjust="spacingAndGlyphs"
text-anchor="middle" opacity="0">C_Small</text>
</g>
<path d="M37793 26586
L37812 26604
L37830 26661
L37830 26698
L37812 26754
L37774 26792
L37737 26810
L37662 26829
L37605 26829
L37530 26810
L37493 26792
L37455 26754
L37437 26698
L37437 26661
L37455 26604
L37474 26586
" />
<path d="M37868 26511
L37868 26211
" />
<path d="M37812 26136
L37830 26079
L37830 25986
L37812 25948
L37793 25929
L37755 25911
L37718 25911
L37680 25929
L37662 25948
L37643 25986
L37624 26061
L37605 26098
L37587 26117
L37549 26136
L37512 26136
L37474 26117
L37455 26098
L37437 26061
L37437 25967
L37455 25911
" />
<path d="M37830 25742
L37568 25742
" />
<path d="M37605 25742
L37587 25723
L37568 25686
L37568 25629
L37587 25592
L37624 25573
L37830 25573
" />
<path d="M37624 25573
L37587 25554
L37568 25517
L37568 25461
L37587 25423
L37624 25404
L37830 25404
" />
<path d="M37830 25048
L37624 25048
L37587 25067
L37568 25104
L37568 25179
L37587 25217
" />
<path d="M37812 25048
L37830 25086
L37830 25179
L37812 25217
L37774 25236
L37737 25236
L37699 25217
L37680 25179
L37680 25086
L37662 25048
" />
<path d="M37830 24804
L37812 24842
L37774 24861
L37437 24861
" />
<path d="M37830 24598
L37812 24636
L37774 24655
L37437 24655
" />
</g>
<g style="fill:#000000; fill-opacity:0.0; 
stroke:#000000; stroke-width:44.8819; stroke-opacity:1; 
stroke-linecap:round; stroke-linejoin:round;">
<g transform="rotate(-90 36700 25723.6)">
<text x="36700" y="25873.2"
textLength="660.949" font-size="398.95" lengthAdjust="spacingAndGlyphs"
text-anchor="middle" opacity="0">C6</text>
</g>
<path d="M36806 25773
L36821 25787
L36835 25830
L36835 25858
L36821 25901
L36792 25930
L36764 25944
L36707 25958
L36664 25958
L36607 25944
L36578 25930
L36550 25901
L36536 25858
L36536 25830
L36550 25787
L36564 25773
" />
<path d="M36536 25517
L36536 25574
L36550 25602
L36564 25616
L36607 25645
L36664 25659
L36778 25659
L36806 25645
L36821 25631
L36835 25602
L36835 25545
L36821 25517
L36806 25502
L36778 25488
L36707 25488
L36678 25502
L36664 25517
L36650 25545
L36650 25602
L36664 25631
L36678 25645
L36707 25659
" />
</g>
<g style="fill:#000000; fill-opacity:0.0; 
stroke:#000000; stroke-width:59.0551; stroke-opacity:1; 
stroke-linecap:round; stroke-linejoin:round;">
<text x="78098.4" y="33247.2"
textLength="845.748" font-size="524.934" lengthAdjust="spacingAndGlyphs"
text-anchor="middle" opacity="0">CP</text>
<path d="M78023 33191
L78004 33209
L77948 33228
L77910 33228
L77854 33209
L77817 33172
L77798 33134
L77779 33059
L77779 33003
L77798 32928
L77817 32891
L77854 32853
L77910 32834
L77948 32834
L78004 32853
L78023 32872
" />
<path d="M78192 33228
L78192 32834
L78342 32834
L78379 32853
L78398 32872
L78417 32909
L78417 32966
L78398 33003
L78379 33022
L78342 33041
L78192 33041
" />
<text x="78098.4" y="36889"
textLength="845.426" font-size="524.934" lengthAdjust="spacingAndGlyphs"
text-anchor="middle" opacity="0">C5</text>
<path d="M78032 36832
L78014 36851
L77957 36870
L77920 36870
L77864 36851
L77826 36813
L77807 36776
L77789 36701
L77789 36645
L77807 36570
L77826 36532
L77864 36495
L77920 36476
L77957 36476
L78014 36495
L78032 36514
" />
<path d="M78389 36476
L78201 36476
L78182 36664
L78201 36645
L78239 36626
L78332 36626
L78370 36645
L78389 36664
L78407 36701
L78407 36795
L78389 36832
L78370 36851
L78332 36870
L78239 36870
L78201 36851
L78182 36832
" />
<text x="50552.8" y="44548"
textLength="2270.25" font-size="524.934" lengthAdjust="spacingAndGlyphs"
text-anchor="middle" opacity="0">C_4700</text>
<path d="M49774 44491
L49755 44510
L49699 44529
L49662 44529
L49605 44510
L49568 44473
L49549 44435
L49531 44360
L49531 44304
L49549 44229
L49568 44191
L49605 44154
L49662 44135
L49699 44135
L49755 44154
L49774 44173
" />
<path d="M49849 44566
L50149 44566
" />
<path d="M50412 44266
L50412 44529
" />
<path d="M50318 44116
L50224 44398
L50468 44398
" />
<path d="M50580 44135
L50843 44135
L50674 44529
" />
<path d="M51068 44135
L51105 44135
L51143 44154
L51162 44173
L51180 44210
L51199 44285
L51199 44379
L51180 44454
L51162 44491
L51143 44510
L51105 44529
L51068 44529
L51030 44510
L51012 44491
L50993 44454
L50974 44379
L50974 44285
L50993 44210
L51012 44173
L51030 44154
L51068 44135
" />
<path d="M51443 44135
L51480 44135
L51518 44154
L51537 44173
L51555 44210
L51574 44285
L51574 44379
L51555 44454
L51537 44491
L51518 44510
L51480 44529
L51443 44529
L51405 44510
L51387 44491
L51368 44454
L51349 44379
L51349 44285
L51368 44210
L51387 44173
L51405 44154
L51443 44135
" />
<text x="50552.8" y="43496.9"
textLength="845.426" font-size="524.934" lengthAdjust="spacingAndGlyphs"
text-anchor="middle" opacity="0">C4</text>
<path d="M50487 43440
L50468 43459
L50412 43478
L50374 43478
L50318 43459
L50280 43421
L50262 43384
L50243 43309
L50243 43253
L50262 43178
L50280 43140
L50318 43103
L50374 43084
L50412 43084
L50468 43103
L50487 43121
" />
<path d="M50824 43215
L50824 43478
" />
<path d="M50730 43065
L50637 43346
L50880 43346
" />
<g transform="rotate(-90 40044.9 44568.5)">
<text x="40044.9" y="44765.4"
textLength="3038.9" font-size="524.934" lengthAdjust="spacingAndGlyphs"
text-anchor="middle" opacity="0">C_Varistor</text>
</g>
<path d="M40185 45730
L40204 45749
L40222 45805
L40222 45843
L40204 45899
L40166 45937
L40129 45955
L40054 45974
L39998 45974
L39923 45955
L39885 45937
L39848 45899
L39829 45843
L39829 45805
L39848 45749
L39866 45730
" />
<path d="M40260 45655
L40260 45355
" />
<path d="M39829 45318
L40222 45187
L39829 45055
" />
<path d="M40222 44755
L40016 44755
L39979 44774
L39960 44812
L39960 44887
L39979 44924
" />
<path d="M40204 44755
L40222 44793
L40222 44887
L40204 44924
L40166 44943
L40129 44943
L40091 44924
L40073 44887
L40073 44793
L40054 44755
" />
<path d="M40222 44568
L39960 44568
" />
<path d="M40035 44568
L39998 44549
L39979 44531
L39960 44493
L39960 44456
" />
<path d="M40222 44324
L39960 44324
" />
<path d="M39829 44324
L39848 44343
L39866 44324
L39848 44306
L39829 44324
L39866 44324
" />
<path d="M40204 44156
L40222 44118
L40222 44043
L40204 44006
L40166 43987
L40147 43987
L40110 44006
L40091 44043
L40091 44099
L40073 44137
L40035 44156
L40016 44156
L39979 44137
L39960 44099
L39960 44043
L39979 44006
" />
<path d="M39960 43874
L39960 43724
" />
<path d="M39829 43818
L40166 43818
L40204 43799
L40222 43762
L40222 43724
" />
<path d="M40222 43537
L40204 43574
L40185 43593
L40147 43612
L40035 43612
L39998 43593
L39979 43574
L39960 43537
L39960 43481
L39979 43443
L39998 43424
L40035 43406
L40147 43406
L40185 43424
L40204 43443
L40222 43481
L40222 43537
" />
<path d="M40222 43237
L39960 43237
" />
<path d="M40035 43237
L39998 43218
L39979 43199
L39960 43162
L39960 43124
" />
<g transform="rotate(-90 38785 44568.5)">
<text x="38785" y="44765.4"
textLength="845.426" font-size="524.934" lengthAdjust="spacingAndGlyphs"
text-anchor="middle" opacity="0">C2</text>
</g>
<path d="M38925 44634
L38944 44652
L38963 44709
L38963 44746
L38944 44802
L38906 44840
L38869 44859
L38794 44877
L38738 44877
L38663 44859
L38625 44840
L38588 44802
L38569 44746
L38569 44709
L38588 44652
L38606 44634
" />
<path d="M38606 44484
L38588 44465
L38569 44427
L38569 44334
L38588 44296
L38606 44277
L38644 44259
L38681 44259
L38738 44277
L38963 44502
L38963 44259
" />
<g transform="rotate(-90 31320.5 47378.7)">
<text x="31320.5" y="47575.6"
textLength="1145.39" font-size="524.934" lengthAdjust="spacingAndGlyphs"
text-anchor="middle" opacity="0">C_X</text>
</g>
<path d="M31461 47594
L31479 47613
L31498 47669
L31498 47706
L31479 47763
L31442 47800
L31404 47819
L31329 47838
L31273 47838
L31198 47819
L31161 47800
L31123 47763
L31104 47706
L31104 47669
L31123 47613
L31142 47594
" />
<path d="M31536 47519
L31536 47219
" />
<path d="M31104 47163
L31498 46900
" />
<path d="M31104 46900
L31498 47163
" />
<g transform="rotate(-90 29600 47378.7)">
<text x="29600" y="47575.6"
textLength="845.426" font-size="524.934" lengthAdjust="spacingAndGlyphs"
text-anchor="middle" opacity="0">C1</text>
</g>
<path d="M29740 47444
L29759 47463
L29778 47519
L29778 47556
L29759 47613
L29721 47650
L29684 47669
L29609 47688
L29553 47688
L29478 47669
L29440 47650
L29403 47613
L29384 47556
L29384 47519
L29403 47463
L29421 47444
" />
<path d="M29778 47069
L29778 47294
" />
<path d="M29778 47181
L29384 47181
L29440 47219
L29478 47256
L29496 47294
" />
<g >
</g>
</g>
<g style="fill:#000000; fill-opacity:0.0; 
stroke:#000000; stroke-width:59.0551; stroke-opacity:1; 
stroke-linecap:round; stroke-linejoin:round;">
<g >
</g>
<g >
</g>
<g >
</g>
<g >
</g>
<g >
</g>
<g >
</g>
<g >
</g>
<g >
</g>
<g >
</g>
<g >
</g>
<g >
</g>
<g >
</g>
<g >
</g>
<g >
</g>
<g >
</g>
<g >
</g>
<g >
</g>
<g >
</g>
<g >
</g>
<g >
</g>
<g >
</g>
<g >
</g>
<g >
</g>
<g >
</g>
<g >
</g>
<g >
</g>
<g >
</g>
<g >
</g>
<g >
</g>
<g >
</g>
<g >
</g>
<g >
</g>
<g >
</g>
<g >
</g>
<g >
</g>
<g >
</g>
<g >
</g>
<g >
</g>
<g >
</g>
<g >
</g>
<g >
</g>
<g >
</g>
<g >
</g>
<g >
</g>
<g >
</g>
<g >
</g>
</g> 
</svg>
